<svg xmlns="http://www.w3.org/2000/svg" width="146.056" height="23.806" viewBox="0 0 146.056 23.806">
  <g id="daily-mail" transform="translate(-48.272)">
    <path id="Path_11623" data-name="Path 11623" d="M82.545,95.281l.325.243a6.046,6.046,0,0,1,.021-.976.8.8,0,0,0-.3.467l-.346.041.305.224Zm13.319,2.642a.221.221,0,0,0-.2-.141.248.248,0,0,0,0,.487.231.231,0,0,0,.224-.243c0-.04-.02-.062-.02-.1Zm-.008-.954a.226.226,0,0,1,.008.06.25.25,0,0,1-.164.23v.3a.408.408,0,0,1,.286.16.508.508,0,0,1,.1.3.453.453,0,0,1-.307.451c.5-.039.816-.085.816-.085-.489-.1-.2-.386-.2-.386a2.561,2.561,0,0,1,.651-.327,1.236,1.236,0,0,1-.916-.711h-.271v0ZM95.6,98.488a.484.484,0,0,1-.021-.921v-.3a.267.267,0,0,1-.223-.221l0,0a1.528,1.528,0,0,1-.386.06.106.106,0,0,0,.041.143c.427.305.143.589.143.589-.2.184-.3.184-.3.184a3.477,3.477,0,0,0-.691.489c.544.017,1.041,0,1.444-.026ZM90.028,96.6a.176.176,0,0,0,.1-.032l.406.175a.208.208,0,0,0,.184.224.178.178,0,0,0,.151-.1l.344.051a.193.193,0,0,0,.175.17.222.222,0,0,0,.2-.211l.288-.136a.173.173,0,0,0,.143.083.224.224,0,0,0,.2-.224l.184-.3a5.326,5.326,0,0,0,1.037-.021,9.114,9.114,0,0,1,1-.448,2.616,2.616,0,0,0-.429.346,3.092,3.092,0,0,0-.284.325.544.544,0,0,0-.224.469.784.784,0,0,0,.121.325.757.757,0,0,0,.245.184l.224.2a2.051,2.051,0,0,1-.591.243.817.817,0,0,1-.528-.06c-.712-.162-.956.162-.956.162a.687.687,0,0,1-.407.184l.121.184a.474.474,0,0,1-.406-.021,1.511,1.511,0,0,1,.162-.691c-.081-.548-1.221-.448-1.221-.448l-.283-.266-.061-.062-.651-.61a1.878,1.878,0,0,1-.182.672,3.246,3.246,0,0,1-.184.346l-.243-.123a.7.7,0,0,0,.1-.223,7.915,7.915,0,0,0,.346-1.18,1.248,1.248,0,0,1,.305.041,1.167,1.167,0,0,0,.1.062c.047.022.1.044.155.066l.224.318a.249.249,0,0,0-.032.123c0,.121.06.2.162.2Zm2.27-.317-.119.169a.194.194,0,0,0-.159-.1c-.1,0-.184.1-.184.243a.21.21,0,0,0,.007.057l-.259.121a.234.234,0,0,0-.194-.179c-.1,0-.182.121-.182.243l-.31-.053a.229.229,0,0,0,0-.047c0-.121-.083-.245-.184-.245a.2.2,0,0,0-.167.153l-.359-.162a.22.22,0,0,0,.017-.091.2.2,0,0,0-.184-.2.114.114,0,0,0-.047.008l-.1-.172h0a10.543,10.543,0,0,0,1.16.286h.448l.143-.224a1.849,1.849,0,0,0,.665.191Zm-2.41-3.472c.017.021.032.04.049.057l-.026.046a.091.091,0,0,0-.046-.015.158.158,0,0,0-.143.163l-.019-.02-.164-.184-.06-.061-.366-.386c-.427-.569-1.078,0-1.078,0l-.1-.081a.27.27,0,0,0,.041-.468l.671-1.729-.184-.224c.327-.671-.365-.691-.365-.691-.2-.61-.57-.325-.57-.325-.121-.59-.57-.285-.57-.285a.357.357,0,0,0-.549-.163l.019-.956-.446.02-.489-.02.041.976a.356.356,0,0,0-.57.244c-.568-.326-.568.3-.568.3-.469-.143-.448.305-.448.305a.538.538,0,0,0-.549.61l.487,1.667a25.724,25.724,0,0,1-1.565,2.074l-.611-.183-.041-.1a.3.3,0,0,0,.244.041,1.746,1.746,0,0,1,.02-.61c.184-.793-.142-1.078-.142-1.078a1.539,1.539,0,0,0-.2-.711c.305-.386-.142-.773-.142-.773l-.062-.1-.02-.834c-.081,0-.122-.1-.122-.1-.122-.346-.346-.121-.346-.121a.239.239,0,0,0-.427-.081.26.26,0,0,0-.448,0l-.183-.59-.61.243.2.651c-.448-.1-.305.346-.305.346-.386.02-.2.366-.2.366-.366.041-.224.448-.224.448l.406.671c-.326.366-.02.61-.02.61.1.184.224.184.224.184a1.759,1.759,0,0,0,.061,1.119,3.5,3.5,0,0,1-1,.731,6.275,6.275,0,0,1-.956.366c-.794.184-2.359.691-2.359.691-.549.141-1.424.406-1.424.406-1.1.327-1.383-.019-1.383-.019-.264-.164-.061-.591-.061-.591A1.3,1.3,0,0,1,73.008,94a3.451,3.451,0,0,1,.529.386,1,1,0,0,0,.671.224l.02-.081a.583.583,0,0,0,.305-.041.405.405,0,0,1-.122-.264c0-.1-.142-.263-.142-.263l2.826-.122c.1-.019.183-.019.264-.041a2.585,2.585,0,0,0,1.2-.406,1.34,1.34,0,0,0,.386-1.4,1.36,1.36,0,0,0-1.078-.9,2.342,2.342,0,0,0-.956-.061,4.253,4.253,0,0,1-.935-.142c-.021.121.244.508.244.508a.686.686,0,0,1-.508-.162,1,1,0,0,0-.854-.163,3.676,3.676,0,0,0,.57.57,3.992,3.992,0,0,1-1.057-.3,1.812,1.812,0,0,0,2.623,1.119,4.685,4.685,0,0,1,.773-.386.442.442,0,0,1,.61.285c-.041.691-.549.711-.549.711a13.4,13.4,0,0,1-3.416.1,1.534,1.534,0,0,0,.163-.651l-.163.041c-.854-.081-1.078.1-1.078.1a1.243,1.243,0,0,0-.447.569,3.228,3.228,0,0,0-.916.569,2.057,2.057,0,0,0-.63,1.159c-.041.732.366.834.366.834-.366.711.183.976.183.976a1.217,1.217,0,0,0,.346-.386,7.176,7.176,0,0,1,1.911-.671,2.062,2.062,0,0,0-.448.894,1.292,1.292,0,0,1-.651-.062c-.224-.019-.224.164-.224.164l-.1.243-.142.448c-.874-.041-.752.467-.752.467l-.122,1.362c.2.508.529.427.529.427v-.508h.224a1.24,1.24,0,0,0,.671.671h.122c.142-.041.2.164.2.164L73.6,100l.02-.346.162-.019c.1.041.163.2.163.2h.121a1.3,1.3,0,0,0,.062-.305c.163-.1.121-.467.121-.467a1.479,1.479,0,0,1,.671.062l-.02.3a.94.94,0,0,0,.549.469,4.189,4.189,0,0,0,.874.121c.631.041,1.424.019,2.156,0q1.192-.06,2.379-.184c.081.121.121.1.121.1.346.121.732-.245.732-.245l-.121.245a1.424,1.424,0,0,0,.549-.2.561.561,0,0,0,.284.2l.061-.061.081.121a.77.77,0,0,0,.264-.365.6.6,0,0,0,.448.121l.081.121.06-.1a2.863,2.863,0,0,0,.346.184.982.982,0,0,0,.143-.751l.061.1.06-.243a.519.519,0,0,0,.327.121c-.386.162-.164.448-.164.448a.454.454,0,0,0,.2.182.258.258,0,0,1,.284.2.389.389,0,0,0,.489-.184l.041-.243a1.137,1.137,0,0,1-.062-.367l.062.264.1.061L86,100.1l.591-.489a1.548,1.548,0,0,0,.773.224c.162,0,.041-.2.041-.2a1.961,1.961,0,0,0,1.321.325c.121-.1.041-.162.041-.162.143-.061.386.143.386.143a.614.614,0,0,0,.508.019.161.161,0,0,0-.121-.121c.143,0,.062-.2.062-.2a.5.5,0,0,1,.264.182.375.375,0,0,0,.346.123l.019-.1a1.166,1.166,0,0,0,.467.121.183.183,0,0,0,.021-.2,13.538,13.538,0,0,0,3.639.365c2.827-.019,3.214-.568,3.214-.568a.267.267,0,0,0,.041-.264v-.162a.562.562,0,0,1,.366-.021l-.2.427-.06.143c.487.549,1.219-.061,1.219-.061v-.184a.781.781,0,0,0,.264-.223l.327.081a.616.616,0,0,1-.081.386.577.577,0,0,0,.69-.386l-.263-1.364a1.449,1.449,0,0,0-1.139-.386l-.021-.346a.389.389,0,0,0-.305-.223l-.157-.057-.148.057c-.224.019-.55.019-.55.019v-.019l.041-.469v-.528l-.041-.184.429.062a3.824,3.824,0,0,0,1.078.141.393.393,0,0,1,.243.346l-.081.286c.691-.062.61-.834.61-.834.487-.407.365-1.505.365-1.505a1.073,1.073,0,0,0-.224-.489l-.019-.019a1.184,1.184,0,0,0-.691-1,.45.45,0,0,0-.264-.1,1.121,1.121,0,0,1-.386-.3.882.882,0,0,0-.041.853,14.839,14.839,0,0,0-2.442.326,3.068,3.068,0,0,1-1.3-.142c-.509-.285-.427-.651-.427-.651.1-.59.589-.509.589-.509h.143a1.193,1.193,0,0,1,.732.081,4.389,4.389,0,0,0,2.378,0,1.844,1.844,0,0,0,.937-1.241,1.21,1.21,0,0,1-.956.367,2.528,2.528,0,0,0-.305.081.861.861,0,0,1,.487-.509,1.292,1.292,0,0,0-1.1.163,1.914,1.914,0,0,1-.916.406,1.531,1.531,0,0,0,.712-.691,1.787,1.787,0,0,1-.854.142,2.551,2.551,0,0,0-1.749.589,1.423,1.423,0,0,0-.427,1.627,1.056,1.056,0,0,0,.61.529,2.715,2.715,0,0,0,.792.224,16.559,16.559,0,0,0,2.665-.1,1.646,1.646,0,0,1,.346-.041,1.3,1.3,0,0,0-.386.794,1.8,1.8,0,0,1,.568-.121l-.019.081a2.3,2.3,0,0,1,.711,0,.219.219,0,0,0,.245-.162c.243.365-.245.773-.245.773-.284.284-.914.06-.914.06a5.175,5.175,0,0,0-1.242-.224,9.623,9.623,0,0,0-2.013-.568.22.22,0,0,0-.284-.1l-.164-.021a.349.349,0,0,0-.528-.162,3.518,3.518,0,0,1-.937-.427.751.751,0,0,1-.182-.121,3.353,3.353,0,0,0,.914-2.236A2,2,0,0,0,92.527,89.5a1.049,1.049,0,0,0-.854-.529l-.041.1.06.142c-.019.1.1.285.1.285l-.264.061-1.647-.956c-.406-.1-.244.243-.244.243l.081.122,1.424,1.119a2.716,2.716,0,0,1-.63.651l-.184.041-.224.243.021.326a.659.659,0,0,1-.327.081l-.019.2c.141.2.549.2.549.2l.325.325a.152.152,0,0,0,.184-.02l.284-.325.386-.183a.9.9,0,0,0,.286.081,1.7,1.7,0,0,0-.549.488,1.569,1.569,0,0,0-.591.02l-.041.224-.012.054-.089-.054a.341.341,0,0,0-.591-.224.461.461,0,0,0-.037.583Zm.009.425a.192.192,0,0,0,.089-.175A.163.163,0,0,0,89.971,93L90,92.927a.354.354,0,0,0,.225.079c.209-.007.291-.309.291-.309h.051l-.051.243a1.46,1.46,0,0,0-.386.529l-.231-.23Zm.127-.581a.236.236,0,0,1,.125-.327c.284-.041.224.325.224.325-.076.1-.138.131-.189.135C90.074,92.8,90.026,92.66,90.024,92.658Zm-11.1,4.29a1.383,1.383,0,0,1-.814.366l-.163.263.386.1.081.041.346.1a.22.22,0,0,1,.285-.184s.183-.489.915-.325a.4.4,0,0,1,.284.041,1.141,1.141,0,0,1,.183.141l-.081-.264a.269.269,0,0,1,.284-.081.86.86,0,0,1-.142-.2.754.754,0,0,1-.142-.407,1.014,1.014,0,0,1,.488-.06v-.224h.142l-.264-.162a1.884,1.884,0,0,1-1.932.386,3,3,0,0,1-.711-.305,1.042,1.042,0,0,0,1.017.589,1.668,1.668,0,0,1-.162.184Zm-3.274,0a7.344,7.344,0,0,0,1.119.184,1.448,1.448,0,0,1-.183.162,1.09,1.09,0,0,1-.406.224,1.031,1.031,0,0,0-.061.57,1.075,1.075,0,0,0,.406.2c.2.081.406.143.406.143a1.887,1.887,0,0,1-.752,0,1.281,1.281,0,0,1-.366-.083l.1-.2c-.081-.529-.874-.589-.874-.589l.041-.243a1.655,1.655,0,0,0,.244-.366.538.538,0,0,0,.061-.121.868.868,0,0,0,.244.121h.019Zm14.48,1.688a.181.181,0,0,0-.1.162s.041.121.3.2a1.227,1.227,0,0,0-.021-.467.874.874,0,0,0-.182.1Zm-9.274-.367L81,98.228a.614.614,0,0,1-.162-.2.424.424,0,0,0-.183-.305l.02.143v.2l.061.062v.162Zm.651.713.021.305L81.792,99a.112.112,0,0,1-.1-.06.693.693,0,0,1-.162-.2l-.021.243Zm.919-2.026a.388.388,0,0,1,.357.081.27.27,0,0,1,.248-.293,5.879,5.879,0,0,1-.814-.224,1.241,1.241,0,0,1-.569-.3l-.183.061-.143.06V96.4a1.507,1.507,0,0,1,.59.224v-.083a.748.748,0,0,1,.513.416Zm1.073.805c0-.041.021-.081.021-.143l.3.327a.36.36,0,0,1-.061.325.609.609,0,0,0-.141-.1.38.38,0,0,0-.164-.041l-.019-.264a.292.292,0,0,0,.06-.1Zm-24.727-11.1s3.03,1.546,3.4,1.851c.386.3.183.509.183.509a.845.845,0,0,1-.488.284c-.347.061-.243.346-.243.346l-.041,7.219a2.347,2.347,0,0,0,2.766.651.579.579,0,0,0,.448-.61s.1-6.791.061-7.016a.261.261,0,0,0-.243-.243s-1.261-.794-1.464-.935c-.224-.142.02-.366.02-.366s2.135-1.484,2.441-1.769a.456.456,0,0,1,.549-.1s3.518,1.973,3.924,2.278.2.406.2.406l-1,1a.328.328,0,0,0-.1.386l-.041,6.67c-.264,1.708-2.949,1.953-2.949,1.953a7.092,7.092,0,0,1-4.738-1.342,3.456,3.456,0,0,0-2.766-.245c-1.891.651-2.034,1.872-2.034,1.872-.061.875.915,1.3.915,1.3a4.16,4.16,0,0,0,2.949.284c1.484-.508,3.782-1.281,3.782-1.281a6.834,6.834,0,0,1,2.582-.062,3.353,3.353,0,0,1,1.81.9,2.811,2.811,0,0,1,.773,1.951c.061,2.4-2.888,3.214-2.888,3.214-1.321.264-1.687-.041-1.687-.041-.936-.2.061-.3.061-.3s-1.709.1.142.019c1.851-.06,2.054-.954,2.054-.954.671-1.2-.366-1.4-.366-1.4a4.8,4.8,0,0,0-2.969.956,7.569,7.569,0,0,1-6.08.264c-2.684-1.037-2.339-3.03-2.339-3.03a4.337,4.337,0,0,1,1.688-3.6l-.1-7.992a.481.481,0,0,0-.285-.264,5.516,5.516,0,0,1-1.3-.691.217.217,0,0,1,.1-.346l2.583-1.709c.3-.428.69,0,.69,0ZM8.666,85.438c-.386-.264.041-.406.041-.406l3.884-2.847H22.86c2.216.2,2.034,3.05,2.034,3.05l-.041,10.492a8.383,8.383,0,0,0-5.328,3.743c-3.356-.956-9.11-.1-9.11-.1-.509.041-.163-.346-.163-.346a6.873,6.873,0,0,1,5.816-3.4c.247,0,.489,0,.724.017l.02-10.1-8.145-.106Zm5.124.569c.752-.346.61.163.61.163v5.836a5.08,5.08,0,0,1-1.993,3.8,9.087,9.087,0,0,1-2.745,1.667c-.752.284-.3-.448-.3-.448a3.6,3.6,0,0,0,.711-1.81V88.2a.412.412,0,0,1,.081-.285l3.64-1.911Zm3.345,9.664a10.13,10.13,0,0,1,3.082.809l-.027-4.512-.027.021a1.792,1.792,0,0,0-3.021.069Zm3.052-4.16-.011-1.892a1.853,1.853,0,0,1-3.03-.22l0,2.142A1.98,1.98,0,0,1,20.187,91.511Zm-.014-2.386-.018-3.159c.142-.529-.589-.386-.589-.386l-2.411-.032-.006,3.24c1.364,2.26,2.885.507,3.024.337Zm28.065-4.948s4.474-1.444,5.043-1.586c.589-.142.549.142.549.142s-.121,12.729-.02,13.177.3.327.3.327,1.037.732,1.261.833a.244.244,0,0,1,.122.346l-2.521,1.953s-4.108-1.81-4.433-2.013c-.406-.286-.142-.448-.142-.448l.732-.732s.121-10.412-.081-10.961a1.51,1.51,0,0,0-.854-.773c-.143-.224.04-.265.04-.265Zm-5.022,2.156a.474.474,0,0,0,.508.285A4.468,4.468,0,0,0,46,84.421c.406-1.525-.549-1.931-.549-1.931a1.439,1.439,0,0,0-1.484-.1,2.693,2.693,0,0,0-1.241,1.546,3.479,3.479,0,0,0,.489,2.4Zm-.732.691a28.46,28.46,0,0,0-2.847,1.932c-.2.3-.04.448-.04.448s1.139.711,1.444.834c.325.1.2.264.2.264l.081,5.287a2.025,2.025,0,0,1,0,.508s-.448.366-.691.57a.328.328,0,0,0-.062.489l4.088,2.054s2.765-1.993,3.009-2.094,0-.3,0-.3-1.2-.691-1.4-.794a.239.239,0,0,1-.121-.305s-.163-5.227-.041-5.674c.1-.427.244-.285.244-.285a2.992,2.992,0,0,0,.691-.305c.3-.2.021-.386.021-.386s-3.8-1.992-4.087-2.236A.327.327,0,0,0,42.484,87.024ZM25.636,95.829c-.01-.041.315,3.071,4.3,3.579l2.644-2.134a.206.206,0,0,1,.346-.042L37.4,99.409l2.725-2.134a.463.463,0,0,0-.081-.489l-1.891-1.262V90.338s-.02-.243.142-.284l.732-.589s.122-.2-.121-.468c-.224-.284-4.677-2.481-4.677-2.481s-.163-.244-.57.041c0,0-4.86,1.952-6.771,4.453C26.886,91.01,25.361,91.986,25.636,95.829Zm3.813-1.667a4.524,4.524,0,0,1-.366-3.01,2.754,2.754,0,0,1,1.789-2.236l2.339,1.525-.041,6.019s-.305.509-1.057.164a6.593,6.593,0,0,1-2.664-2.461Zm112.068-6.976a25.382,25.382,0,0,0-2.847,1.932c-.2.3-.041.447-.041.447a14.813,14.813,0,0,0,1.444.814c.325.1.2.284.2.284l.081,5.287a2.025,2.025,0,0,1,0,.508s-.448.346-.691.55a.325.325,0,0,0-.06.487l4.087,2.074s2.766-1.993,3.009-2.115c.243-.1,0-.305,0-.305s-1.18-.691-1.4-.792a.239.239,0,0,1-.123-.305s-.162-5.227-.041-5.674c.1-.406.245-.284.245-.284a3.052,3.052,0,0,0,.691-.305c.3-.2.019-.366.019-.366s-3.8-1.993-4.087-2.237A.332.332,0,0,0,141.516,87.186Zm-40.427-1.729c-.63-.346-.182-.509-.182-.509l3.171-2.034c.162-.142.305.061.305.061l2.888,1.688s3.9-2.074,4.169-2.236a.253.253,0,0,1,.305.041l3.3,1.83,3.314-2.074c.365-.3.467-.1.467-.1l3.884,2.278c.325.2.182.264.182.264V95.2a2.354,2.354,0,0,0,1.242,1.81c.3.244.162.427.162.427l-2.99,2.134a3.9,3.9,0,0,1-2.826-2.969V86.535a.526.526,0,0,0-.305-.427l-2-1.017.015,4.474h2.144L116.2,92.641l.013,3.7,1.492,1.01c.2.244-.121.284-.121.284l-3.092,1.931L109.9,97.13c-.427-.286-.1-.448-.1-.448l1-.63V92.818H108.6l.008,4.151.737.466a.248.248,0,0,1-.041.406l-3.071,1.729-4.006-2.115c-.346-.224.019-.406.019-.406l1.139-.651V87.085l-2.2-1.586-.1-.042Zm14.809-.492c-.607-.189-.513.188-.513.188l.041,4.087v.326h.489l-.017-4.6Zm.027,7.854h-.5v2.99c.019.081.264.182.264.182l.245.167-.011-3.339Zm-7.324-.578,1.8-2.675h.386v-3.03a.942.942,0,0,0-.284-.325l-1.916-1,.012,7.027Zm-.287-7.092c-.562.012-.594.391-.594.391L107.678,96.4c0,.06.184.1.184.1l.472.3-.019-11.65Zm16.358,10.681c-.01-.041.315,3.071,4.3,3.579l2.643-2.134a.206.206,0,0,1,.346-.042l4.474,2.177,2.725-2.134a.465.465,0,0,0-.081-.489l-1.891-1.262V90.338s-.019-.243.143-.284l.732-.589s.121-.2-.121-.468c-.224-.284-4.678-2.481-4.678-2.481s-.162-.243-.57.041c0,0-4.86,1.952-6.771,4.453,0,0-1.525.976-1.251,4.819Zm3.813-1.667a4.515,4.515,0,0,1-.365-3.01,2.75,2.75,0,0,1,1.788-2.236l2.339,1.525-.041,6.019s-.3.509-1.058.164A6.593,6.593,0,0,1,128.485,94.162Zm18.786-9.985s4.452-1.444,5.043-1.586c.568-.142.549.142.549.142s-.121,12.872-.021,13.32.305.346.305.346,1.037.732,1.262.833a.244.244,0,0,1,.121.346l-2.521,1.953s-4.108-1.81-4.433-2.034c-.407-.264-.143-.446-.143-.446l.732-.712s.121-10.594-.081-11.144a1.437,1.437,0,0,0-.853-.752C147.088,84.2,147.271,84.177,147.271,84.177ZM142.248,86.5a.474.474,0,0,0,.508.284,4.549,4.549,0,0,0,2.279-2.216c.406-1.505-.55-1.911-.55-1.911a1.386,1.386,0,0,0-1.483-.1,2.686,2.686,0,0,0-1.24,1.546,3.476,3.476,0,0,0,.487,2.4Z" transform="translate(39.768 -82.056)" fill-rule="evenodd"/>
    <path id="Path_11624" data-name="Path 11624" d="M93.847,90.085l.285-.142v.2l.1-.1.121.284-.162.021.1.1c.224.163.081.305.081.305l-.1.081c-.326.121-.224-.386-.224-.386l-.1.1-.121-.305h.163l-.143-.163Z" transform="translate(25.354 -83.389)" fill="#fff" fill-rule="evenodd"/>
    <path id="Path_11625" data-name="Path 11625" d="M92.02,91.481a.256.256,0,0,1,.264.2c.02-.346.284-.041.284-.041a.507.507,0,0,0-.224.142c0,.2.305.2.305.2.264-.143.224-.3.224-.3.041-.224-.224-.1-.224-.1l-.1-.224.163-.02v-.081l-.142-.081.448-.224-.061.183.041.041.1-.122.081.326c-.2-.041-.122.142-.122.142.116.125.208.136.275.11a.283.283,0,0,0,.131-.13c.122-.142-.02-.2-.02-.2-.162.061-.183.122-.183.122-.081-.427.142-.347.142-.347a.4.4,0,0,1,0-.3.339.339,0,0,1,.183.243c.244-.264.284.02.284.02-.325.062-.183.244-.183.244.076.121.136.14.184.11.1-.067.141-.376.141-.376a.836.836,0,0,0-.651-.285l-.02.165-.244.041-.041-.122-.061-.02v-.1a1.185,1.185,0,0,1,1.119.264l.02.814a5.965,5.965,0,0,0-1.952.834l-.427-.732a1.636,1.636,0,0,1,.691-.915l.081.081-.1.122.041.142-.243.2-.2-.1a.716.716,0,0,0-.142.468l.142.3c.285.122.184-.224.184-.224-.081-.1-.184.121-.184.121-.183-.346.062-.326.062-.326a.3.3,0,0,1-.06-.261Zm-6.609,7.443a3.608,3.608,0,0,0-.122,1.586h-.163V99.391c-.468-.1-.264-.284-.264-.284A.614.614,0,0,1,85.411,98.924Zm.894,2.054a.706.706,0,0,1,.081.386.188.188,0,0,0-.2-.143C86.1,100.978,86.306,100.978,86.306,100.978Zm.386,0a.253.253,0,0,0,.1-.2c.224.1.081.427.081.427A.43.43,0,0,0,86.692,100.978Zm-.264-.792a.343.343,0,0,1,.407.243c.142.143.142-.061.142-.061-.184-.57-.549-.182-.549-.182Zm.447.386a.105.105,0,0,0,.142-.041.341.341,0,0,1-.021.325c-.02-.162-.121-.162-.121-.162v-.122Z" transform="translate(26.875 -83.504)" fill="#fff" fill-rule="evenodd"/>
    <path id="Path_11626" data-name="Path 11626" d="M87.428,101.671c-.2-.751-.732-.244-.732-.244a1.15,1.15,0,0,1,.062-.834,3.724,3.724,0,0,0,.711,0c.1,0,.061.061.061.061.081.365-.142.365-.142.365.163.143.2.081.2.081.326.041.61-.608.61-.608a1.286,1.286,0,0,1,.671.243c.2.184,0,.243,0,.243a2.647,2.647,0,0,0-.794.041c-.061.041-.041.164-.041.164a3.456,3.456,0,0,1,.062.528A3.094,3.094,0,0,0,87.428,101.671Zm1.342-2.237c.081-.305.691-.63.691-.63a6.377,6.377,0,0,1,.752-.224,1.32,1.32,0,0,1,.9.589l-.2.162.081.061a.273.273,0,0,1,.386.021,6.709,6.709,0,0,0,.63.264c-.2.3-.834.182-.834.182.02.327-.346.549-.346.549A4.245,4.245,0,0,0,92,100.8c.346-.489.711-.143.711-.143a2.01,2.01,0,0,1,.184.162c-.2.1-.143.366-.143.366a12.8,12.8,0,0,1-1.545.081,6.1,6.1,0,0,1-1.688-.448.094.094,0,0,1-.04-.143l-.021-.121c-.02-.143.1-.121.1-.121a1.449,1.449,0,0,0,.752-.508c.1-.244-.122-.2-.122-.2A6.381,6.381,0,0,1,88.77,99.433Z" transform="translate(26.567 -84.848)" fill="#fff" fill-rule="evenodd"/>
    <path id="Path_11627" data-name="Path 11627" d="M93.558,99.6a.454.454,0,0,1,.63-.121.789.789,0,0,1,.163.243.208.208,0,0,0-.2.143C94.005,99.582,93.558,99.6,93.558,99.6Zm.488.711a.187.187,0,0,1,.1-.223.793.793,0,0,1,.162.2A1.611,1.611,0,0,1,94.046,100.314Zm.142-.344a.393.393,0,0,1,.2.3l.142-.019a.568.568,0,0,0-.122-.467A.257.257,0,0,0,94.188,99.97Zm.2-.55c.1.061.081.264.081.264a.554.554,0,0,1,.183.305.487.487,0,0,1,.264-.041c-.081-.569-.529-.529-.529-.529Zm.305.651.02.162.224-.019a.283.283,0,0,0-.041-.2.243.243,0,0,0-.2.06Zm1.424-4.392a1.53,1.53,0,0,1,0,.448c-.061.121-.224.365-.224.365l.284.286.692.019a2.607,2.607,0,0,1,.487-.651,3.024,3.024,0,0,1,.935-1.729v-.1a.25.25,0,0,1-.182-.2.391.391,0,0,1,.162-.325c.081.081.081-.062.081-.062a.16.16,0,0,0-.1-.041l-.041.081-.182.284a7.693,7.693,0,0,1-.591,1.037c-.162.163-.691.752-.691.752l-.081-.041a1.644,1.644,0,0,1-.548-.121Zm1.18,3.436.141-.243.1.021a1.017,1.017,0,0,0,.224.487l-.021.407a.231.231,0,0,0-.2-.143A.456.456,0,0,0,97.3,99.115Zm-.917,1.891h-.142l-.346.386c-.021.224-.3.327-.3.327.549-.041.631-.243.631-.243a1.346,1.346,0,0,1-.122.3c.345-.182.264-.263.264-.263.062-.2.041-.224.041-.224a.286.286,0,0,1,.04-.121C96.487,101.006,96.384,101.006,96.384,101.006Zm.244.164a1.082,1.082,0,0,0,.346.019c.286.264-.019.651-.019.651-.081-.184-.041-.264-.041-.264a.285.285,0,0,0-.041-.224.6.6,0,0,0-.042.448.547.547,0,0,1-.3-.346.492.492,0,0,1,.1-.283Zm2.277-2.359.184-.141a.474.474,0,0,1-.06.406A.8.8,0,0,0,98.905,98.81Zm-.284.264a1.449,1.449,0,0,0,.143-.182.6.6,0,0,1,.06.427c-.1-.062-.06-.021-.06-.021Z" transform="translate(25.399 -84.021)" fill="#fff" fill-rule="evenodd"/>
    <path id="Path_11628" data-name="Path 11628" d="M99.482,97.451v.691c.591-.062.529.386.529.386.243.081.081.508.081.508a.771.771,0,0,1-.019.529,2.076,2.076,0,0,0,1.219.976l-.041-3.111Zm-.121-1.221.021.407a3.052,3.052,0,0,0-.143,1.626.218.218,0,0,0-.162.121,3.015,3.015,0,0,1,.284-2.155Zm1.3,4.109-.021,1.526.651.528.55-.487v-1.383l-.224.019v1.18l-.326.365-.366-.264v-1.3Z" transform="translate(24.476 -84.451)" fill="#fff" fill-rule="evenodd"/>
    <path id="Path_11629" data-name="Path 11629" d="M101.127,99.784c.06,0,.1-.041.1-.121s-.042-.141-.1-.141c-.041,0-.081.06-.081.141S101.087,99.784,101.127,99.784Zm.184.327c.041,0,.081-.061.081-.121,0-.081-.041-.143-.081-.143-.062,0-.1.062-.1.143A.114.114,0,0,0,101.31,100.111Zm-.164.243c.041,0,.083-.06.083-.121s-.042-.121-.083-.121a.123.123,0,0,0,0,.243Zm-.162-.265c.061,0,.1-.06.1-.141a.1.1,0,1,0-.2,0C100.884,100.03,100.924,100.089,100.984,100.089Zm-1.749-1.646c-.021-.164.06-.184.06-.184a.835.835,0,0,0,.245.325v-.019a.929.929,0,0,0,.243.284.118.118,0,0,1-.121.143A1.971,1.971,0,0,1,99.236,98.444Zm.406.121a.287.287,0,0,0,.081-.224c.061.1.1.1.1.1l.062-.041.121.182a.355.355,0,0,0-.224.184A.3.3,0,0,1,99.641,98.565Zm-.751.182.141.2a.284.284,0,0,1,.041-.143l.164-.162-.081-.143-.164.184a.954.954,0,0,0-.1.06Zm-.224-.365.121.162c.021-.081.061-.1.061-.1l.2-.184-.121-.081Zm-.509-2.258v.224l.06-.02.306-.021-.366.426.243.163h.346v-.163h-.365l.365-.406v-.184l-.062.02h-.468l-.06-.041Zm.041-.508-.021.2.04-.041.468.062.061.081.041-.244h-.081l-.426-.061-.081-.061Zm.365-1.1.143.1-.1.041c-.162.142-.06.224-.06.224.1.061.121-.061.121-.061.162-.224.284-.1.284-.1a.268.268,0,0,1,.062.367l-.062.081-.019.061-.162-.061.081-.061a.169.169,0,0,0,.06-.162c-.041-.184-.141,0-.141,0-.245.243-.367-.021-.367-.021-.1-.184.161-.407.161-.407Zm.591-.671v.163a.165.165,0,0,0-.224.183c.06.284.264.244.264.244v.122a.362.362,0,0,1-.386-.224.369.369,0,0,1,.347-.487Zm.182,2.236h1.769v-2.6l-1.85-.021ZM99.2,90.9a3.6,3.6,0,0,1,1.646-.814v.406A4.044,4.044,0,0,0,99.2,90.9Zm2.2-.793v.366a2.671,2.671,0,0,1,1.851.509A2.461,2.461,0,0,0,101.392,90.106Zm-.448-.021v.407h.346v-.407Zm-2.258,1.078c-.121-.569.305-.346.305-.346Zm.448-.447c-.041-.589.346-.264.346-.264Zm.549-.386c-.019-.589.366-.244.366-.244Zm.529-.284c.081-.773.407-.163.407-.163Zm.63-.387h.55c.081.122-.081.305-.081.305a.561.561,0,0,1-.366-.02C100.659,89.882,100.841,89.658,100.841,89.658Zm.021-.915h.529l-.162.244.1.1.121-.164.021.509-.264-.2.122.3-.468-.021.2-.244-.06-.061-.2.183-.02-.488.2.184.062-.062-.184-.285Zm2.277,1.81.3.285C103.547,90.207,103.139,90.553,103.139,90.553Zm-.162-.122-.366-.2C103.037,89.8,102.977,90.431,102.977,90.431Zm-.894-.508.365.163C102.448,89.455,102.083,89.923,102.083,89.923Zm-.143-.021c-.041-.285-.2-.285-.2-.285-.184-.041-.2.264-.2.264Zm-2.7,3.111a10.065,10.065,0,0,1,3.7,0c.244.041.143.224.143.224a.376.376,0,0,1-.264.02,11.266,11.266,0,0,0-3.519.061c-.3.02-.243-.122-.243-.122.061-.224.183-.183.183-.183Zm1.972.468v2.624H102.9l.061-2.624Zm1.688,2.7h-1.688l.021,3.111a1.569,1.569,0,0,0,1.2-.732c.041-.286.467-1.464.467-1.464v-.915h0Zm-1.058,3.031v.305a3.2,3.2,0,0,0,.814.365.155.155,0,0,0,.1-.224.516.516,0,0,0-.2-.1,1.422,1.422,0,0,1-.713-.345Zm.632-.591.1.1-.366.529-.061-.143.327-.489Zm.181.164-.344.487c.528.346.833-.467.833-.467A.7.7,0,0,1,102.651,98.79ZM103,94.8v.489a3.138,3.138,0,0,1,.223,1.016l.164-.284A2.4,2.4,0,0,0,103,94.8Zm-1.18,5.632v.224a1.833,1.833,0,0,0,.589.243c.1-.041,0-.182,0-.182A1.288,1.288,0,0,1,101.818,100.435Z" transform="translate(24.622 -83.186)" fill="#fff" fill-rule="evenodd"/>
    <path id="Path_11630" data-name="Path 11630" d="M103.369,102.339l.1-.365c.346-.021.224-.407.224-.407.284-.081.608-.61.608-.61l.083.2.121.243c.06.121.1.184.081.184l-.184.162v-.1l-.346.305.121-.671-.325.751a1.292,1.292,0,0,1-.488.3Zm.061.184c.284.427,1.221.427,1.221.427a.715.715,0,0,0-.367-.346.788.788,0,0,1,.773.2.757.757,0,0,0,.467.2,1.176,1.176,0,0,0-.2-.224.35.35,0,0,0,.243.019,1.724,1.724,0,0,0-.549-.467c.427-.224.794.286.794.286a.871.871,0,0,0,.346.325l-.123-.407c.123.367.61.469.61.469.061-.061,0-.184,0-.184-.141,0-.264-.2-.264-.2l-.019-.407c-.448-.062-.448-.3-.448-.3a.473.473,0,0,1,.386-.406l-.041-.469c.264-.243.773-.1.773-.1-.041-.286-.264-.2-.264-.2,0-.223-.263-.243-.263-.243v.062l-.734.57c.1.568-.162.751-.162.751a.656.656,0,0,1-.873-.121l-.286.184a.7.7,0,0,1,.448.264l-.041.041a1.155,1.155,0,0,0-.448-.224l-.243.1-.121.1-.612.3Z" transform="translate(23.742 -85.171)" fill="#fff" fill-rule="evenodd"/>
    <path id="Path_11631" data-name="Path 11631" d="M104.361,98.7a2.7,2.7,0,0,0,.325-.855l.083.1-.121.386.081.081.141-.325.1.121-.162.264.121.1.162-.223.1.081-.224.224.1.141.184-.284.143.1-.243.243.1.081.245-.2.081.06-.591.489a1.161,1.161,0,0,0-.631-.589Zm2.094.487c.509-.121.083-.386.083-.386-.448-.162-.509-.081-.509-.081.164.062.143.162.143.162C106.4,98.905,106.455,99.189,106.455,99.189Zm.021.489.184-.448a.764.764,0,0,1-.467.041.671.671,0,0,0-.429.041c-.182.1-.039.123-.039.123a1.387,1.387,0,0,0,.751.244Zm.589-.062.1.124.489-.164-.286.2.529.041-.243-.367-.591.162ZM105.6,90.629a.808.808,0,0,0-.243-.529c-.224-.142-.243-.02-.243-.02a.261.261,0,0,0,.141.243l.346.3Zm.467.284a.826.826,0,0,0-.06-.244,2.326,2.326,0,0,0-.143-.224l-.264-.183a1.225,1.225,0,0,1,.1.366l.365.284Zm.021-.325a.634.634,0,0,1,.1.366l.325.326a.9.9,0,0,0-.162-.529l-.264-.2v.041Zm-.629,2.257a.3.3,0,0,1-.245.041c0,.2.367.2.367.2a.415.415,0,0,0,.264-.142v-.081a.721.721,0,0,1-.264.1Zm.446,1.4.041-.142c.386-.1.1-.386.1-.386.143-.061.184-.02.184-.02.182-.1.243.121.243.121.143-.121.244-.041.244-.041-.305.285.061.386.061.386a.236.236,0,0,0,.224-.183.435.435,0,0,1-.1-.142.5.5,0,0,1,.162.1.1.1,0,0,1,.1-.122.267.267,0,0,1,.041.183c.062-.061.184,0,.184,0-.184.2.06.386.06.386.286.162.245-.305.245-.305a.164.164,0,0,1,.182.183l.123-.1a.713.713,0,0,1,.041.2.152.152,0,0,1,.2-.02c-.327.2-.1.386-.1.386a.149.149,0,0,0,.184.02l-.019-.142.263.041-.263.305a4.57,4.57,0,0,0-2.4-.712Zm.632-3.4.263.163a.723.723,0,0,1-.162.325A1.108,1.108,0,0,0,106.538,90.852Zm1.259.163c.55-.142.916.589.916.589l-.406-.162A3.883,3.883,0,0,0,107.8,91.015Zm.55.549a1.362,1.362,0,0,1,.182.427,3.23,3.23,0,0,0,.55.407,1.045,1.045,0,0,0-.732-.834Zm.263.671a.822.822,0,0,1,.489,1.016.623.623,0,0,0-.284-.346,1.142,1.142,0,0,1-.2-.671Zm.123.793a1.852,1.852,0,0,1-.041.447,2.255,2.255,0,0,1,.182.488,2.245,2.245,0,0,0,.184-.569A.726.726,0,0,0,108.734,93.028Zm-.081.651a2.807,2.807,0,0,1-.286.63l.1.122.121.081A.694.694,0,0,0,108.652,93.679Zm4.189,6.609-.182-.691a.26.26,0,0,0-.367-.081.459.459,0,0,1-.407.06c-.243-.041-.041-.2-.041-.2a3.23,3.23,0,0,1,.651-.305,2.066,2.066,0,0,0,.691.081c.386-.06.305.264.305.264a4.329,4.329,0,0,1-.081.834,5.617,5.617,0,0,0-.569.041Zm.651.143.1.1-.305.549-.143-.081a1.55,1.55,0,0,0,.346-.568Zm.183.141-.243.529a.963.963,0,0,0,.773-.224l-.062-.325a.719.719,0,0,1-.468.02Zm.916-.224a2.657,2.657,0,0,1,.305.1,1.62,1.62,0,0,0-.1-.814c.346.121.346-.021.346-.021.1-.284-.243-.365-.243-.365a1.949,1.949,0,0,0-.794-.143.665.665,0,0,1,.021.264.89.89,0,0,1,.019.2A.675.675,0,0,1,114.59,100.348Zm-11.388-6.3v.162l.2-.142-.2.468-.02.285.325-.692-.1-.183Zm.062.874h.081l.426-.326.041-.081.1.224h-.06l-.386.305.06.163.1.1-.143.061-.223-.447Zm.366.9.061.243.1-.062.164-.06.141.1h.2l-.243-.163.184-.2-.081-.243-.041.1-.183.245-.243.061Zm.326,1.444c-.1.021-.062.081-.062.081.2.264.325.041.325.041a.314.314,0,0,0,.041-.2l-.06-.019c0,.243-.121.182-.121.182A.155.155,0,0,1,103.955,97.258Zm-.224.386-.041.265.081.143.041-.245.2.1-.1.2-.06.021.143.081.141-.327.062-.081h-.062l-.406-.2Zm-4.007,2.237a.17.17,0,0,1-.184.143l-.224-.264c-.143-.224-.019-.284-.019-.284l.284-.407a.374.374,0,0,1,.143.162l-.2.264c-.06.143.041.184.041.184Z" transform="translate(24.438 -83.404)" fill="#fff" fill-rule="evenodd"/>
    <path id="Path_11632" data-name="Path 11632" d="M98.175,99.123c.081.346-.264.264-.264.264-.121.243.062.243.062.243a.4.4,0,0,0,.386-.264A.274.274,0,0,0,98.175,99.123Zm6.019-5.632-.243-.224a.429.429,0,0,0,.162-.366s.143-.02-.141-.02l-.1.061s-.1-.041-.121-.1l-.041-.243.184-.224.162.02a5.514,5.514,0,0,1,.69-.663l.083.094c-.1.224.019.284.019.284.162.1.224-.1.224-.1.162.081.1-.02.1-.02a.9.9,0,0,1-.38-.3c.209-.178.38-.313.38-.313a.784.784,0,0,1,.264-.326,1.53,1.53,0,0,1-.184-.447.617.617,0,0,1,.589.529,2.658,2.658,0,0,1,.591,3.193,4.786,4.786,0,0,0-1.526-.631,1.3,1.3,0,0,1,.487-.468c.672.021.57-.793.57-.793-.141-.285-.1.142-.1.142-.286.935-1.018.1-1.018.1-.081-.061,0,.142,0,.142.041.1.081.081.081.081l.061.061-.508.2c-.081.122-.224.326-.224.326h-.062Zm-9.455-1.606a4.875,4.875,0,0,0-1.891.834c-.122.081-.142.061-.142.061-.2.366.224.529.224.529a1.49,1.49,0,0,0,.163.976,1.878,1.878,0,0,1,.224.794.582.582,0,0,0,.183-.326,1.085,1.085,0,0,0,.691.834.493.493,0,0,1,.326.244,1.189,1.189,0,0,0,.041-.406.7.7,0,0,0,.305.406,2.992,2.992,0,0,1,.122-.467,1.088,1.088,0,0,0,.041-.772.447.447,0,0,0,.264.183,1.057,1.057,0,0,1,0-.672.969.969,0,0,0-.081-.61l-.039-.147a1.861,1.861,0,0,0-.043.656,1.331,1.331,0,0,1-.2-.061,1.725,1.725,0,0,1-.183.854,1.051,1.051,0,0,0-.163.386,1.828,1.828,0,0,0-.752-.406,2.53,2.53,0,0,1-.243-.366c-.081.142-.163.1-.163.1a1.8,1.8,0,0,0-.244-.448,1.072,1.072,0,0,1-.142-.488,4.264,4.264,0,0,0,.244.427c.142.082.142.366.142.366a.288.288,0,0,0,.142-.2,1.16,1.16,0,0,0,.671.549,1.367,1.367,0,0,1,.305.224.822.822,0,0,1,.142-.467,1.041,1.041,0,0,0,.1-.814.393.393,0,0,0,.285.224,1.122,1.122,0,0,1-.02-.346,2.575,2.575,0,0,0,.055-.459l-.055-.213a1.6,1.6,0,0,1-.142-.447.361.361,0,0,0-.165-.529Zm-.834,1.809a.919.919,0,0,0,.386.305.831.831,0,0,0,.081-.467.391.391,0,0,1-.264-.041c-.061.224-.2.2-.2.2Zm-.794-.894c.285.081.386-.041.386-.041a.238.238,0,0,1,.346.2.511.511,0,0,0,.062.243.454.454,0,0,0,.3-.081c.081-.1-.041-.2-.041-.2a1.428,1.428,0,0,0-.081-.224c0-.326.224-.305.224-.305a.29.29,0,0,0,.244-.122.364.364,0,0,1-.224.386.208.208,0,0,0-.1.224c.142.244.02.264.02.264a.229.229,0,0,1-.158.135.214.214,0,0,0,.219.15.441.441,0,0,0,.224-.366c.1.284,0,.366,0,.366a.179.179,0,0,1-.061.264.7.7,0,0,1-.183.509c-.691-.406-.711-.874-.711-.874.224.386.447.2.447.2.044-.045.035-.175.027-.243a.575.575,0,0,1-.189,0,.4.4,0,0,1-.1-.284c-.1-.224-.163-.041-.163-.041a.306.306,0,0,1-.488-.165Zm-4.7,6.994a8.721,8.721,0,0,0,2.664.346,13.2,13.2,0,0,0,3.111-.263,2.163,2.163,0,0,0,.651-.184c.081-.021.04.143.04.143a2.274,2.274,0,0,0-.02.935c0,.325-.346.305-.346.305a26.582,26.582,0,0,1-5.307.2c-.691-.121-.712-.489-.712-.489a1.1,1.1,0,0,0-.061-.894c-.082-.06-.021-.1-.021-.1Zm.651,1.2.061-.061v-.589l-.041-.1c.447-.019.589.162.589.162a.382.382,0,0,1-.224.632.663.663,0,0,1-.386-.041Zm1.016-.671.3.021c-.081.041-.061.162-.061.162l-.02.549.081.121-.326-.019c.081-.061.081-.1.081-.1v-.589A.225.225,0,0,0,90.082,100.323Zm-.752.021-.02.57a.23.23,0,0,0,.264-.164.342.342,0,0,0-.041-.244A.252.252,0,0,0,89.33,100.344Zm1.383.041H91.3l.02.143a.454.454,0,0,0-.183-.042h-.122v.224h.062l.142-.041-.02.184-.1-.021h-.081v.245h.142a.223.223,0,0,0,.142-.061v.162l-.447-.019h-.122c-.02-.021,0-.021,0-.021a.142.142,0,0,0,.081-.041v-.63c-.02-.042-.1-.082-.1-.082Zm.915-.021.3.021a.338.338,0,0,0-.041.1v.407c.02.162.142.143.142.143.142-.021.122-.2.122-.2v-.406l-.041-.041h.224a.1.1,0,0,0-.02.06v.427a.328.328,0,0,1-.3.286.309.309,0,0,1-.305-.305v-.407a.279.279,0,0,0-.081-.081Zm1.484-.081.488-.041.061.143a.523.523,0,0,0-.142-.021H93.4v.2h.121a.265.265,0,0,1,.061-.041l.02.182a.126.126,0,0,0-.081-.041H93.4v.224h.142c.041,0,.1-.061.1-.061v.143l-.468.062.041-.041-.02-.651c0-.042-.082-.062-.082-.062Zm.875-.081.02.162c.041-.081.183-.081.183-.081l.02.589-.041.042.243-.042-.041-.019-.02-.589a.18.18,0,0,1,.183.019l-.02-.162-.021.019-.467.042h-.041v.02h0Zm1.178-.651a.481.481,0,0,1-.041-.446.451.451,0,0,1,.468-.327c.2.121.184-.041.184-.041a.319.319,0,0,1,.446-.121.462.462,0,0,0,.264.162c.143.184.061.284.061.284a.249.249,0,0,0,.041.184.224.224,0,0,1,.162.245,1.433,1.433,0,0,1-.1.589.237.237,0,0,1-.263.019c-.1.021-.061.061-.061.061.1.162,0,.243,0,.243a.5.5,0,0,1-.386.164c-.325,0-.346-.164-.346-.164-.041-.141-.224-.141-.224-.141a.412.412,0,0,1-.285-.346.2.2,0,0,1,.081-.2c.1-.06,0-.162,0-.162Zm.549.184a.376.376,0,0,1-.1.427c-.164.021-.184-.1-.184-.1a.135.135,0,0,0-.1-.141c-.061-.245.062-.245.062-.245a.331.331,0,0,1,.325.061Zm.386-.122c.041.2.327.365.327.365.141,0,.081-.2.081-.2-.081-.1-.041-.162-.041-.162.2-.041.06-.224.06-.224-.386-.1-.427.224-.427.224Zm-.284-.326c0-.386-.245-.365-.245-.365a.144.144,0,0,0-.121.141c.041.2-.041.2-.041.2-.183.041-.061.243-.061.243.061.081.1.062.1.062a.619.619,0,0,0,.326-.1c.1-.02.041-.184.041-.184Zm.265-.427a.157.157,0,0,0,.162.1c.224,0,.081.224.081.224a.458.458,0,0,1-.284.182c-.224-.263-.2-.406-.2-.406C95.837,98.635,96.082,98.859,96.082,98.859Zm-.143.977a.339.339,0,0,1,.284.365c-.081.143-.162.081-.162.081-.1-.1-.162-.019-.162-.019,0,.182-.143.06-.143.06-.082-.427.183-.487.183-.487Z" transform="translate(26.272 -83.501)" fill="#fff" fill-rule="evenodd"/>
    <path id="Path_11633" data-name="Path 11633" d="M97.347,100.715a.394.394,0,0,0,.305-.366.3.3,0,0,0,.07-.032.637.637,0,0,1,.276.318.9.9,0,0,1,.2.243c-.021-.264-.143-.327-.143-.327a.888.888,0,0,0-.218-.339A.9.9,0,0,0,98,99.718c.224-.081.427.2.427.2a.258.258,0,0,1-.162.021c.327.141.264.651.264.651a.289.289,0,0,1-.2-.061c.243.284,0,.834,0,.834a.526.526,0,0,1-.286-.386c.041.2-.041.263-.041.263-.2-.041-.284-.305-.284-.305-.021.245-.143.143-.143.143-.06-.041-.06-.184-.06-.184C97.409,100.878,97.347,100.715,97.347,100.715Zm2.542-.224a1.41,1.41,0,0,1-.245-.08,2.305,2.305,0,0,1-.344.649,6.43,6.43,0,0,0,.286-.675,2.02,2.02,0,0,1-.489-.322c-.021.305-.346.141-.346.141a.246.246,0,0,0,.141.388.56.56,0,0,0,.366-.164c.284-.06.081.164.081.164a.759.759,0,0,1-.325.141.218.218,0,0,0-.143.346c.162.224.325.143.325.143.143.019.143.121.143.121.1.243.264.1.264.1a.373.373,0,0,0,.081-.407c-.1-.264-.041-.365-.041-.365-.061-.366.1-.1.1-.1a1.045,1.045,0,0,1,.081.224c.06.141.081.041.081.041Zm-3.171-1.75.121-.223a.555.555,0,0,0-.264-.386.25.25,0,0,0,0,.182,1.167,1.167,0,0,0-.488-.3.722.722,0,0,0,0,.3.728.728,0,0,0-.57-.365.453.453,0,0,0,.081.264.921.921,0,0,0-.549-.1,1.109,1.109,0,0,0,.366.61l-.041.1c-.224-.164-.284-.041-.284-.041-.02.019,0,.06,0,.06a1.518,1.518,0,0,0,.569.386.273.273,0,0,0-.163.143c.163.325.651.3.651.3A1.15,1.15,0,0,1,96.16,99a3.453,3.453,0,0,1-.419-.3,2.284,2.284,0,0,0-.243-.243l-.285-.224a1.713,1.713,0,0,1,.386.2,4.4,4.4,0,0,0,.628.446.606.606,0,0,1,.49-.142Zm8.3,1.059a4,4,0,0,1,.039,1.18c2.279.873,6.182.344,6.182.344.651-.081.672-.182.672-.182.244-.021.2-.386.2-.386a3.045,3.045,0,0,1-.224-.916,16.816,16.816,0,0,1-3.517.386A7.587,7.587,0,0,1,105.015,99.8Zm.284.3.224.041.121.448.243-.346.2.019-.019.062v.651l.041.081-.284-.041.041-.062v-.346l-.264.346-.184-.427v.386l-.162-.081.019-.041.021-.591Zm1.078.305a.484.484,0,0,0,0,.691.4.4,0,0,0,.467,0,.485.485,0,0,0-.021-.691c-.3-.162-.446,0-.446,0Zm.224.02c-.346.164-.1.529-.1.529.081.184.2.041.2.041.164-.162.041-.427.041-.427-.041-.184-.141-.143-.141-.143Zm.528-.041h.164l.264.366-.021-.286-.021-.06.264.019-.041.061v.691l.021.06h-.143l-.284-.427v.286l.019.081-.2-.021.019-.1.021-.591Zm1.282.041h.284c.3,0,.367.407.367.407a.4.4,0,0,1-.429.427l-.223-.021.081-.06-.021-.691Zm.243.1v.651a.363.363,0,0,0,.2-.407C108.8,100.532,108.654,100.532,108.654,100.532Zm.548-.1.121-.019a.567.567,0,0,1,.367-.021.3.3,0,0,1-.021.427l.184.286a.135.135,0,0,1,.081.06.18.18,0,0,1-.162,0,.534.534,0,0,1-.224-.284h-.1v.305l.019.06h-.2l.019-.06-.019-.712-.062-.042Zm.245.366v-.327a.085.085,0,0,1,.141.021.208.208,0,0,1,0,.264c-.041.061-.141.042-.141.042Zm.894-.508c.386-.021.386.487.386.487a.42.42,0,0,1-.407.407c-.346-.041-.365-.467-.365-.467C110.016,100.248,110.342,100.289,110.342,100.289Zm0,.121c.2.019.184.325.184.325a.307.307,0,0,1-.184.346c-.1.021-.143-.121-.143-.121-.121-.386.041-.508.041-.508.022-.042.1-.042.1-.042Zm.508-.143.284-.019-.041.081.021.711.041.041-.243.021.019-.041-.019-.732-.061-.062Zm.489-.062.019.2.062-.062.1-.019v.651l-.021.06.2-.041-.019-.062v-.671h.141l-.019-.162-.041.019-.367.081h-.061Zm-8.316-.913a1.1,1.1,0,0,0,.024.146l.027-.015c.065-.18.029-.253.029-.253l.06-.042a.511.511,0,0,1-.021.268.423.423,0,0,1,.17-.017.931.931,0,0,0,.034-.291l-.293-.036A.349.349,0,0,0,103.022,99.292Zm.05.239a.95.95,0,0,0,.218.368c.094-.071.073-.346.061-.448a.386.386,0,0,0-.279.08Zm.263.414a1.085,1.085,0,0,0,.276.184.7.7,0,0,0,.046-.331,1.013,1.013,0,0,0-.288.055A.657.657,0,0,1,103.335,99.945Zm.342.211a.745.745,0,0,0,.1.031.592.592,0,0,0,.18,0l-.015-.185a.575.575,0,0,0-.234.085Zm.341.014a.305.305,0,0,0,.2-.239.36.36,0,0,0-.193-.017Zm.2-.32a.911.911,0,0,0-.216-.6.837.837,0,0,1,.034.366l.1-.037.019.062-.141.017a.682.682,0,0,1,0,.2.3.3,0,0,1,.209,0Zm-.268-.657a.944.944,0,0,0-.258-.167.427.427,0,0,1,.06.25A.418.418,0,0,1,103.954,99.192Zm-.376-.212a1.162,1.162,0,0,0-.291-.055.327.327,0,0,0-.193.08l.3.021Zm-.175.116a.179.179,0,1,0,.293.206.479.479,0,0,0-.06-.252Zm.37.278a.432.432,0,0,1-.012.279.312.312,0,0,1,.219-.036.568.568,0,0,0-.042-.312.243.243,0,0,0-.165.068Zm-.039.364a.554.554,0,0,1-.007.279.308.308,0,0,1,.225-.117.468.468,0,0,0,.029-.206A.756.756,0,0,0,103.733,99.738Zm-.031-.328a.445.445,0,0,0-.308.021,1.082,1.082,0,0,1,0,.337.506.506,0,0,1,.293-.055.554.554,0,0,0,.021-.3ZM98.67,93.251l-.346-1.1.182-.488.2.793-.184-.081a.4.4,0,0,0,.651.3c.224-.243.019-.325.019-.325-.263-.143-.3.02-.3.02-.182-.691.286-.427.286-.427-.021-.448.162-.488.162-.488.243.081.243.468.243.468.264-.427.429.02.429.02a.415.415,0,0,1-.021.183.256.256,0,0,0-.365.224c-.042.224.365.284.365.284a.715.715,0,0,0,.489-.671,1.143,1.143,0,0,0-.386.243V91.3a.949.949,0,0,0,.427.346,1.193,1.193,0,0,0-.286-.63l.855-.02a.894.894,0,0,0-.264.651.557.557,0,0,0,.365-.284l.021.793c-.184-.284-.366-.162-.366-.162a.493.493,0,0,0,.448.63.349.349,0,0,0,.386-.305c-.081-.366-.327-.163-.327-.163-.1-.61.346-.346.346-.346-.162-.406.121-.549.121-.549a.422.422,0,0,1,.184.549c.469-.243.386.346.386.346-.446-.2-.386.264-.386.264.2.488.61.121.61.121a.7.7,0,0,0,.1-.243l-.184.041.184-.63.162.326.121-.346.1.121-.591,1.484a11.231,11.231,0,0,0-3.84-.041Zm3.029-.284c-.1-.02-.2-.061-.182-.1,0-.061.081-.081.2-.061.1.02.2.061.184.1C101.9,92.967,101.82,92.987,101.7,92.967Zm-2.2.02c.1-.02.184-.061.184-.121,0-.041-.1-.061-.2-.041-.121,0-.2.061-.2.1s.1.081.222.061Zm1.119-.406.286.244-.286.183-.263-.183Zm3.824,3.192a1.922,1.922,0,0,1,.182-.609l-.237-.254-.081.146a.229.229,0,0,1-.057.376l-.019.086.212.254Zm-.12-.932-.593-.632c-.406-.59-.691-.305-.691-.305l-.284.1a1.086,1.086,0,0,1,.346.386c.244-.041.264.081.264.081l.63.762v-.01a.207.207,0,0,1,.184-.224.163.163,0,0,1,.068.015Z" transform="translate(25.147 -83.566)" fill="#fff" fill-rule="evenodd"/>
    <path id="Path_11634" data-name="Path 11634" d="M105.143,95.472c-.143-.162-.243-.284-.3-.224a5.59,5.59,0,0,1,.325.772,2.659,2.659,0,0,1,.164.976l.3.021.08.01-.027-.156a.215.215,0,0,1-.153-.219c0-.143.081-.245.184-.245a.056.056,0,0,1,.017,0l.037-.175c-.051-.06-.1-.125-.156-.191-.081-.1-.184-.2-.264-.306-.061-.1-.144-.182-.2-.263Zm.649,1.565.327.042a.677.677,0,0,1-.041-.469l-.216-.259-.024.111a.263.263,0,0,1,.078.191.23.23,0,0,1-.14.209l.016.175Z" transform="translate(23.493 -84.283)" fill="#fff" fill-rule="evenodd"/>
    <path id="Path_11635" data-name="Path 11635" d="M103.467,99.659c.143.2.57.143.57.143.061-.041.041-.284.041-.284a.463.463,0,0,1-.019-.224c.1.019.121.141.121.141a2.122,2.122,0,0,1-.061.245c.448-.286.061-.834.061-.834a1.469,1.469,0,0,1,.243-.711c.467-.407.712-.264.712-.264a4.549,4.549,0,0,1,1.078.224c.263.081,1.2.244,1.2.244a.323.323,0,0,1,.081-.162c.264-.184.446-1.058.446-1.058,0-.141.062-.081.062-.081a.47.47,0,0,1,.021.224,2.2,2.2,0,0,1-.2.854,2.8,2.8,0,0,0,1.323.224,2.139,2.139,0,0,0,1.056-.305,2.911,2.911,0,0,1,1.24-.184l-.019-.121c-.508-.224-.162-.489-.162-.489l-.2-.284a11.274,11.274,0,0,1-2.256-.935,3.79,3.79,0,0,0-2.236-.672,2.588,2.588,0,0,0-.529,1.79l.365.041a1.567,1.567,0,0,1,.448-1.18c.143-.061.041.1.041.1a1.479,1.479,0,0,0-.305,1.281,10.405,10.405,0,0,0-1.567-.162.814.814,0,0,0-.649.1,1.261,1.261,0,0,0-.346.529l-.264.916a2.8,2.8,0,0,0-.286.892Zm5.674-2.379a3.528,3.528,0,0,1-.346.9c.041.141.2-.081.2-.081a2.536,2.536,0,0,0,.243-.775C109.2,96.976,109.141,97.28,109.141,97.28ZM108.469,97a2.545,2.545,0,0,1-.406,1.037c-.062.162.121.041.121.041a2.727,2.727,0,0,0,.346-1.037c-.021-.184-.061-.041-.061-.041Zm.327.184a1.938,1.938,0,0,1-.386.894c-.081.143.1.062.1.062a1.756,1.756,0,0,0,.386-.977c-.041-.224-.1.022-.1.022Zm2.236.833a.914.914,0,0,1,.448-.037l.044.218a.272.272,0,0,0-.146.248.248.248,0,0,0,.224.263h.019v.317a4.032,4.032,0,0,1-.671.153c-.346.081-.1.284-.1.284a.729.729,0,0,1,.224.3c.162.184-.1.325-.1.325a3.034,3.034,0,0,0-1.159.651,6.986,6.986,0,0,1-1.056-.019,1.205,1.205,0,0,1-.286-.407.292.292,0,0,1,.427.041,1.108,1.108,0,0,0,.529.062c.305-.162.753-.367.753-.367a.307.307,0,0,1,.2-.041c.121-.041-.021-.143-.021-.143a2.783,2.783,0,0,1-.548-.508c-.162-.264,0-.386,0-.386a10.423,10.423,0,0,1,1.22-.957Zm.573,0a.679.679,0,0,1,.322.264c.121.264.081.327.081.327a.463.463,0,0,0,0,.243,1.64,1.64,0,0,1-.284.138v-.325a.283.283,0,0,0,.1-.219.253.253,0,0,0-.208-.264Z" transform="translate(23.725 -84.301)" fill="#fff" fill-rule="evenodd"/>
    <path id="Path_11636" data-name="Path 11636" d="M112.826,96.966a2.538,2.538,0,0,0,.021-.894c-.143-.305-.286-.367-.286-.367,0-.873-.528-1-.528-1a1.191,1.191,0,0,0,.1.386c.041.081-.1-.021-.1-.021a.578.578,0,0,0-.286-.427,1.085,1.085,0,0,1-.3-.264c-.224.366.366.753.366.753a13.649,13.649,0,0,0-2.5.284,2.437,2.437,0,0,1-1.749-.121.69.69,0,0,1-.406-.9,1.031,1.031,0,0,1,.976-.549,3.63,3.63,0,0,1,.977.163,4.205,4.205,0,0,0,2.013-.041,1.381,1.381,0,0,0,.671-.752,1.194,1.194,0,0,1-.732.183,2.511,2.511,0,0,1-1.119.285c.57-.224.55-.448.55-.448a.967.967,0,0,1,.263-.326,2.119,2.119,0,0,0-.751.386,1.971,1.971,0,0,1-.875.184.541.541,0,0,1-.284-.02c.406-.122.427-.285.427-.285a2.318,2.318,0,0,0-1.79.326,1.258,1.258,0,0,0-.568,1.342c.141.651,1.3.854,1.3.854a14.124,14.124,0,0,0,2.36-.121,2.485,2.485,0,0,1,1.24.021c.121.081,0,.1,0,.1-.591-.081-.773.61-.773.61a1.055,1.055,0,0,1,.956-.325c.1.019,0,.041,0,.041a.645.645,0,0,0-.489.143.816.816,0,0,0,.671.141.421.421,0,0,0,.245-.2.812.812,0,0,1,.121.854.9.9,0,0,1-.407.346,3.035,3.035,0,0,1-1.424-.162,1.71,1.71,0,0,0-.671-.1c-.061-.019-.162-.06-.243-.081a15.915,15.915,0,0,0-1.749-.346l.1.143c.162.041.243.121.264.2a.271.271,0,0,1-.021.162.505.505,0,0,1-.1.162l.083.164a.673.673,0,0,1,.528.773,1,1,0,0,0,.367.711,1.877,1.877,0,0,0,1.4.508c.245,0,.286.061.286.061.244.143.2.794.2.794a1.638,1.638,0,0,1-.121.549c.081.2.487.1.487.1a.159.159,0,0,0,.083-.1.288.288,0,0,0-.061-.243c-.041-.062,0-.041,0-.041a.454.454,0,0,1,.243.427.558.558,0,0,0-.162-.855c-.081-.019-.143-.041-.143-.041a6.065,6.065,0,0,1-.081-.792v-.143l-.2-.224a1.51,1.51,0,0,1-.976-.06,2,2,0,0,0,.019-.264,7.921,7.921,0,0,0-.081-1.262,9.375,9.375,0,0,0,1.1.243,1.933,1.933,0,0,0,.671.083c.529.121.367.487.367.487.427-.346.06-.589.06-.589a.759.759,0,0,0,.469-.61Zm-28.407.2a1.333,1.333,0,0,1,.1-.976,2.433,2.433,0,0,1,1.261-1.037,1.254,1.254,0,0,1,.977-.589,1.358,1.358,0,0,1-.224.305,1.749,1.749,0,0,0,.691-.386.738.738,0,0,1-.427.651,18.651,18.651,0,0,0,3.7-.041.935.935,0,0,0,.834-.956c-.183-.732-1.1-.3-1.1-.3-1.932,1.119-2.867-.366-2.867-.366a5.062,5.062,0,0,0,1.383.183A3.008,3.008,0,0,1,87.956,93a.882.882,0,0,1,.427.163,1.975,1.975,0,0,0,1.037.2c-.163-.183-.427-.488-.427-.488a1.822,1.822,0,0,0,.651.142c.2.02.366.041.366.041a1.184,1.184,0,0,0,.529,0A1.262,1.262,0,0,1,91.7,94.12c.1,1.22-1.3,1.321-1.3,1.321a31.487,31.487,0,0,1-3.721.122.741.741,0,0,1,.407.447,1.167,1.167,0,0,0,.142.245c-.326.019-.651-.407-.651-.407a3.4,3.4,0,0,0,.367.508c-.183.081-.569-.386-.569-.386a.831.831,0,0,0-1.139.021c-.57.446-.468.833-.468.833a.457.457,0,0,0,.142.346.7.7,0,0,0,.569.2,3.738,3.738,0,0,0,1.1-.2,3.3,3.3,0,0,0,.631-.244.823.823,0,0,1,.183.021.807.807,0,0,1,.448-.1,24,24,0,0,0,3.456-1.018,5.3,5.3,0,0,0,.977-.813c.224.142.366.671.366.671a.379.379,0,0,0,.142-.184c.122.447.732.691.732.691a.565.565,0,0,1,.326.2l.061-.184a8.827,8.827,0,0,0,1.322.956q.642.44,1.3.855c.548-.61.935-.245.935-.245a.218.218,0,0,1-.184.062.673.673,0,0,0-.467.141c.672-.1.794.123.794.123.141.325-.327.487-.327.487a.4.4,0,0,0-.427-.427.562.562,0,0,1,.305.467c-.143.386-.489.083-.489.083a1.99,1.99,0,0,1-.3-.224,4.357,4.357,0,0,1-1.951-.753l-.509.224a2.185,2.185,0,0,1-.651-.794c-.061-.1-.1-.182-.1-.182v.182a1.555,1.555,0,0,0,.243.529c-.874,1-2.44.1-2.44.1-.183-.061-.753-.367-.753-.367a2.8,2.8,0,0,0-2.379,1.444l-.122.2c-.121.916-.406.916-.406.916a.393.393,0,0,0-.2-.508,6,6,0,0,1-.814.019,1.105,1.105,0,0,0-.061,1.119c.711-.019.406.549.406.549a.248.248,0,0,1-.224.184.487.487,0,0,0-.529-.549c.467.184.366.467.366.467-.121-.021-.243.184-.243.184a1.333,1.333,0,0,1-.589-1.24c.081-1.4.386-1.669.386-1.669.1-.041.142.021.142.021a1.152,1.152,0,0,0,.711.019c.163-.041.2-.365.2-.365a2.414,2.414,0,0,1,.488-1.018c-.264.123-1.749.509-1.749.509a1.209,1.209,0,0,0-.874.751c-.447-.549.264-.854.264-.854a.7.7,0,0,1-.548-.445Zm7.951-.467a3.7,3.7,0,0,0,.732.834,1.06,1.06,0,0,0,.163.121.25.25,0,0,1-.142.041,2.392,2.392,0,0,1-.773-.814c-.1-.2.02-.183.02-.183Zm-.671.426a3.464,3.464,0,0,0,.386.427,1.493,1.493,0,0,0,.468.366,1.146,1.146,0,0,1-.854-.589c-.081-.164-.061-.224-.061-.224l.061.02Zm.346-.264a2.25,2.25,0,0,0,.752.814c.142.041.1.141.1.141-.122.021-.163-.041-.163-.041A1.285,1.285,0,0,1,92,96.987c-.1-.224.04-.123.04-.123Z" transform="translate(26.953 -83.885)" fill="#fff" fill-rule="evenodd"/>
  </g>
</svg>
