<svg xmlns="http://www.w3.org/2000/svg" width="272" height="163" viewBox="0 0 272 163">
  <g id="spaceshitp" transform="translate(-435.5 -16100)">
    <g id="Rectangle_1697" data-name="Rectangle 1697" transform="translate(585.5 16100)" fill="rgba(241,243,233,0)" stroke="#f1f3e9" stroke-width="1">
      <rect width="81" height="81" rx="40.5" stroke="none"/>
      <rect x="0.5" y="0.5" width="80" height="80" rx="40" fill="none"/>
    </g>
    <g id="Rectangle_1698" data-name="Rectangle 1698" transform="translate(626.5 16176)" fill="rgba(241,243,233,0)" stroke="#f1f3e9" stroke-width="1">
      <rect width="81" height="81" rx="40.5" stroke="none"/>
      <rect x="0.5" y="0.5" width="80" height="80" rx="40" fill="none"/>
    </g>
    <g id="Rectangle_1699" data-name="Rectangle 1699" transform="translate(464.5 16182)" fill="rgba(241,243,233,0)" stroke="#f1f3e9" stroke-width="1">
      <rect width="81" height="81" rx="40.5" stroke="none"/>
      <rect x="0.5" y="0.5" width="80" height="80" rx="40" fill="none"/>
    </g>
    <g id="Group_646" data-name="Group 646" transform="translate(435.5 16106.037)">
      <rect id="Rectangle_1696" data-name="Rectangle 1696" width="116" height="116" rx="58" transform="translate(0 -0.037)" fill="rgba(187,200,151,0.21)"/>
      <g id="rocket" transform="translate(83.764 0)">
        <path id="Path_12480" data-name="Path 12480" d="M466.658,47.84c.043.938.067,1.871.067,2.8a58.477,58.477,0,0,1-.969,10.628l-.064-.012A25.112,25.112,0,0,1,453.36,50.075l-.03-.058A58.539,58.539,0,0,1,466.658,47.84Z" transform="translate(-318.256 -34.831)" fill="#ebebeb"/>
        <path id="Path_12481" data-name="Path 12481" d="M333.909,110.455q-1.644.633-3.337,1.166l-4.661-4.242-4.093-3.729-5.077-4.619q.355-1.612.8-3.191a58.636,58.636,0,0,1,8.247-17.527,59.44,59.44,0,0,1,32.424-23.3l.03.058a25.112,25.112,0,0,0,12.331,11.178l.064.012a58.866,58.866,0,0,1-36.733,44.2Z" transform="translate(-223.143 -39.824)" fill="#f1ffcb"/>
        <path id="Path_12482" data-name="Path 12482" d="M464.624,421.259a7.232,7.232,0,0,0,2.83,1.755,7.281,7.281,0,0,0-4.582,4.6,7.254,7.254,0,0,0-4.582-4.6,7.25,7.25,0,0,0,4.582-4.594A7.237,7.237,0,0,0,464.624,421.259Z" transform="translate(-321.71 -292.882)" fill="#0e8411"/>
        <path id="Path_12483" data-name="Path 12483" d="M385.593,224.023,374.846,236l-6.86-6.325a10.215,10.215,0,0,1-.686-14.33,58.457,58.457,0,0,0,16.528-9.7l.009.009a6.908,6.908,0,0,0,1.312,8.6,6.91,6.91,0,0,1,.459,9.756Z" transform="translate(-256.535 -144.714)" fill="#c3f53c"/>
        <path id="Path_12484" data-name="Path 12484" d="M236.328,251.2l10.746-11.976a59.087,59.087,0,0,1-81.3,50.383v0a138.509,138.509,0,0,0,52.766-52.022l.131-.143.118.109,2-10.078,4.661,4.242q1.69-.533,3.337-1.166a10.215,10.215,0,0,0,.686,14.33Z" transform="translate(-118.016 -159.916)" fill="#c3f53c"/>
        <path id="Path_12485" data-name="Path 12485" d="M182.929,74.593a59.548,59.548,0,0,0-6.088,7.437,6.913,6.913,0,0,1-8.685-.5,6.909,6.909,0,0,0-9.76.455L147.465,93.823l6.939,6.24a10.223,10.223,0,0,0,14.19-.507q-.451,1.581-.8,3.191l5.077,4.619-10.154,2.654.106.1c-2.781,3.774-9.583,12.8-18.08,22.616l-1.564-1.828c-.24-.279-.468-.571-.683-.871l-3.07-4.254a8.9,8.9,0,0,0-7.327-3.838,1.506,1.506,0,0,1-.832-.219l-6.274-3.741a6.134,6.134,0,0,0-6-.146l-3.307,1.761a6.516,6.516,0,0,1-8.554-2.238l-3.213-5.041a6.915,6.915,0,0,1,.118-7.61,7.878,7.878,0,0,1,7.537-3.389l4.816.61a4.339,4.339,0,0,0,4.3-2.053,7.622,7.622,0,0,1,7.546-3.7l2.1.267a4.308,4.308,0,0,0,3.923-1.618l1.855-2.4a6.206,6.206,0,0,0,.188-7.382l-4-5.736a18.449,18.449,0,0,0-5.861-5.4,18.485,18.485,0,0,1-1.764-1.169l-3.374-2.517-4.272-3.2a59.282,59.282,0,0,1,65.893,7.561Z" transform="translate(-74.191 -43.541)" fill="#c3f53c"/>
        <path id="Path_12486" data-name="Path 12486" d="M300.126,217.941l-.106-.1,10.154-2.654,4.093,3.729-2,10.078-.118-.109Z" transform="translate(-211.5 -151.365)" fill="#ebebeb"/>
        <path id="Path_12487" data-name="Path 12487" d="M113.378,235.2l-.131.143a138.509,138.509,0,0,1-52.766,52.022,130.444,130.444,0,0,1-16.886,7.758s-53.853,16.4-14.855-38.689c-20.715,40.2,17.211,23.351,17.983,22.981l0,0c5.01-2.457,10.431-6.462,15.857-11.241a225.827,225.827,0,0,0,20.691-21.3c8.5-9.82,15.3-18.842,18.08-22.616Z" transform="translate(-12.727 -157.673)" fill="#ebebeb"/>
        <path id="Path_12488" data-name="Path 12488" d="M270.5,125.981a6.913,6.913,0,0,0,8.685.5,58.635,58.635,0,0,0-8.247,17.527,10.223,10.223,0,0,1-14.19.507l-6.939-6.24,10.932-11.837a6.909,6.909,0,0,1,9.759-.455Z" transform="translate(-176.537 -87.99)" fill="#c3f53c"/>
        <path id="Path_12489" data-name="Path 12489" d="M103.841,146.234l1.564,1.828a225.828,225.828,0,0,1-20.691,21.3l-.2-.225a8.558,8.558,0,0,0-1.412-2.766l-6.811-8.879a7.869,7.869,0,0,1-1.336-2.678l-2.247-8.062a8.518,8.518,0,0,0-5.952-5.894l-.489-.131a6.343,6.343,0,0,1-2.654-1.479l-4.193-3.923a9.51,9.51,0,0,1-1.694-2.12,9.353,9.353,0,0,0-9.863-4.452l-.8.158-.708-.067A58.653,58.653,0,0,1,77.7,82.36l4.272,3.2,3.374,2.517a18.483,18.483,0,0,0,1.764,1.169,18.45,18.45,0,0,1,5.861,5.4l4,5.736a6.206,6.206,0,0,1-.188,7.382l-1.855,2.4a4.308,4.308,0,0,1-3.923,1.618l-2.1-.267a7.622,7.622,0,0,0-7.546,3.7,4.339,4.339,0,0,1-4.3,2.053l-4.816-.61a7.878,7.878,0,0,0-7.537,3.389,6.915,6.915,0,0,0-.118,7.61l3.213,5.041a6.516,6.516,0,0,0,8.554,2.238l3.307-1.761a6.134,6.134,0,0,1,6,.146l6.274,3.741a1.506,1.506,0,0,0,.832.219,8.9,8.9,0,0,1,7.327,3.838l3.07,4.254c.216.3.443.592.683.871Z" transform="translate(-34.858 -58.869)" fill="#9be147"/>
        <path id="Path_12490" data-name="Path 12490" d="M212.124,473.569a7.2,7.2,0,0,0,2.83,1.758,7.267,7.267,0,0,0-4.582,4.594,7.242,7.242,0,0,0-4.582-4.594,7.263,7.263,0,0,0,4.582-4.6A7.257,7.257,0,0,0,212.124,473.569Z" transform="translate(-145.884 -329.308)" fill="#0e8411"/>
        <path id="Path_12491" data-name="Path 12491" d="M162.831,13.839a7.265,7.265,0,0,0,2.833,1.755,7.263,7.263,0,0,0-4.582,4.6,7.261,7.261,0,0,0-4.582-4.6A7.249,7.249,0,0,0,161.082,11a7.265,7.265,0,0,0,1.749,2.839Z" transform="translate(-111.561 -9.178)" fill="#0e8411"/>
        <path id="Path_12492" data-name="Path 12492" d="M83.928,275.134l.2.225c-5.426,4.78-10.847,8.785-15.857,11.241l0,0a58.891,58.891,0,0,1-17.928-23,58.153,58.153,0,0,1-4.831-23.284q0-2.769.255-5.472l.708.067.8-.158A9.353,9.353,0,0,1,57.14,239.2a9.51,9.51,0,0,0,1.694,2.12l4.193,3.923a6.343,6.343,0,0,0,2.654,1.479l.489.131a8.518,8.518,0,0,1,5.952,5.894l2.247,8.062a7.868,7.868,0,0,0,1.336,2.678l6.811,8.879A8.559,8.559,0,0,1,83.928,275.134Z" transform="translate(-34.273 -164.865)" fill="#c3f53c"/>
        <path id="Path_12493" data-name="Path 12493" d="M400.1,119.332a7.314,7.314,0,1,1-10.333.486A7.314,7.314,0,0,1,400.1,119.332Z" transform="translate(-272.666 -83.288)" fill="#0e8411"/>
        <path id="Path_12494" data-name="Path 12494" d="M301.757,249.216a4.152,4.152,0,0,1-.1,1.154,4.217,4.217,0,0,1-3.395,3.2l-5.329.917.413-5.393a4.215,4.215,0,0,1,8.414.125Z" transform="translate(-206.563 -172.257)" fill="#ed6337"/>
        <path id="Path_12495" data-name="Path 12495" d="M176.966,60.35A58.96,58.96,0,0,0,149.6,67.033l4.272,3.2,3.374,2.517.856.358a59.334,59.334,0,0,1,57.357,1.459A58.94,58.94,0,0,0,176.966,60.35Z" transform="translate(-106.756 -43.542)" fill="#50dd5a"/>
        <path id="Path_12496" data-name="Path 12496" d="M86.008,88.54c-.222-.152-.444-.3-.66-.465l-3.374-2.517L77.7,82.36A58.653,58.653,0,0,0,46.35,128.847l.708.067.8-.158a9.337,9.337,0,0,1,7.565,1.826A58.719,58.719,0,0,1,86.008,88.54Z" transform="translate(-34.859 -58.869)" fill="#50dd5a"/>
        <path id="Path_12497" data-name="Path 12497" d="M59.754,265.724a58.153,58.153,0,0,1-4.831-23.284q0-2.769.255-5.472l.149.014a9.344,9.344,0,0,0-8.05-2.231l-.8.158-.708-.067q-.255,2.7-.255,5.472A58.153,58.153,0,0,0,50.341,263.6,58.891,58.891,0,0,0,68.269,286.6l0,0a47.7,47.7,0,0,0,4.246-2.382,58.731,58.731,0,0,1-12.764-18.494Z" transform="translate(-34.273 -164.865)" fill="#50dd5a"/>
        <g id="Group_583" data-name="Group 583" transform="translate(0 0)">
          <path id="Path_12498" data-name="Path 12498" d="M93.681,70.3a1.814,1.814,0,0,0,1.143-.4c1.149-.927,2.341-1.825,3.543-2.67a1.822,1.822,0,0,0-2.1-2.981c-1.268.891-2.525,1.838-3.735,2.815a1.822,1.822,0,0,0,1.145,3.24Z" transform="translate(-66.548 -46.021)" fill="#c3f53c"/>
          <path id="Path_12499" data-name="Path 12499" d="M23.737,116.378a1.82,1.82,0,0,0,2.35-1.055,65.8,65.8,0,0,1,15.248-23.4,1.822,1.822,0,1,0-2.569-2.584,69.416,69.416,0,0,0-16.085,24.69A1.822,1.822,0,0,0,23.737,116.378Z" transform="translate(-18.294 -63.359)" fill="#c3f53c"/>
          <path id="Path_12500" data-name="Path 12500" d="M422.888,362.161a1.822,1.822,0,0,0-2.5.628c-1.02,1.706-2.135,3.389-3.312,5a1.822,1.822,0,1,0,2.944,2.147c1.242-1.7,2.418-3.48,3.5-5.281A1.822,1.822,0,0,0,422.888,362.161Z" transform="translate(-292.768 -253.526)" fill="#c3f53c"/>
          <path id="Path_12501" data-name="Path 12501" d="M445.387,268.925a69.591,69.591,0,0,0,2.247-10.841,70.983,70.983,0,0,0,.547-8.786,1.822,1.822,0,0,0-3.644,0,67.374,67.374,0,0,1-.518,8.344,65.981,65.981,0,0,1-2.127,10.262c-.595,2.035-1.3,4.064-2.087,6.028-.486,1.207-1.013,2.413-1.567,3.583a1.822,1.822,0,1,0,3.293,1.56c.585-1.236,1.142-2.51,1.655-3.784.831-2.076,1.572-4.217,2.2-6.366Z" transform="translate(-307.625 -173.847)" fill="#c3f53c"/>
          <ellipse id="Ellipse_36" data-name="Ellipse 36" cx="2.103" cy="2.101" rx="2.103" ry="2.101" transform="translate(35.53 13.591)" fill="#c3f53c"/>
          <path id="Path_12502" data-name="Path 12502" d="M401.374,396.45a2.1,2.1,0,1,0,2.1,2.1A2.1,2.1,0,0,0,401.374,396.45Z" transform="translate(-280.615 -277.584)" fill="#c3f53c"/>
          <path id="Path_12503" data-name="Path 12503" d="M338.947,479.866a2.433,2.433,0,1,0,2.433,2.433A2.433,2.433,0,0,0,338.947,479.866Z" transform="translate(-236.912 -335.67)" fill="#c3f53c"/>
          <circle id="Ellipse_37" data-name="Ellipse 37" cx="3.349" cy="3.349" r="3.349" transform="translate(102.351 135.337)" fill="#c3f53c"/>
          <path id="Path_12504" data-name="Path 12504" d="M35.142,44.114a2.433,2.433,0,1,0-2.433-2.433A2.433,2.433,0,0,0,35.142,44.114Z" transform="translate(-25.36 -28.848)" fill="#c3f53c"/>
          <path id="Path_12505" data-name="Path 12505" d="M45.112,16.773a3.349,3.349,0,1,0-3.349-3.35A3.349,3.349,0,0,0,45.112,16.773Z" transform="translate(-31.664 -8.533)" fill="#c3f53c"/>
          <path id="Path_12506" data-name="Path 12506" d="M151.746,13.146a5.46,5.46,0,0,1,3.431,3.442,1.822,1.822,0,0,0,3.458,0,5.46,5.46,0,0,1,3.431-3.442,1.822,1.822,0,0,0,0-3.456,5.461,5.461,0,0,1-3.431-3.443,1.822,1.822,0,0,0-3.458,0,5.46,5.46,0,0,1-3.431,3.443,1.822,1.822,0,0,0,0,3.456Zm5.16-2.7a9.192,9.192,0,0,0,.972.974,9.192,9.192,0,0,0-.972.974,9.251,9.251,0,0,0-.972-.974,9.249,9.249,0,0,0,.971-.973Z" transform="translate(-107.384 -5)" fill="#c3f53c"/>
          <path id="Path_12507" data-name="Path 12507" d="M211.355,469.421a5.46,5.46,0,0,1-3.431-3.442,1.822,1.822,0,0,0-3.458,0,5.46,5.46,0,0,1-3.431,3.442,1.822,1.822,0,0,0,0,3.456,5.46,5.46,0,0,1,3.431,3.443,1.822,1.822,0,0,0,3.458,0,5.461,5.461,0,0,1,3.431-3.443,1.822,1.822,0,0,0,0-3.456Zm-5.16,2.7a9.223,9.223,0,0,0-.972-.974,9.248,9.248,0,0,0,.972-.974,9.2,9.2,0,0,0,.972.974,9.164,9.164,0,0,0-.972.973Z" transform="translate(-141.706 -325.132)" fill="#c3f53c"/>
          <path id="Path_12508" data-name="Path 12508" d="M463.855,417.11a5.46,5.46,0,0,1-3.431-3.442,1.822,1.822,0,0,0-3.458,0,5.459,5.459,0,0,1-3.431,3.442,1.822,1.822,0,0,0,0,3.456,5.46,5.46,0,0,1,3.431,3.443,1.822,1.822,0,0,0,3.458,0,5.461,5.461,0,0,1,3.431-3.443,1.822,1.822,0,0,0,0-3.456Zm-5.16,2.7a9.256,9.256,0,0,0-.972-.974,9.243,9.243,0,0,0,.972-.973,9.153,9.153,0,0,0,.972.973,9.172,9.172,0,0,0-.972.973Z" transform="translate(-317.532 -288.705)" fill="#c3f53c"/>
          <path id="Path_12509" data-name="Path 12509" d="M156.821,41.842a60.11,60.11,0,0,0-36.576,14.527q-1.612,1.38-3.117,2.869a60.993,60.993,0,0,0-38.413-13.6c-33.524,0-60.8,27.124-60.8,60.464a60.209,60.209,0,0,0,4.555,23.051C9.509,147.663,5.62,160.025,10.6,166.922,13.541,171,19.1,172.19,24.6,172.19a59.166,59.166,0,0,0,15.3-2.347c.037-.011.074-.024.11-.037a132.908,132.908,0,0,0,16.374-7.451,61.117,61.117,0,0,0,63.977-12.207,60.074,60.074,0,0,0,18.969-39.467,8.739,8.739,0,0,0-.989-11.843,5.105,5.105,0,0,1-1.1-6.08,60.651,60.651,0,0,0,21.477-49.182,1.817,1.817,0,0,0-1.905-1.734ZM78.716,49.284a57.349,57.349,0,0,1,35.882,12.6,61.759,61.759,0,0,0-4.7,5.912,5.105,5.105,0,0,1-6.2-.5,8.73,8.73,0,0,0-12.324.569L80.441,79.7a1.822,1.822,0,0,0,.121,2.591L87.5,88.53A11.991,11.991,0,0,0,95.543,91.6a12.13,12.13,0,0,0,4.889-1.029,1.816,1.816,0,0,0,.445.631l2.592,2.359-6.9,1.8A1.822,1.822,0,0,0,95.256,96.7V96.7c-2.81,3.794-8.773,11.65-16.2,20.343l-.182-.213c-.207-.243-.406-.5-.592-.753l-3.07-4.254a10.712,10.712,0,0,0-8.6-4.6h-.171l-6.207-3.7a7.968,7.968,0,0,0-7.786-.188L49.144,105.1a4.712,4.712,0,0,1-6.162-1.609L39.77,98.452a5.087,5.087,0,0,1,.087-5.6,6.065,6.065,0,0,1,5.8-2.606l4.817.607a6.142,6.142,0,0,0,6.1-2.938A5.793,5.793,0,0,1,62.322,85.1l2.106.268a6.125,6.125,0,0,0,5.59-2.311l1.856-2.394a8.017,8.017,0,0,0,.243-9.541l-4-5.737a20.422,20.422,0,0,0-6.438-5.929A16.835,16.835,0,0,1,60.087,58.4L54.85,54.482a57.093,57.093,0,0,1,23.866-5.2Zm28.335,22.963A60.645,60.645,0,0,0,101.287,85.7a8.417,8.417,0,0,1-11.349.116l-5.567-5,9.689-10.488a5.086,5.086,0,0,1,7.185-.337,8.725,8.725,0,0,0,5.807,2.257Zm-6.316,25.8,5.947-1.555,2.6,2.371-1.17,5.9Zm1.147,9.65a2.39,2.39,0,0,1-1.987,2.472l-3.028.52.234-3.062a2.413,2.413,0,0,1,1.685-2.108,2.374,2.374,0,0,1,.59-.1l.115,0a2.4,2.4,0,0,1,2.39,2.283ZM51.209,56.312l6.7,5.008A20.5,20.5,0,0,0,59.844,62.6a16.757,16.757,0,0,1,5.284,4.863l4,5.738A4.391,4.391,0,0,1,69,78.426L67.14,80.82a2.47,2.47,0,0,1-2.252.929l-2.106-.268a9.432,9.432,0,0,0-9.346,4.591,2.537,2.537,0,0,1-2.5,1.163l-4.816-.607A9.689,9.689,0,0,0,36.847,90.8a8.728,8.728,0,0,0-.149,9.613l3.211,5.041a8.372,8.372,0,0,0,10.949,2.867l3.306-1.761a4.306,4.306,0,0,1,4.206.1l6.274,3.744a3.372,3.372,0,0,0,1.813.474,7.058,7.058,0,0,1,5.8,3.084l3.07,4.255c.243.338.505.67.777.988l.542.635q-1.387,1.589-2.827,3.193-7.95,8.85-14.868,15.155a10.4,10.4,0,0,0-.759-1.138l-6.811-8.879a6.023,6.023,0,0,1-1.028-2.057l-2.247-8.064a10.339,10.339,0,0,0-7.227-7.161l-.49-.133a4.489,4.489,0,0,1-1.885-1.05l-4.194-3.922a7.637,7.637,0,0,1-1.368-1.71,11.2,11.2,0,0,0-10.884-5.456,56.948,56.948,0,0,1,29.148-42.3ZM21.564,106.1c0-1.258.046-2.5.127-3.742l.169-.033a7.542,7.542,0,0,1,7.942,3.587,11.271,11.271,0,0,0,2.02,2.525l4.193,3.924a8.142,8.142,0,0,0,3.42,1.906l.49.133a6.678,6.678,0,0,1,4.673,4.623l2.247,8.064a9.65,9.65,0,0,0,1.646,3.3l6.811,8.879a6.722,6.722,0,0,1,.83,1.423,74.362,74.362,0,0,1-13.413,9.545A56.354,56.354,0,0,1,21.564,106.1Zm2.945,27.451a60.389,60.389,0,0,0,14.472,18.308c-4.954,1.813-14.014,4.241-17.372.769-2.655-2.743-1.615-9.459,2.9-19.077Zm14.282,32.82c-5.557,1.677-20.762,4.62-25.239-1.587C11.568,162.036,11,156.5,16.713,145.4c-.612,4.357.162,7.606,2.314,9.8,2.048,2.089,5.048,2.82,8.248,2.82,7.422,0,15.912-3.939,16.033-4,8.982-4.408,20.16-14.017,33.225-28.561C85.758,115.2,93.556,105.073,97.4,99.933l2.025,1.843c-.071,0-.142,0-.213,0a6.037,6.037,0,0,0-5.737,5.572l-.413,5.393a1.822,1.822,0,0,0,2.126,1.935l5.332-.916a6.033,6.033,0,0,0,5.006-6.234c0-.071-.015-.141-.02-.213l1.318,1.2c-7.65,13.243-28.5,42.987-68.031,57.861Zm79.088-18.887A57.5,57.5,0,0,1,60.573,160a140.055,140.055,0,0,0,49.705-50.188,1.822,1.822,0,0,0,.786-1.168l1.37-6.913,2.274,2.07a1.812,1.812,0,0,0,.787.414,12.073,12.073,0,0,0,3.228,12.741l6.863,6.325a1.822,1.822,0,0,0,1.235.483c.029,0,.057,0,.086,0a1.822,1.822,0,0,0,1.27-.6l6.923-7.718a56.485,56.485,0,0,1-17.222,32.051Zm18.344-38.758L126.7,119.347l-5.5-5.074a8.418,8.418,0,0,1-.835-11.455A60.224,60.224,0,0,0,133.1,95.959a8.723,8.723,0,0,0,2.791,5.575A5.1,5.1,0,0,1,136.222,108.728Zm-19.845-8.338-12.26-11.162a57.6,57.6,0,0,1,18.5-30.092,56.781,56.781,0,0,1,20.1-11.154,27.071,27.071,0,0,0,11.213,10.172,56.966,56.966,0,0,1-37.55,42.236ZM154.587,54.4a23.433,23.433,0,0,1-8.191-7.428,57.159,57.159,0,0,1,8.745-1.374,56.879,56.879,0,0,1-.555,8.8Z" transform="translate(-8.506 -30.653)" fill="#0e8411"/>
          <path id="Path_12510" data-name="Path 12510" d="M397.149,113.809a9.136,9.136,0,1,0-6.161,15.892q.219,0,.439-.01a9.135,9.135,0,0,0,5.721-15.881Zm-2.089,10.452a5.492,5.492,0,1,1,1.425-3.954,5.492,5.492,0,0,1-1.425,3.954Z" transform="translate(-268.492 -79.112)" fill="#c3f53c"/>
          <path id="Path_12511" data-name="Path 12511" d="M193.576,379.588q-.423.338-.852.674a1.822,1.822,0,1,0,2.247,2.868q.44-.346.876-.693a1.822,1.822,0,0,0-2.272-2.849Z" transform="translate(-136.299 -265.565)" fill="#284268"/>
          <path id="Path_12512" data-name="Path 12512" d="M213.038,355.337c-1.46,1.381-2.969,2.744-4.485,4.052a1.822,1.822,0,0,0,2.381,2.759c1.557-1.344,3.108-2.744,4.608-4.163a1.822,1.822,0,0,0-2.5-2.648Z" transform="translate(-147.367 -248.608)" fill="#284268"/>
          <path id="Path_12513" data-name="Path 12513" d="M247,311.539a1.822,1.822,0,0,0-2.563.264c-2.642,3.248-5.452,6.4-8.351,9.365a1.822,1.822,0,0,0,2.606,2.547c2.976-3.045,5.861-6.28,8.572-9.613a1.822,1.822,0,0,0-.264-2.563Z" transform="translate(-166.617 -218.172)" fill="#284268"/>
        </g>
      </g>
    </g>
  </g>
</svg>
