<svg xmlns="http://www.w3.org/2000/svg" width="213.187" height="147.371" viewBox="0 0 213.187 147.371">
  <g id="Group_648" data-name="Group 648" transform="translate(-463.816 -16116.297)">
    <g id="bg-15" transform="translate(463.816 16116.297)">
      <g id="bg" transform="translate(0 0)">
        <path id="Path_12536" data-name="Path 12536" d="M391.46,204.081a26.518,26.518,0,0,1-2.49-18.909c4.375-18.086,16.794-49.828,49.662-45.334,45.6,6.242,58.861,7.8,77.572,1.949s51.065-5.847,61.2,7.406c6.144,8.034,26.9,44.044,13.643,56.529s6.416,37.168,7.016,50.286-18.32,14.8-42.1,15.2-161.984-4.143-161.984-4.143-17.718-30.558-3.685-41.474C398.98,218.844,395.092,210.753,391.46,204.081Z" transform="translate(-384.889 -138.048)" fill="#f1f3e9"/>
        <path id="Path_12537" data-name="Path 12537" d="M428.8,792.938c-3.041-.106-14.436,1.45-15.1,2.046-.173.161-2.665,7.571,8.3,17.148,17.541,15.322,64.746,15.845,80.045,10.017,22.2-8.457,46.516,7.4,96.931,1.332,16.111-1.939,26.877-26.617,19.553-29.816-4.385-1.907-9.636,3.154-14.046.933-5.075-2.561-15.36-4.162-21.727-2.2a.492.492,0,0,0,.222.959l-3.354,1.07c-3.726,2.774-2.887-.912-11.628-1.387l-25.772-.636c-9.214.278-44.67,1.836-58.542,1.281h-7.63c-5.091-.636-18.3-.938-18.772-.954Z" transform="translate(-408.399 -678.21)" fill="#f1f3e9"/>
      </g>
      <g id="chair" transform="translate(28.38 76.981)">
        <path id="Path_12538" data-name="Path 12538" d="M549,604" transform="translate(-548.923 -600.185)" fill="#fff"/>
        <path id="Path_12539" data-name="Path 12539" d="M563,582h7.8s2.428.347,2.6,2.081-.057,24.29-.057,24.29l15.663-.187a2.4,2.4,0,0,1,1.561,2.254,2.792,2.792,0,0,1-1.214,2.428l-23.8-.108L563,582" transform="translate(-560.495 -582)" fill="#baf2d2"/>
        <path id="Path_12540" data-name="Path 12540" d="M551.06,582s-2.254.347-2.428,3.815,0,26.877,0,26.877l23.775.173a1.222,1.222,0,0,0,.907-.4,2.666,2.666,0,0,0,.808-1.509,2.158,2.158,0,0,0-2.254-2.428c-1.907,0-18.034-.173-18.034-.173l-.347-24.276S553.488,582.347,551.06,582Z" transform="translate(-548.556 -582)" fill="#aae4b7"/>
        <path id="Path_12541" data-name="Path 12541" d="M620.136,758.026s-.42,1.966.968,1.966h2.254a1.637,1.637,0,0,0,.456-1.907c-.456-.867-3.676-.061-3.676-.061" transform="translate(-607.674 -727.22)" fill="#baf2d2"/>
        <path id="Path_12542" data-name="Path 12542" d="M241.11,632.463l.173,19.584h1.561l.087-19.7Z" transform="translate(-227.681 -599.68)" fill="#baf2d2"/>
        <path id="Path_12543" data-name="Path 12543" d="M204.11,743.94l14.912.173V745.5l-14.912-.173Z" transform="translate(-197.097 -691.92)" fill="#baf2d2"/>
      </g>
      <g id="table" transform="translate(56.027 84.958)">
        <path id="Path_12544" data-name="Path 12544" d="M370.8,581.181l-.694-36.241h3.641l-.173,36.241Z" transform="translate(-361.96 -535.403)" fill="#fff"/>
        <path id="Path_12545" data-name="Path 12545" d="M831.11,545.94H835.1l-1.387,36.241-2.6.173Z" transform="translate(-743.023 -536.23)" fill="#fff"/>
        <path id="Path_12546" data-name="Path 12546" d="M354.11,508.089l.173,5.9,88.261.52.094-6.594Z" transform="translate(-348.735 -504.794)" fill="#e9edfa"/>
        <path id="Path_12547" data-name="Path 12547" d="M323.11,489.94l99.185.347v3.295l-99.012-.173Z" transform="translate(-323.11 -489.94)" fill="#baf2d2"/>
      </g>
      <g id="flower" transform="translate(168.419 73.827)">
        <path id="Path_12548" data-name="Path 12548" d="M1022.82,667.69l.173,14.739,19.767-.347V667.69Z" transform="translate(-1013.882 -625.738)" fill="#e9faf1"/>
        <path id="Path_12549" data-name="Path 12549" d="M1106.88,682.153l.012-14.463h-1.252" transform="translate(-1082.341 -625.738)" fill="#fff"/>
        <path id="Path_12550" data-name="Path 12550" d="M1437.172,605.731s-.472-8.741,3.662-11.222.591-8.269,1.417-11.34,4.725-5.315,4.725-7.678-.347-8.977,4.134-10.985,8.032.591,6.615,4.489-2.482,8.387-4.016,9.8-.945,3.662-.709,6.379-1.89,7.2-3.071,8.859,0,4.489-.347,7.442c0,0-.645,4.134-1.294,4.271S1437.172,605.731,1437.172,605.731Z" transform="translate(-1423.112 -563.81)" fill="#baf2d2"/>
        <path id="Path_12551" data-name="Path 12551" d="M1379.456,712.181a4.978,4.978,0,0,0-4.087-5.334c-4.607-1.172-.659-3.931-1.581-5.389s-5.273-2.526-5.273-3.641.4-4.267-4.614-5.221-8.965.281-7.384,2.133,2.774,3.988,4.482,4.661,1.054,1.734.791,3.033,2.108,3.425,3.428,4.21,0,2.133.4,3.537c0,0,.72,1.965,1.443,2.03S1379.456,712.181,1379.456,712.181Z" transform="translate(-1356.164 -669.991)" fill="#baf2d2"/>
        <path id="Path_12552" data-name="Path 12552" d="M1468.2,707.785s-.367-4.345,2.846-5.578.459-4.11,1.1-5.637,3.671-2.643,3.671-3.815-.276-4.463,3.211-5.46,6.242.293,5.139,2.232-1.926,4.162-3.121,4.874-.733,1.821-.551,3.172-1.469,3.582-2.386,4.4,0,2.232-.276,3.7c0,0-.5,2.055-1,2.122S1468.2,707.785,1468.2,707.785Z" transform="translate(-1448.762 -665.596)" fill="#baf2d2"/>
      </g>
      <g id="board" transform="translate(35.944 32.208)">
        <path id="Path_12553" data-name="Path 12553" d="M441.85,185.73l.128,33.244,92.518-.128V185.988Z" transform="translate(-401.177 -185.73)" fill="#fff"/>
        <path id="Path_12554" data-name="Path 12554" d="M537.33,245.73v4.092l37.888-.179V245.73Z" transform="translate(-480.101 -235.326)" fill="#bac6f2"/>
        <path id="Path_12555" data-name="Path 12555" d="M537.33,311.38v4.092l37.888-.179V311.38Z" transform="translate(-480.101 -289.592)" fill="#bac6f2"/>
        <circle id="Ellipse_40" data-name="Ellipse 40" cx="2.845" cy="2.845" r="2.845" transform="translate(47.98 10.232)" fill="#bac6f2"/>
        <circle id="Ellipse_41" data-name="Ellipse 41" cx="2.845" cy="2.845" r="2.845" transform="translate(47.98 20.86)" fill="#bac6f2"/>
        <rect id="Rectangle_1700" data-name="Rectangle 1700" width="22.493" height="10.973" transform="translate(105.459 14.881)" fill="#e9edfa"/>
        <path id="Path_12556" data-name="Path 12556" d="M1198.34,425.928s1.751-3.836,3.418-3.418,2.081,2.167,3.334,1.417,2.063-3.768,3.279-4.24c1.734-.675,2.306.069,4.642,1.4s3.328,1.04,4.29.056c.879-.9,2.514-3.348,4.325-4.437" transform="translate(-1093.232 -400.598)" fill="none" stroke="#bac6f2" stroke-linecap="round" stroke-linejoin="round" stroke-width="3"/>
        <rect id="Rectangle_1701" data-name="Rectangle 1701" width="33.466" height="31.814" transform="translate(0 0.43)" fill="#fff"/>
        <circle id="Ellipse_42" data-name="Ellipse 42" cx="8.658" cy="8.658" r="8.658" transform="translate(7.637 11.032)" fill="rgba(170,228,183,0)" stroke="#aae4b7" stroke-linecap="round" stroke-linejoin="round" stroke-width="1"/>
        <rect id="Rectangle_1702" data-name="Rectangle 1702" width="8.514" height="2.013" transform="translate(2.199 3.177)" fill="#aae4b7"/>
        <rect id="Rectangle_1703" data-name="Rectangle 1703" width="8.514" height="2.013" transform="translate(2.199 6.334)" fill="#aae4b7"/>
      </g>
    </g>
    <g id="credit-card" transform="translate(536.242 16126.369)">
      <g id="Group_584" data-name="Group 584" transform="translate(0 0)">
        <path id="Path_12514" data-name="Path 12514" d="M102.845,59.724c0,28.4-22.686,46-51.086,46S0,88.123,0,59.724a51.422,51.422,0,1,1,102.845,0Z" transform="translate(0 -8.301)" fill="#c3f53c"/>
      </g>
      <g id="Group_585" data-name="Group 585" transform="translate(0 20.489)">
        <path id="Path_12515" data-name="Path 12515" d="M98.579,158.429h0A51.468,51.468,0,0,0,92.5,106.966H38.341a5.2,5.2,0,0,0-5.2,5.2v17.967a5.906,5.906,0,0,1-3.632,5.449,24.382,24.382,0,0,0-6.162,3.729,6.92,6.92,0,0,1-11.029-3.1q-.075-.228-.147-.457C10.026,128.971.051,130.425,0,137.534q0,.183,0,.365a51.428,51.428,0,0,0,98.579,20.529Zm-29.773,0H85.083a3.4,3.4,0,0,1,1.688,6.361A51.03,51.03,0,0,1,69.8,170.875a6.2,6.2,0,0,1-7.072-7.458l.03-.137A6.173,6.173,0,0,1,68.806,158.429Z" transform="translate(0 -106.966)" fill="#0e8411"/>
      </g>
      <g id="Group_586" data-name="Group 586" transform="translate(42.372 15.302)">
        <path id="Path_12516" data-name="Path 12516" d="M267.963,94.252V87.183a5.1,5.1,0,0,0-5.087-5.2H204.042V94.252Z" transform="translate(-204.042 -81.987)" fill="#a1d020"/>
      </g>
      <g id="Group_587" data-name="Group 587" transform="translate(42.372 38.384)">
        <path id="Path_12517" data-name="Path 12517" d="M204.042,193.136v28.381h58.834a5.1,5.1,0,0,0,5.087-5.2V193.136Z" transform="translate(-204.042 -193.136)" fill="#a1d020"/>
      </g>
      <g id="Group_588" data-name="Group 588" transform="translate(28.409 15.302)">
        <path id="Path_12518" data-name="Path 12518" d="M153.211,94.252a6.583,6.583,0,0,1-1.337-3.986,8.279,8.279,0,0,1,8.279-8.279H142a5.2,5.2,0,0,0-5.2,5.2v7.069Z" transform="translate(-136.803 -81.987)" fill="#20a723"/>
      </g>
      <g id="Group_589" data-name="Group 589" transform="translate(28.409 38.383)">
        <path id="Path_12519" data-name="Path 12519" d="M136.8,193.135V216.32a5.2,5.2,0,0,0,5.2,5.2h18.154a8.279,8.279,0,0,1-8.279-8.279,15.515,15.515,0,0,1,15.515-15.515h47.3v-4.587H136.8Z" transform="translate(-136.802 -193.135)" fill="#20a723"/>
      </g>
      <g id="Group_590" data-name="Group 590" transform="translate(28.409 26.749)">
        <path id="Path_12520" data-name="Path 12520" d="M136.8,137.11H174.76v12.777H136.8Z" transform="translate(-136.802 -137.11)" fill="#0e8411"/>
      </g>
      <g id="Group_591" data-name="Group 591" transform="translate(58.065 26.749)">
        <path id="Path_12521" data-name="Path 12521" d="M279.612,143.5A6.389,6.389,0,0,0,286,149.887h41.839V137.11H286A6.389,6.389,0,0,0,279.612,143.5Z" transform="translate(-279.612 -137.11)" fill="#c3f53c"/>
      </g>
      <g id="Group_592" data-name="Group 592" transform="translate(85.272 49.989)">
        <circle id="Ellipse_38" data-name="Ellipse 38" cx="6.346" cy="6.346" r="6.346" fill="#fff"/>
      </g>
      <g id="Group_593" data-name="Group 593" transform="translate(42.372 44.456)">
        <path id="Path_12522" data-name="Path 12522" d="M219.2,226.788H205.089a1.046,1.046,0,0,1-1.046-1.046v-2.319a1.046,1.046,0,0,1,1.046-1.046H219.2a1.046,1.046,0,0,1,1.046,1.046v2.319A1.046,1.046,0,0,1,219.2,226.788Z" transform="translate(-204.043 -222.378)" fill="#0e8411"/>
      </g>
      <g id="Group_594" data-name="Group 594" transform="translate(62.579 44.456)">
        <path id="Path_12523" data-name="Path 12523" d="M309.621,226.788h-7.228a1.046,1.046,0,0,1-1.046-1.046v-2.319a1.046,1.046,0,0,1,1.046-1.046h7.228a1.046,1.046,0,0,1,1.046,1.046v2.319A1.046,1.046,0,0,1,309.621,226.788Z" transform="translate(-301.348 -222.378)" fill="#0e8411"/>
      </g>
      <g id="Group_595" data-name="Group 595" transform="translate(76.159 44.456)">
        <path id="Path_12524" data-name="Path 12524" d="M375.016,226.788h-7.228a1.045,1.045,0,0,1-1.046-1.046v-2.319a1.046,1.046,0,0,1,1.046-1.046h7.228a1.045,1.045,0,0,1,1.046,1.046v2.319A1.046,1.046,0,0,1,375.016,226.788Z" transform="translate(-366.743 -222.378)" fill="#0e8411"/>
      </g>
      <g id="Group_596" data-name="Group 596" transform="translate(89.739 44.456)">
        <path id="Path_12525" data-name="Path 12525" d="M440.41,226.788h-7.228a1.045,1.045,0,0,1-1.046-1.046v-2.319a1.046,1.046,0,0,1,1.046-1.046h7.228a1.046,1.046,0,0,1,1.046,1.046v2.319A1.045,1.045,0,0,1,440.41,226.788Z" transform="translate(-432.137 -222.378)" fill="#0e8411"/>
      </g>
      <g id="Group_597" data-name="Group 597" transform="translate(42.372 42.949)">
        <path id="Path_12526" data-name="Path 12526" d="M219.2,219.53H205.089a1.046,1.046,0,0,1-1.046-1.046v-2.319a1.046,1.046,0,0,1,1.046-1.046H219.2a1.046,1.046,0,0,1,1.046,1.046v2.319A1.046,1.046,0,0,1,219.2,219.53Z" transform="translate(-204.043 -215.12)" fill="#b6fff6"/>
      </g>
      <g id="Group_598" data-name="Group 598" transform="translate(62.579 42.949)">
        <path id="Path_12527" data-name="Path 12527" d="M309.621,219.53h-7.228a1.046,1.046,0,0,1-1.046-1.046v-2.319a1.046,1.046,0,0,1,1.046-1.046h7.228a1.046,1.046,0,0,1,1.046,1.046v2.319A1.045,1.045,0,0,1,309.621,219.53Z" transform="translate(-301.348 -215.12)" fill="#b6fff6"/>
      </g>
      <g id="Group_599" data-name="Group 599" transform="translate(76.159 42.949)">
        <path id="Path_12528" data-name="Path 12528" d="M375.016,219.53h-7.228a1.046,1.046,0,0,1-1.046-1.046v-2.319a1.046,1.046,0,0,1,1.046-1.046h7.228a1.045,1.045,0,0,1,1.046,1.046v2.319A1.045,1.045,0,0,1,375.016,219.53Z" transform="translate(-366.743 -215.12)" fill="#b6fff6"/>
      </g>
      <g id="Group_600" data-name="Group 600" transform="translate(89.739 42.949)">
        <path id="Path_12529" data-name="Path 12529" d="M440.41,219.53h-7.228a1.045,1.045,0,0,1-1.046-1.046v-2.319a1.046,1.046,0,0,1,1.046-1.046h7.228a1.046,1.046,0,0,1,1.046,1.046v2.319A1.045,1.045,0,0,1,440.41,219.53Z" transform="translate(-432.137 -215.12)" fill="#b6fff6"/>
      </g>
      <g id="Group_608" data-name="Group 608" transform="translate(9.772 42.038)">
        <g id="Group_601" data-name="Group 601" transform="translate(1.046 1.046)">
          <circle id="Ellipse_39" data-name="Ellipse 39" cx="23.353" cy="23.353" r="23.353" fill="#fec502"/>
        </g>
        <path id="Path_12530" data-name="Path 12530" d="M47.058,235.133a24.4,24.4,0,0,0,24.4,24.4v-48.8A24.4,24.4,0,0,0,47.058,235.133Z" transform="translate(-47.058 -210.734)" fill="#ffe65a"/>
        <g id="Group_602" data-name="Group 602" transform="translate(0 0)">
          <path id="Path_12531" data-name="Path 12531" d="M71.458,217.193a17.94,17.94,0,1,1-17.94,17.94,17.96,17.96,0,0,1,17.94-17.94m0-6.459a24.4,24.4,0,1,0,24.4,24.4A24.4,24.4,0,0,0,71.458,210.734Z" transform="translate(-47.059 -210.734)" fill="#ffa50a"/>
        </g>
        <g id="Group_603" data-name="Group 603" transform="translate(0.076 0.051)">
          <path id="Path_12532" data-name="Path 12532" d="M69.425,212.478a1.686,1.686,0,0,1,.764-1.5,24.4,24.4,0,0,0-22.758,22.36,1.615,1.615,0,0,0,3.221.236A21.2,21.2,0,0,1,70.84,214.184,1.6,1.6,0,0,1,69.425,212.478Z" transform="translate(-47.426 -210.981)" fill="#ffe65a"/>
        </g>
        <g id="Group_604" data-name="Group 604" transform="translate(24.684 24.431)">
          <path id="Path_12533" data-name="Path 12533" d="M188.363,328.38a1.618,1.618,0,0,0-1.61,1.51,21.2,21.2,0,0,1-20.829,19.624,1.724,1.724,0,0,1,.137,3.228A24.4,24.4,0,0,0,189.976,330.1,1.613,1.613,0,0,0,188.363,328.38Z" transform="translate(-165.924 -328.38)" fill="#fa870a"/>
        </g>
        <g id="Group_606" data-name="Group 606" transform="translate(16.013 13.354)">
          <g id="Group_605" data-name="Group 605">
            <path id="Path_12534" data-name="Path 12534" d="M132.377,275.039c-.705,0-1.218.417-1.218.866v.9c-3.4.481-6.411,2.436-6.411,6.508,0,4.1,3.462,5.482,6.411,6.6v5.193c-2.372-.417-3.462-2.308-4.809-2.308-1.218,0-2.18,1.6-2.18,2.693,0,2.052,3.142,4.039,6.988,4.168v.8c0,.449.513.866,1.218.866.609,0,1.218-.417,1.218-.866v-.93c3.751-.609,6.315-3.013,6.315-6.988,0-4.328-3.4-5.835-6.315-6.925v-4.681c2.084.16,2.693,1.186,3.751,1.186,1.411,0,1.988-1.763,1.988-2.629,0-2.212-3.751-2.725-5.738-2.789v-.8c0-.449-.609-.866-1.218-.866Zm-.9,9.81c-1.218-.513-2.052-1.09-2.052-2.02,0-.769.609-1.507,2.052-1.8Zm1.8,10.226v-4.3c1.154.545,1.956,1.218,1.956,2.276C135.23,294.21,134.364,294.819,133.274,295.075Z" transform="translate(-124.17 -275.039)" fill="#ffa50a"/>
          </g>
        </g>
        <g id="Group_607" data-name="Group 607" transform="translate(16.014 10.485)">
          <path id="Path_12535" data-name="Path 12535" d="M131.16,285.847c-3.847-.128-6.989-2.116-6.989-4.168,0-1.09.962-2.693,2.18-2.693,1.346,0,2.437,1.891,4.809,2.308V276.1c-2.949-1.122-6.411-2.5-6.411-6.6,0-4.071,3.013-6.027,6.411-6.508v-.9c0-.449.513-.866,1.218-.866.609,0,1.218.417,1.218.866v.8c1.988.064,5.738.577,5.738,2.789,0,.866-.577,2.629-1.988,2.629-1.058,0-1.667-1.026-3.751-1.186v4.681c2.917,1.09,6.315,2.6,6.315,6.925,0,3.975-2.564,6.379-6.315,6.988v.93c0,.449-.609.866-1.218.866-.705,0-1.218-.417-1.218-.866v-.8Zm.321-14.811v-3.815c-1.443.289-2.052,1.026-2.052,1.8C129.428,269.946,130.262,270.523,131.48,271.036Zm1.8,5.931v4.3c1.09-.256,1.956-.866,1.956-2.02C135.231,278.185,134.429,277.512,133.275,276.967Z" transform="translate(-124.171 -261.226)" fill="#fff"/>
        </g>
      </g>
    </g>
  </g>
</svg>
