<svg xmlns="http://www.w3.org/2000/svg" xmlns:xlink="http://www.w3.org/1999/xlink" width="378.799" height="442.041" viewBox="0 0 378.799 442.041">
  <defs>
    <linearGradient id="linear-gradient" x1="-0.01" y1="0.5" x2="0.999" y2="0.5" gradientUnits="objectBoundingBox">
      <stop offset="0.01" stop-color="#ebeaf0"/>
      <stop offset="0.99" stop-color="#e5e4ec"/>
    </linearGradient>
    <linearGradient id="linear-gradient-2" x1="0.002" y1="0.499" x2="1.003" y2="0.499" xlink:href="#linear-gradient"/>
    <linearGradient id="linear-gradient-3" x1="0" y1="0.5" x2="1" y2="0.5" xlink:href="#linear-gradient"/>
    <linearGradient id="linear-gradient-4" x1="0.002" y1="0.493" x2="1.002" y2="0.493" xlink:href="#linear-gradient"/>
    <linearGradient id="linear-gradient-5" x1="0.113" y1="0.502" x2="1.123" y2="0.502" xlink:href="#linear-gradient"/>
    <linearGradient id="linear-gradient-6" x1="0.702" y1="0.439" x2="0.161" y2="0.538" xlink:href="#linear-gradient"/>
    <linearGradient id="linear-gradient-7" x1="1.066" y1="0.563" x2="-0.003" y2="0.373" xlink:href="#linear-gradient"/>
    <linearGradient id="linear-gradient-8" x1="1.005" y1="0.211" x2="-0.139" y2="0.586" xlink:href="#linear-gradient"/>
    <linearGradient id="linear-gradient-9" x1="1.145" y1="0.364" x2="0.129" y2="0.626" xlink:href="#linear-gradient"/>
    <linearGradient id="linear-gradient-10" x1="-0.01" y1="0.494" x2="1.005" y2="0.494" xlink:href="#linear-gradient"/>
    <linearGradient id="linear-gradient-11" x1="-0.045" y1="0.5" x2="1" y2="0.5" xlink:href="#linear-gradient"/>
    <linearGradient id="linear-gradient-12" x1="-0.017" y1="0.947" x2="0.978" y2="-0.061" gradientUnits="objectBoundingBox">
      <stop offset="0" stop-color="#3c6bff"/>
      <stop offset="0.99" stop-color="#00b6ff"/>
    </linearGradient>
    <linearGradient id="linear-gradient-13" x1="0" y1="0.501" x2="1" y2="0.501" xlink:href="#linear-gradient-12"/>
    <linearGradient id="linear-gradient-14" x1="-0.036" y1="0.771" x2="1.041" y2="0.228" gradientUnits="objectBoundingBox">
      <stop offset="0" stop-color="#fdb569"/>
      <stop offset="1" stop-color="#ff645f"/>
    </linearGradient>
    <linearGradient id="linear-gradient-15" x1="0" y1="0.499" x2="0.971" y2="0.499" xlink:href="#linear-gradient"/>
    <linearGradient id="linear-gradient-16" x1="0" y1="0.498" x2="1" y2="0.498" xlink:href="#linear-gradient"/>
    <linearGradient id="linear-gradient-17" x1="0" y1="0.5" x2="1" y2="0.5" xlink:href="#linear-gradient"/>
    <linearGradient id="linear-gradient-18" x1="-0.953" y1="0.229" x2="1.358" y2="0.771" xlink:href="#linear-gradient"/>
    <linearGradient id="linear-gradient-19" x1="-0.001" y1="0.5" x2="1.001" y2="0.5" xlink:href="#linear-gradient"/>
  </defs>
  <g id="Group_610" data-name="Group 610" transform="translate(-120 -1203.999)">
    <g id="Asset_51" data-name="Asset 51" transform="translate(346.044 1203.999)">
      <g id="Layer_2" data-name="Layer 2" transform="translate(0 0)">
        <g id="Layer_1" data-name="Layer 1">
          <g id="Group_541" data-name="Group 541" transform="translate(43.424 253.811)" opacity="0.1">
            <ellipse id="Ellipse_31" data-name="Ellipse 31" cx="22.102" cy="12.764" rx="22.102" ry="12.764" fill="#607080"/>
          </g>
          <path id="Path_12155" data-name="Path 12155" d="M118.525,53v136.15a3.315,3.315,0,0,1-2.167,3.522l-8.621,4.924-4.781-11.027-63.55-36.778a13.178,13.178,0,0,1-6.374-10.039V22.4L25.83,5.464,34.387.54c1.163-.813,2.98-.733,5.02.446l72.744,42.037A13.178,13.178,0,0,1,118.525,53Z" transform="translate(15.331 -0.003)" fill="#0e8411"/>
          <path id="Path_12156" data-name="Path 12156" d="M112.151,43.023l-9.338,5.306L59.788,45.668,33.033,23.359V22.5L25.83,5.464,34.387.54c1.163-.813,2.98-.733,5.02.446Z" transform="translate(15.331 -0.003)" fill="#0e8411"/>
          <path id="Path_12157" data-name="Path 12157" d="M24.49,143.157V7.007c0-3.506,2.852-4.781,6.374-2.677l72.7,41.973a13.178,13.178,0,0,1,6.374,10.039v136.1c0,3.506-2.852,4.781-6.374,2.693L30.848,153.2a13.194,13.194,0,0,1-6.358-10.039Z" transform="translate(14.535 1.96)" fill="#c3f53c"/>
          <path id="Path_12158" data-name="Path 12158" d="M102.246,47.917,29.868,6.119c-1.912-1.1-3.458-.446-3.458,1.466V143.416a7.171,7.171,0,0,0,3.458,5.466l72.378,41.8c1.912,1.1,3.458.446,3.458-1.466V53.383a7.171,7.171,0,0,0-3.458-5.466Z" transform="translate(15.675 3.31)" fill="#9fc92e"/>
          <path id="Path_12159" data-name="Path 12159" d="M39.659,76.647V89.156L27.15,81.937V71.659c0-1.227,1-1.594,2.231-.94Z" transform="translate(16.114 41.779)" fill="#fffeff"/>
          <path id="Path_12160" data-name="Path 12160" d="M47.616,81.583V94.092L35.41,87.049V74.54Z" transform="translate(21.017 44.236)" fill="#fffeff"/>
          <path id="Path_12161" data-name="Path 12161" d="M55.656,86.239V98.732L43.45,91.689V79.18Z" transform="translate(25.789 46.99)" fill="#fffeff"/>
          <path id="Path_12162" data-name="Path 12162" d="M63.7,90.873v12.493L51.49,96.323V83.83Z" transform="translate(30.561 49.75)" fill="#fffeff"/>
          <path id="Path_12163" data-name="Path 12163" d="M71.736,95.513v12.509L59.53,100.963V88.47Z" transform="translate(35.332 52.504)" fill="#fffeff"/>
          <path id="Path_12164" data-name="Path 12164" d="M80.079,102.576v10.262L67.57,105.683V93.11l10.246,5.928a4.669,4.669,0,0,1,2.263,3.538Z" transform="translate(40.104 55.258)" fill="#fffeff"/>
          <path id="Path_12165" data-name="Path 12165" d="M80.079,108.559v12.206L67.57,113.546V101.34Z" transform="translate(40.104 60.142)" fill="#fffeff"/>
          <path id="Path_12166" data-name="Path 12166" d="M80.079,116.615v10.294c0,1.243-1,1.593-2.231.94L67.57,121.921V109.38Z" transform="translate(40.104 64.914)" fill="#fffeff"/>
          <path id="Path_12167" data-name="Path 12167" d="M71.736,111.783v12.541L59.53,117.281V104.74Z" transform="translate(35.332 62.16)" fill="#fffeff"/>
          <path id="Path_12168" data-name="Path 12168" d="M63.7,107.143v12.541L51.49,112.641V100.1Z" transform="translate(30.561 59.406)" fill="#fffeff"/>
          <path id="Path_12169" data-name="Path 12169" d="M55.656,102.5v12.541L43.45,108V95.46Z" transform="translate(25.789 56.653)" fill="#fffeff"/>
          <path id="Path_12170" data-name="Path 12170" d="M47.616,97.853v12.541L35.41,103.367V90.81Z" transform="translate(21.017 53.893)" fill="#fffeff"/>
          <path id="Path_12171" data-name="Path 12171" d="M39.659,93.279V105.82L29.381,99.892A4.669,4.669,0,0,1,27.15,96.37V86.06Z" transform="translate(16.114 51.073)" fill="#fffeff"/>
          <path id="Path_12172" data-name="Path 12172" d="M29.411,63.029c-1.227-.717-2.231-.287-2.231.94v6.486a4.669,4.669,0,0,0,2.231,3.538l57.654,33.289V96.318Z" transform="translate(16.132 37.198)" fill="#fffeff"/>
          <path id="Path_12173" data-name="Path 12173" d="M78.968,92A4.669,4.669,0,0,1,81.2,95.518v6.5c0,1.227-1,1.594-2.231.94l-13.338-7.7V84.3Z" transform="translate(38.953 50.029)" fill="#fffeff"/>
          <path id="Path_12174" data-name="Path 12174" d="M39.689,85.239V97.445L27.18,90.226V78.02Z" transform="translate(16.132 46.302)" fill="#fffeff"/>
          <path id="Path_12175" data-name="Path 12175" d="M47.616,89.813V102.02L35.41,94.976V82.77Z" transform="translate(21.017 49.121)" fill="#fffeff"/>
          <path id="Path_12176" data-name="Path 12176" d="M55.656,94.469v12.19L43.45,99.616V87.41Z" transform="translate(25.789 51.875)" fill="#fffeff"/>
          <path id="Path_12177" data-name="Path 12177" d="M63.7,99.1V111.31L51.49,104.266V92.06Z" transform="translate(30.561 54.635)" fill="#fffeff"/>
          <path id="Path_12178" data-name="Path 12178" d="M71.736,103.743V115.95L59.53,108.906V96.7Z" transform="translate(35.332 57.389)" fill="#fffeff"/>
          <path id="Path_12179" data-name="Path 12179" d="M55.71,9.233l2.056-1.1a4.143,4.143,0,0,1,4.159.462L118.782,41.39l.908,2.5-9.338,5.434V76.017a3.075,3.075,0,0,1-1.259,2.757l-1.817,1.068V79.2a5.8,5.8,0,0,1-2.422-.956L61.829,53.421a11.25,11.25,0,0,1-5.418-8.541V10.81a4.414,4.414,0,0,1,0-.669Z" transform="translate(33.065 4.61)" fill="#e1edf9"/>
          <path id="Path_12180" data-name="Path 12180" d="M118.231,44.617l-9.418,5.434V76.743c0,3-2.422,4.016-5.418,2.295L60.37,54.21A11.25,11.25,0,0,1,55,45.669V11.536c0-3,2.422-4.016,5.418-2.295l56.921,32.874C117.753,43.295,117.8,43.438,118.231,44.617Z" transform="translate(32.644 4.984)" fill="#fffeff"/>
          <path id="Path_12181" data-name="Path 12181" d="M118.231,44.617l-9.418,5.434V76.743c0,3-2.422,4.016-5.418,2.295L60.37,54.21A11.25,11.25,0,0,1,55,45.669V11.536c0-3,2.422-4.016,5.418-2.295l56.921,32.874C117.753,43.295,117.8,43.438,118.231,44.617Z" transform="translate(32.644 4.984)" fill="#c3f53c"/>
          <path id="Path_12182" data-name="Path 12182" d="M59.855,18.051,99.6,41c.653.367,1.179.143,1.179-.51V40.3A2.454,2.454,0,0,0,99.6,38.432L59.855,15.406c-.653-.367-1.2-.143-1.2.51v.191a2.47,2.47,0,0,0,1.2,1.944Z" transform="translate(34.816 9.034)" fill="#7f7f7f"/>
          <path id="Path_12183" data-name="Path 12183" d="M59.855,25.289,99.6,48.236c.653.382,1.179.159,1.179-.494v-.191A2.454,2.454,0,0,0,99.6,45.67L59.855,22.74c-.653-.382-1.2-.159-1.2.494v.191a2.47,2.47,0,0,0,1.2,1.864Z" transform="translate(34.816 13.381)" fill="#7f7f7f"/>
          <path id="Path_12184" data-name="Path 12184" d="M59.855,32.6,99.6,55.566c.653.382,1.179.159,1.179-.494v-.191A2.486,2.486,0,0,0,99.6,53L59.855,30.07c-.653-.382-1.2-.159-1.2.494v.191A2.454,2.454,0,0,0,59.855,32.6Z" transform="translate(34.816 17.731)" fill="#7f7f7f"/>
          <path id="Path_12185" data-name="Path 12185" d="M.57,8.564,2.45,7.48,72.294,47.8a11.25,11.25,0,0,1,5.45,8.557V90.486A3.028,3.028,0,0,1,76.5,93.211l-1.944,1.147-.765-.892a6.772,6.772,0,0,1-1.594-.653L16.378,60.48a11.155,11.155,0,0,1-5.418-8.541V25.232L2.849,11.257Z" transform="translate(0.338 4.435)" fill="#e1edf9"/>
          <path id="Path_12186" data-name="Path 12186" d="M0,9.61,9.418,25.928V52.619a11.155,11.155,0,0,0,5.418,8.541L70.752,93.445c3,1.737,5.418.717,5.418-2.279V57.033a11.155,11.155,0,0,0-5.418-8.541L.908,8.16Z" transform="translate(0 4.838)" fill="#fffeff"/>
          <path id="Path_12187" data-name="Path 12187" d="M0,9.61,9.418,25.928V52.619a11.155,11.155,0,0,0,5.418,8.541L70.752,93.445c3,1.737,5.418.717,5.418-2.279V57.033a11.155,11.155,0,0,0-5.418-8.541L.908,8.16Z" transform="translate(0 4.838)" fill="#c3f53c"/>
          <path id="Path_12188" data-name="Path 12188" d="M10.775,21.957l52.65,30.388c.653.367,1.2.143,1.2-.51v-.191a2.47,2.47,0,0,0-1.2-1.864l-52.586-30.4c-.653-.367-1.179-.143-1.179.51v.191A2.454,2.454,0,0,0,10.775,21.957Z" transform="translate(5.733 11.39)" fill="#014803"/>
          <path id="Path_12189" data-name="Path 12189" d="M10.8,29.271l52.586,30.4c.653.367,1.2.143,1.2-.51v-.191a2.47,2.47,0,0,0-1.2-1.864L10.8,26.706c-.653-.367-1.179-.143-1.179.51v.191A2.454,2.454,0,0,0,10.8,29.271Z" transform="translate(5.71 15.741)" fill="#014803"/>
          <path id="Path_12190" data-name="Path 12190" d="M10.8,36.572l52.586,30.4c.653.382,1.2.159,1.2-.494v-.207a2.47,2.47,0,0,0-1.131-1.928L10.8,34.07c-.653-.382-1.179-.159-1.179.494v.191A2.422,2.422,0,0,0,10.8,36.572Z" transform="translate(5.71 20.105)" fill="#014803"/>
          <path id="Path_12191" data-name="Path 12191" d="M74.613,103.023a4.3,4.3,0,0,1-.813.08,1.434,1.434,0,0,0-1.2.8l-3.076,5.976-.621,1.227-2.629-4.892-1.179-2.2a6.278,6.278,0,0,0,.669-3.3,31.964,31.964,0,0,1,.223-5.4,1.418,1.418,0,0,1,.446-.876c1.594-1.594,7.458-7.474,7.808-7.553a1.705,1.705,0,0,1,.94.1.781.781,0,0,1,.271.287.908.908,0,0,1,0,.845,31.87,31.87,0,0,1-2.98,4.781h.1a27.907,27.907,0,0,1,2.821,2.39,4.159,4.159,0,0,1,.988,1.37C76.621,97.891,75.824,102.815,74.613,103.023Z" transform="translate(38.638 51.544)" fill="#fec9c9"/>
          <g id="Group_542" data-name="Group 542" transform="translate(103.738 138.349)" opacity="0.15">
            <path id="Path_12192" data-name="Path 12192" d="M75.187,86.946l-7.649,8.828v9.959l-1.259.446-1.179-2.2a6.278,6.278,0,0,0,.669-3.3,31.964,31.964,0,0,1,.223-5.4,1.418,1.418,0,0,1,.446-.876c1.594-1.594,7.458-7.474,7.808-7.553A1.7,1.7,0,0,1,75.187,86.946Z" transform="translate(-65.1 -86.823)" fill="#cf3838"/>
          </g>
          <path id="Path_12193" data-name="Path 12193" d="M41.7,179.242a6.167,6.167,0,0,0,3.856,1.593,2.662,2.662,0,0,0,.7-.1c1.785-.51,11.155-5.036,11.824-6.565s1.785-5.53,1.418-6.039a2.247,2.247,0,0,0-2.04-.829c-.7.191-6.374,2.486-8.78,2.358a2.932,2.932,0,0,0-1.434.335,19.775,19.775,0,0,0-4.94,3.92S41.125,178.637,41.7,179.242Z" transform="translate(24.656 99.284)" fill="#110812"/>
          <path id="Path_12194" data-name="Path 12194" d="M29.943,171.705a.717.717,0,0,0,0,.446,3.283,3.283,0,0,0,2.821,2.008,11.153,11.153,0,0,0,2.964-.191,8.573,8.573,0,0,0,2.932-1.482c1.068-.765,2.661-3.442,4.334-4.589s4.781-3.267,4.781-3.267a13.018,13.018,0,0,0-.207-2.056,17.529,17.529,0,0,0-5.641.255c-.813.239-4.366,2.119-5.45,2.709l-.319.175-5.673,1.992Z" transform="translate(17.751 96.416)" fill="#110812"/>
          <path id="Path_12195" data-name="Path 12195" d="M26.374,139.661c.191.972,5.673,4.972,5.673,4.972l.51-1.02,1.594-3.314-3.729-9.689-2.836.478-.813.813S26.183,138.689,26.374,139.661Z" transform="translate(15.631 77.515)" fill="#fec9c9"/>
          <g id="Group_543" data-name="Group 543" transform="translate(41.967 208.125)" opacity="0.15">
            <path id="Path_12196" data-name="Path 12196" d="M26.374,139.661c.191.972,5.673,4.972,5.673,4.972l.51-1.02,1.594-3.314-3.729-9.689-2.836.478-.813.813S26.183,138.689,26.374,139.661Z" transform="translate(-26.336 -130.61)" fill="#cf3838"/>
          </g>
          <path id="Path_12197" data-name="Path 12197" d="M32.958,118.751a26.851,26.851,0,0,0-2.534,10.135,50.992,50.992,0,0,0,2.1,13.545c.526,1.944,1.036,3.6,1.386,4.621a2.606,2.606,0,0,0,.207.7,1.132,1.132,0,0,1,.159.478.908.908,0,0,1,0,.207,2.008,2.008,0,0,1-1.2,1.689,5.324,5.324,0,0,1-1.386.526,5.946,5.946,0,0,1-1.594.159,6.2,6.2,0,0,1-2.821-.685,2.247,2.247,0,0,1-1.2-1.594s-3.378-18.8-2.773-23.026,7.314-21.321,8.7-22.564a8.589,8.589,0,0,1,1.5-1.115,6.2,6.2,0,0,1,1.227-.558s0,14.342,0,14.342a22.311,22.311,0,0,0-1.785,3.139Z" transform="translate(13.796 60.101)" fill="#bce54b"/>
          <path id="Path_12198" data-name="Path 12198" d="M59.954,166.751l-1.179,32.014a2.47,2.47,0,0,1-1.434,1.992,5.7,5.7,0,0,1-1.833.653,7.968,7.968,0,0,1-4.032-.223,5.117,5.117,0,0,1-1.036-.462,2.438,2.438,0,0,1-1.434-1.992l.143-31.647-6.98-18.533c-.876,4.781-2.374,13.194-2.566,15.6C39.366,167.6,39.493,189,39.493,189a2.534,2.534,0,0,1-1.466,1.992,5.96,5.96,0,0,1-1.594.574,7.968,7.968,0,0,1-3.968,0,4.781,4.781,0,0,1-1.386-.542,2.486,2.486,0,0,1-1.418-2.008s-.574-21.959-.414-23.154a87.006,87.006,0,0,0,.606-9.9c.159-5.5-.845-20.461-.845-20.461a18.325,18.325,0,0,1,.956-6.788,26.99,26.99,0,0,1,.861-2.613l19.951,3.028,5.067.765C59.827,143.469,59.954,166.751,59.954,166.751Z" transform="translate(17.204 74.838)" fill="#003f7f"/>
          <path id="Path_12199" data-name="Path 12199" d="M32.775,190.537a4.779,4.779,0,0,1-1.386-.526A2.486,2.486,0,0,1,29.955,188s-.669-21.959-.51-23.154a92.426,92.426,0,0,0,.558-9.9c.1-5.434-1-20.365-1-20.365a18.612,18.612,0,0,1,.924-6.788l2.821,3.506a19.218,19.218,0,0,0-.351,9.768C33.508,146.157,32.887,184.179,32.775,190.537Z" transform="translate(17.198 75.847)" fill="url(#linear-gradient)"/>
          <path id="Path_12200" data-name="Path 12200" d="M58.366,120.883c-.207.86-.462,1.689-.717,2.5a69.715,69.715,0,0,0-2.311,7c-.733,4.318,2.008,14.1,1.9,15.808,0,1.147-1.4,2.629-5.466,3.442a39.6,39.6,0,0,1-7.824.558A27.632,27.632,0,0,1,30.623,147a11.265,11.265,0,0,1-1.833-1.2s.191-1.37.446-3.426c.367-3.187.892-7.968,1.084-12.063a64.315,64.315,0,0,0-.653-11.617c-.239-2.215-.542-4.462-.749-6.836a17.529,17.529,0,0,1,2.167-9.991c.207-.351.351-.558.367-.606a5.911,5.911,0,0,1,.924,0,52.725,52.725,0,0,1,7.6.845,43.023,43.023,0,0,1,6.183,1.594,30.722,30.722,0,0,1,10.772,5.816,9.561,9.561,0,0,1,1.594,3.012,15.154,15.154,0,0,1-.159,8.35Z" transform="translate(17.088 60.088)" fill="#c3f53c"/>
          <path id="Path_12201" data-name="Path 12201" d="M84.886,102.952a2.645,2.645,0,0,1-.287,1.307l-.175.287c-1.5,2.279-12.557,19.011-13.943,19.919s-16.254,1.769-20.923,1.9h-.8c-3.107,0-5.386-.43-6.119-4.781a14.519,14.519,0,0,1-.207-1.594,6.82,6.82,0,0,1,3.3-6.247,9.975,9.975,0,0,1,1.594-.908,3.187,3.187,0,0,1,1.594-.3,2.821,2.821,0,0,1,1.131.287,22.851,22.851,0,0,0,9.848,2.167,15.664,15.664,0,0,0,5.96-1.275L77.364,97.295c.542-1.179,1.976-1.434,3.633-.462a7.967,7.967,0,0,1,2.295,2.056,7.075,7.075,0,0,1,1.594,4.063Z" transform="translate(25.179 57.112)" fill="#bce54b"/>
          <g id="Group_544" data-name="Group 544" transform="translate(60.554 138.886)" opacity="0.25">
            <path id="Path_12202" data-name="Path 12202" d="M38,110.043a2.773,2.773,0,0,0,.717-.127l.43-.175a5.386,5.386,0,0,0,2.964-3.617l.1-.367a5.562,5.562,0,0,0,.112-1.705,9.781,9.781,0,0,1,0-.988c.1-1.96,1-2.231,1.673-2.374s.813,1.976.813,1.976l.924-.287.143-3.044a1.291,1.291,0,0,1,.319-.845c.733-.845,3.315-1.386,3.3-4.621,0-1.482-1.594-6.629-9.4-6.709,2.47,1.275,6.82,4,4.781,6.581A17.13,17.13,0,0,0,41.2,104.274a6.725,6.725,0,0,1-3.2,5.769Z" transform="translate(-38 -87.16)" fill="#bd221e"/>
          </g>
          <path id="Path_12203" data-name="Path 12203" d="M35.627,101.337a5.8,5.8,0,0,0-.908,0,7.746,7.746,0,0,0-1.227.574,8.1,8.1,0,0,0-1.514,1.115c-1.386,1.243-8.1,18.373-8.7,22.564s2.789,23.026,2.789,23.026a2.247,2.247,0,0,0,1.2,1.594,6.2,6.2,0,0,0,2.821.685c-1.068-4.621-4.924-21.449-4.781-24.747.143-2.884,5.147-15.011,7.649-20.907A17.067,17.067,0,0,0,32.169,112c.207,2.374.51,4.621.749,6.836a64.315,64.315,0,0,1,.653,11.617c-.191,4.143-.717,8.924-1.084,12.063-.255,2.056-.446,3.426-.446,3.426a11.266,11.266,0,0,0,1.833,1.2,95.277,95.277,0,0,0-.367-31.87,20.333,20.333,0,0,1,.972-10.581c.542-1.594,11.3,1.052,11.3,1.052l-2.55-3.41A50.9,50.9,0,0,0,35.627,101.337Z" transform="translate(13.772 60.13)" fill="url(#linear-gradient-2)"/>
          <path id="Path_12204" data-name="Path 12204" d="M72.268,96.833s-8.334,16.573-15.138,16.891L68.635,97.295C69.177,96.116,70.611,95.861,72.268,96.833Z" transform="translate(33.908 57.112)" fill="url(#linear-gradient-3)"/>
          <path id="Path_12205" data-name="Path 12205" d="M70.369,115.074c-1.386.892-16.254,1.769-20.923,1.9h-.8c-3.107,0-5.386-.43-6.119-4.781C43.279,112.381,60.234,116.349,70.369,115.074Z" transform="translate(25.243 66.582)" fill="url(#linear-gradient-4)"/>
          <path id="Path_12206" data-name="Path 12206" d="M46.71,158.515l-.143,34.309a5.114,5.114,0,0,1-1.036-.462A2.438,2.438,0,0,1,44.1,190.37l.143-31.647L37.26,140.19Z" transform="translate(22.115 83.201)" fill="url(#linear-gradient-5)"/>
          <path id="Path_12207" data-name="Path 12207" d="M49.727,93.347v.526a45.049,45.049,0,0,1-1.052,8.318,5.45,5.45,0,0,1-3.426,2.884.621.621,0,0,0-.43.621c.112,2.279.175,3.442.223,3.633a8.925,8.925,0,0,1-2.374.956,4.4,4.4,0,0,1-1.131.143h-.1a12.222,12.222,0,0,1-6.055-1.179,1.753,1.753,0,0,1-1.036-1.594v-2.6a67.53,67.53,0,0,1,5.721-4.781c2.534-2.04,5.386-4.255,7.314-5.609l.351-.255a13.641,13.641,0,0,1,1.594-1.02C49.568,93.252,49.727,93.236,49.727,93.347Z" transform="translate(20.388 55.355)" fill="#fec9c9"/>
          <path id="Path_12208" data-name="Path 12208" d="M53,93.829a4.127,4.127,0,0,1-1.848,3.649,7.408,7.408,0,0,0-1.386.972,1.37,1.37,0,0,0-.319.86l-.143,3.044-.924.3s-.112-2.119-.8-1.992-1.594.414-1.689,2.358v1.02a5.036,5.036,0,0,1-.112,1.689l-.1.367a5.322,5.322,0,0,1-2.98,3.617,2.645,2.645,0,0,0-.414.191,2.661,2.661,0,0,1-.717.112,11.951,11.951,0,0,1-5.784-1.275,29.479,29.479,0,0,1-2.008-4.334c-.239-1.163-1.339-3.681-1.594-4.781-.669-2.836-.526-10.9,7.968-12.174a23.1,23.1,0,0,1,3.458-.255c7.2,0,9.131,4.414,9.386,6.263A2.185,2.185,0,0,1,53,93.829Z" transform="translate(18.961 51.75)" fill="#110812"/>
          <g id="Group_545" data-name="Group 545" transform="translate(50.908 138.95)" opacity="0.15">
            <path id="Path_12209" data-name="Path 12209" d="M52.971,93.4c-1.594.367-4.781-.574-6.374-.414-2.518.255-4.589,7.091-5.036,9.975a8.417,8.417,0,0,0,0,.924,17.354,17.354,0,0,0,1.2,5.832l.143,4.318a12.222,12.222,0,0,1-6.087-1.179,1.753,1.753,0,0,1-1.036-1.594v-2.6a29.48,29.48,0,0,1-1.992-4.255c-.239-1.163-1.339-3.681-1.594-4.781-.669-2.836-.526-10.9,7.968-12.174a23.1,23.1,0,0,1,3.458-.255C50.787,87.216,52.747,91.55,52.971,93.4Z" transform="translate(-31.947 -87.2)" fill="#cf3838"/>
          </g>
        </g>
      </g>
    </g>
    <g id="Asset_56" data-name="Asset 56" transform="translate(217.39 1399.023)">
      <g id="Layer_2-2" data-name="Layer 2" transform="translate(0 0)">
        <g id="Layer_1-2" data-name="Layer 1">
          <path id="Path_12425" data-name="Path 12425" d="M281.158,124.824V139.1c0,2.895-1.943,5.828-5.731,7.985l-96.187,55.5a30.5,30.5,0,0,1-27.626,0L5.828,118.413C1.943,116.2,0,113.342,0,110.37V95.935l14.493,1.477,5.517-3.186,81.966-47.267a30.579,30.579,0,0,1,27.607,0l131.293,75.768Z" transform="translate(0 41.117)" fill="#c3f53c"/>
          <path id="Path_12426" data-name="Path 12426" d="M151.536,158.008v20.049L5.828,93.877C1.943,91.663,0,88.807,0,85.834V71.4l14.493,1.477,5.517-3.186Z" transform="translate(0 65.653)" fill="#014803"/>
          <path id="Path_12427" data-name="Path 12427" d="M275.369,139.747l-96.187,55.5a30.5,30.5,0,0,1-27.626,0L5.712,111.072c-7.616-4.391-7.616-11.54,0-15.931L101.918,39.6a30.579,30.579,0,0,1,27.607,0l145.844,84.18C283,128.188,283,135.337,275.369,139.747Z" transform="translate(0 34.179)" fill="#0e8411"/>
          <path id="Path_12428" data-name="Path 12428" d="M274.781,129.4c0,1.341-1.3,2.875-3.5,4.158L219.723,163.3l-.816.466-43.829,25.256a26.091,26.091,0,0,1-23.2,0l-47.209-27.2-15.542-8.937-12.123-6.994-15.7-9.17L6.056,104.881c-2.215-1.185-3.516-2.8-3.516-4.138s1.3-2.875,3.516-4.138l96.187-55.5a17.174,17.174,0,0,1,4.468-1.787,27.024,27.024,0,0,1,7.13-.933,27.394,27.394,0,0,1,6.8.835,18.457,18.457,0,0,1,4.8,1.943l145.844,84.1C273.479,126.543,274.781,128.078,274.781,129.4Z" transform="translate(2.395 36.135)" fill="#fffeff"/>
          <ellipse id="Ellipse_34" data-name="Ellipse 34" cx="48.55" cy="28.034" rx="48.55" ry="28.034" transform="translate(126.98 143.871)" fill="#0e8411"/>
          <path id="Path_12429" data-name="Path 12429" d="M74.088,41.576s-1.943,3.886-8.665,4.74c0,0-.272-3.886-.8-6.664a8,8,0,0,0-.777-2.623c-1.01-1.535-4.41-6.644-4.76-9.617a11.365,11.365,0,0,1,1.2-4.7A69.2,69.2,0,0,1,63.85,15.66,97.138,97.138,0,0,1,74.088,41.576Z" transform="translate(55.708 14.715)" fill="#bce54b"/>
          <path id="Path_12430" data-name="Path 12430" d="M67.755,33.987l-3.128,2.234A8,8,0,0,0,63.85,33.6c-1.01-1.535-4.41-6.644-4.76-9.617a11.365,11.365,0,0,1,1.2-4.7l5.653,11.793Z" transform="translate(55.708 18.128)" opacity="0.5" fill="url(#linear-gradient-6)"/>
          <path id="Path_12431" data-name="Path 12431" d="M67.919,34.542a10.53,10.53,0,0,1-.641,3.4s-5.828.622-7.383-.117-1.03-8.859,0-9.714a1.943,1.943,0,0,1,2.234-.214c-1.243-.855,1.749-1.943,1.943-2.1C65.646,25.781,67.919,32.775,67.919,34.542Z" transform="translate(55.545 24.275)" fill="#fec9c9"/>
          <g id="Group_578" data-name="Group 578" transform="translate(114.469 50.084)" opacity="0.15">
            <path id="Path_12432" data-name="Path 12432" d="M63.136,27.836c.505.583-1.03-.505-1.651,1.457a24.615,24.615,0,0,0-1.593,8.548c-1.535-.738-1.03-8.859,0-9.714a1.943,1.943,0,0,1,2.234-.214c-1.243-.855,1.749-1.943,1.943-2.1S62.65,27.272,63.136,27.836Z" transform="translate(-58.92 -25.805)" fill="#cf3838"/>
          </g>
          <g id="Group_579" data-name="Group 579" transform="translate(70.358 113.511)" opacity="0.1">
            <path id="Path_12433" data-name="Path 12433" d="M73.74,62.177c8.587,4.935,8.587,12.978,0,17.912a34.29,34.29,0,0,1-31.084,0c-8.587-4.935-8.587-12.978,0-17.912a34.29,34.29,0,0,1,31.084,0Z" transform="translate(-36.215 -58.453)" fill="#607080"/>
          </g>
          <path id="Path_12434" data-name="Path 12434" d="M54.112,70.71A8.995,8.995,0,0,0,52.6,76.539c.33,3.264,6.275,2.506,7.227,3.478a37.147,37.147,0,0,0,11.424,4.332c2.234,0,9.908-2.584,9.481-3.886S67.653,75.159,63.534,69.7Z" transform="translate(49.555 65.662)" fill="#110812"/>
          <path id="Path_12435" data-name="Path 12435" d="M35.5,52.23s-3.75.991-4.2,1.943A8.121,8.121,0,0,0,34.059,61.5c2.623,1.613,2.234,9.986,5.615,12.706a5.051,5.051,0,0,0,2.215-1.438c.6-.874.214-5.362-.389-7.635a38.156,38.156,0,0,1-.738-6.159Z" transform="translate(29.431 49.192)" fill="#110812"/>
          <path id="Path_12436" data-name="Path 12436" d="M79.823,72.093a110.564,110.564,0,0,0-9.112-17.057A49.929,49.929,0,0,0,74.6,33.666l-6.586,1.127-3.361.583-.136-1.263L53.635,32.17l-2.72-.35S43.843,39.144,46.447,46.1c1.807,4.721,6.275,9.189,9.714,12.667-1.03,2.39-1.768,3.886-1.768,3.886-8.548,1.71-20.671,7.771-20.671,7.771a2.292,2.292,0,0,0-1.166,2.234,5.926,5.926,0,0,0,.486,2.215,9.014,9.014,0,0,0,3.691,4.352,3.5,3.5,0,0,0,2.7.544h.136l.194-.1,21.371-8.937a27.3,27.3,0,0,0,1.943-2.506,79.232,79.232,0,0,0,4.663,7.033S66.457,79.9,68.866,88.393a69.26,69.26,0,0,1,2.409,16.747A2.934,2.934,0,0,0,73,107.549a8.218,8.218,0,0,0,3.244.952,8.995,8.995,0,0,0,5.09-.952,2.9,2.9,0,0,0,1.729-2.409S80.834,75.377,79.823,72.093Z" transform="translate(30.682 29.95)" fill="#014803"/>
          <path id="Path_12437" data-name="Path 12437" d="M71.819,73.978,51.673,46.643C48.331,42.058,54.8,34.112,54.8,34.112l-1.049-1.846-2.836-.447S43.843,39.144,46.447,46.1c1.807,4.721,6.275,9.189,9.714,12.667-1.03,2.39-1.768,3.886-1.768,3.886-8.548,1.71-20.671,7.771-20.671,7.771a2.292,2.292,0,0,0-1.166,2.234,5.926,5.926,0,0,0,.486,2.215l24.09-8.723a17.931,17.931,0,0,0,2.428-3.575.855.855,0,0,1,.155.214c2.156,3.516,6.916,11.093,8.043,12.453,0,0-1.282,4.643,1.127,13.133a69.26,69.26,0,0,1,2.409,16.747,2.934,2.934,0,0,0,1.729,2.409,8.218,8.218,0,0,0,3.244.952C73.509,98.437,71.819,73.978,71.819,73.978Z" transform="translate(30.682 29.95)" opacity="0.5" fill="url(#linear-gradient-7)"/>
          <path id="Path_12438" data-name="Path 12438" d="M77.224,31.138c-4.255,2.836-4.876,5.5-5.828,6.547a8.839,8.839,0,0,0-1.71,2.273c-1.36,2.856-3.769,8.529-3.769,12.783,0,0-7.888,7.538-20.477.991a34.812,34.812,0,0,1-3.711-2.273,10.782,10.782,0,0,1,1.749-5.012A26.927,26.927,0,0,0,45.81,38s-4.488-9.189-3.555-13.716a100.029,100.029,0,0,1,3.575-11.967s16.2-3.788,34.387,7.013c0,0,.136.486.272,1.282C80.9,23.095,81.285,28.5,77.224,31.138Z" transform="translate(39.342 10.952)" fill="#c3f53c"/>
          <path id="Path_12439" data-name="Path 12439" d="M46.694,22.687a87.114,87.114,0,0,0,4.138,15.542L45.451,53.771A34.813,34.813,0,0,1,41.74,51.5a10.782,10.782,0,0,1,1.748-5.012,26.926,26.926,0,0,0,2.331-8.451s-4.507-9.228-3.575-13.755A100.03,100.03,0,0,1,45.82,12.312s16.2-3.788,34.387,7.013c0,0,.136.486.272,1.282A99.276,99.276,0,0,0,46.83,15.363a21.507,21.507,0,0,0-.136,7.324Z" transform="translate(39.351 10.952)" opacity="0.5" fill="url(#linear-gradient-8)"/>
          <path id="Path_12440" data-name="Path 12440" d="M58.093,22.365c-1.943,4.391-8.762,3.5-8.762,3.5L40.3,28.485l9.209,15.97L43.444,49.7l-1.574,1.807S29.515,28.64,29.651,25.862s14.435-13.6,27.568-13.852a20.613,20.613,0,0,1,1.01,3.031A11.967,11.967,0,0,1,58.093,22.365Z" transform="translate(27.953 11.274)" fill="#bce54b"/>
          <path id="Path_12441" data-name="Path 12441" d="M62.423,16.912C61,21.924,54.768,27.694,54.768,27.694a27.976,27.976,0,0,1-3.128-8.276c-.68-2.934-1.01-5.323-1.01-5.323l1.088-.933L51.349,9.51l5.556,3.73Z" transform="translate(47.733 8.917)" fill="#fec9c9"/>
          <path id="Path_12442" data-name="Path 12442" d="M69.389,12.68l-.175.777c-.933,3.886-2.428,8.218-4.6,9.558H63.288a13.092,13.092,0,0,1-1.943-.233,13.91,13.91,0,0,1-6.683-2.428h0A11.656,11.656,0,0,1,53.5,16.837a9.714,9.714,0,0,1-1.69-1.748.447.447,0,0,0,0-.214,1.614,1.614,0,0,1,0-.233c-.253-.952-1.943-6.528-.466-6.839s4.119-.175,5.3-1.146c.155-.117,1.166-1.049,1.5-1.088a3.3,3.3,0,0,0,.583-.272,3.283,3.283,0,0,1,1.03-.427c2.234,0,5.479,2.739,7.149,3.264h.369a3.885,3.885,0,0,0,1.457-.253h.447C71.176,7.532,69.389,12.68,69.389,12.68Z" transform="translate(47.838 4.543)" fill="#fec9c9"/>
          <g id="Group_580" data-name="Group 580" transform="translate(98.265 9.724)" opacity="0.15">
            <path id="Path_12443" data-name="Path 12443" d="M58.2,20.261c-1.03-1.282,0-11.657.369-15.231a3.3,3.3,0,0,1-.583.272c-.33,0-1.34.971-1.5,1.088-1.185.971-3.691.835-5.3,1.146-1.282.272-.194,4.449.291,6.2l.291,3.652-1.088.933s.33,2.39,1.01,5.323a20.963,20.963,0,0,0,3.886-2.895A15.911,15.911,0,0,0,61.4,22.69c.758.117,1.457.194,1.943.233h1.321S59.42,21.815,58.2,20.261Z" transform="translate(-50.58 -5.03)" fill="#cf3838"/>
          </g>
          <path id="Path_12444" data-name="Path 12444" d="M32.662,26.62c-.369,3.886,6.295,15.542,10.782,23.08l-1.574,1.807S29.515,28.64,29.651,25.862s14.435-13.6,27.568-13.852a20.612,20.612,0,0,1,1.01,3.031S33.206,20.927,32.662,26.62Z" transform="translate(27.953 11.274)" opacity="0.5" fill="url(#linear-gradient-9)"/>
          <path id="Path_12445" data-name="Path 12445" d="M43.856,30.5a.7.7,0,0,1,0,.272,3.614,3.614,0,0,1,0,.894,8.742,8.742,0,0,1-3.886,5.226,4.7,4.7,0,0,1-1.127.505,2.642,2.642,0,0,1-1.5,0,2.079,2.079,0,0,1-1.418-2.254,6.256,6.256,0,0,1,.7-2.662A2.9,2.9,0,0,1,36.881,32a8.7,8.7,0,0,1,3.089-3.244l.505-.233h.175C42.457,27.779,43.856,28.5,43.856,30.5Z" transform="translate(33.855 26.569)" fill="#df3128"/>
          <path id="Path_12446" data-name="Path 12446" d="M43.865,30.5a.7.7,0,0,1,0,.272,2.506,2.506,0,0,1,0,.641.971.971,0,0,1,0,.253,8.684,8.684,0,0,1-3.886,5.226,4.7,4.7,0,0,1-1.127.505,3.884,3.884,0,0,1-.816.1,1.943,1.943,0,0,1-.7,0,2.059,2.059,0,0,1-1.418-2.234,6.061,6.061,0,0,1,.6-2.487.913.913,0,0,1,0-.194,2.894,2.894,0,0,1,.253-.486,8.645,8.645,0,0,1,3.089-3.225l.408-.214.272-.117C42.466,27.775,43.865,28.494,43.865,30.5Z" transform="translate(33.846 26.573)" opacity="0.5" fill="url(#linear-gradient-10)"/>
          <path id="Path_12447" data-name="Path 12447" d="M48.157,38.892a9.267,9.267,0,0,1-5.4,6.023,18.941,18.941,0,0,1-3.283-2.895,10.161,10.161,0,0,1-.777-1.088,7.5,7.5,0,0,1-.777-2.312,10.516,10.516,0,0,0-.233-1.282c-.058-.427-.1-.661-.117-.991-.136-1.243-.155-2.215-.155-2.215L36.17,32.519v-.175c0-.155.155-.33.253-.486a8.7,8.7,0,0,1,3.089-3.244l.408-.194a13.813,13.813,0,0,0,1.71,1.768,9.5,9.5,0,0,1,.874.447l.952.6,1.01.738a11.054,11.054,0,0,1,2.6,2.526,2.39,2.39,0,0,1,0,1.943H45.554l1.943.6s.175.214.369.505A1.857,1.857,0,0,1,48.157,38.892Z" transform="translate(34.1 26.745)" fill="#fec9c9"/>
          <g id="Group_581" data-name="Group 581" transform="translate(70.27 55.145)" opacity="0.15">
            <path id="Path_12448" data-name="Path 12448" d="M42.95,34.782a16.143,16.143,0,0,1,1.321,2.545l-4.8,4.682a10.161,10.161,0,0,1-.777-1.088,7.5,7.5,0,0,1-.777-2.312,10.517,10.517,0,0,0-.233-1.282c-.058-.427-.1-.661-.117-.991-.136-1.243-.155-2.215-.155-2.215L36.17,32.509v-.175c0-.155.155-.33.253-.486A8.7,8.7,0,0,1,39.512,28.6l.408-.194a13.813,13.813,0,0,0,1.71,1.768,9.5,9.5,0,0,1,.874.447l.952.6,1.01.738a11.054,11.054,0,0,1,2.6,2.526S42.154,33.558,42.95,34.782Z" transform="translate(-36.17 -28.41)" fill="#cf3838"/>
          </g>
          <path id="Path_12449" data-name="Path 12449" d="M43.176,33.668,41,33.182v-.6l1.943.583A4.721,4.721,0,0,1,43.176,33.668Z" transform="translate(38.654 30.667)" opacity="0.5" fill="url(#linear-gradient-11)"/>
          <path id="Path_12450" data-name="Path 12450" d="M73.876,9.224a9.714,9.714,0,0,1-1.166,3.536c-.291.835-.525,1.671-.738,2.526s-.272,2.662-1.107,2.739l.175-.777s1.4-5.265-.486-4.876h-.175a3.652,3.652,0,0,1-1.768.214c-5.634-.68-5.828-1.807-7.5-2.079s-2.992,3.264-3.089,4.585a12.045,12.045,0,0,1-.6,3.186.777.777,0,0,1-1.185-.486c-.369-.894.855-4.663-1.2-4.468-1.477.311-2.545,1.612-1.943,5.692a1.611,1.611,0,0,0,0,.233.447.447,0,0,1,0,.214,14.3,14.3,0,0,1,0,2.564l-.933-.194a11.792,11.792,0,0,0-1.612-5.692,13.191,13.191,0,0,1-1.535-6.761,8.587,8.587,0,0,1,.933-4.488A12.687,12.687,0,0,1,53.05,1.919,12.609,12.609,0,0,1,62.764.4s7.091.933,9.714,4.565A6.877,6.877,0,0,1,73.876,9.224Z" transform="translate(46.187 -0.025)" fill="#110812"/>
          <g id="Group_582" data-name="Group 582" transform="translate(95.178)" opacity="0.25">
            <path id="Path_12451" data-name="Path 12451" d="M73.876,9.224c-1.787-1.477-7.383-5.362-13.405-3.788-2.506.68-3.283,7.13-3.147,12.958-.214.117-.758.253-1.088-.525s.855-4.663-1.2-4.468c-1.477.311-2.545,1.612-1.943,5.692a1.609,1.609,0,0,0,0,.233.447.447,0,0,1,0,.214,14.3,14.3,0,0,1,0,2.564l-.933-.194a11.792,11.792,0,0,0-1.612-5.692,13.191,13.191,0,0,1-1.535-6.839,8.587,8.587,0,0,1,.933-4.488A12.687,12.687,0,0,1,53.05,1.919,12.609,12.609,0,0,1,62.764.4s7.091.933,9.714,4.565A6.877,6.877,0,0,1,73.876,9.224Z" transform="translate(-48.991 -0.025)" fill="#bd221e"/>
          </g>
          <path id="Path_12452" data-name="Path 12452" d="M39.4,29.379s1.243-.544,1.36-.408l.758.719A5.343,5.343,0,0,0,39.4,31.36c-1.263,1.418-2.312,2.37-2.312,2.37l-.7-1.166S38.041,29.767,39.4,29.379Z" transform="translate(34.308 27.243)" fill="#673a71"/>
          <path id="Path_12453" data-name="Path 12453" d="M40.029,30.085a3.575,3.575,0,0,1-1.71,2.72c-.952.544-1.729.214-1.729-.738a3.614,3.614,0,0,1,1.729-2.72C39.329,28.8,40.029,29.133,40.029,30.085Z" transform="translate(34.496 27.372)" fill="#26addb"/>
          <path id="Path_12454" data-name="Path 12454" d="M64.067,60.227c1.01,2.137,3.186,2.972,6,4.6l17.038,9.83,46.918,26.985,41.4,23.915c0-3.516.544-6.839.233-10.53s-1.729-5.712-3.361-9.6c-3.886-9.248-2.837-24.09-4.119-25s-4.566,1.943-6.722,2.972c-1.2.6-3.75,3.458-5.537,2.778-3.3-1.263-3.633-5.828-4.643-8.742-1.651-4.857-3.206-13.6-4.973-14.571s-5.381,4.973-7.771,7.946c-1.127,1.476-3.108,7.149-6.217,5.459a9.714,9.714,0,0,1-3.361-5.284c-1.535-4.352-3.167-8.762-5.129-13.094-1.787-3.886-3.206-13.6-4.876-14.61S110.791,68,101.815,59.081c-5.323-5.323-4.7-25.392-5.828-26.383s-2.156,8.1-4.468,10.743-5.479,5.051-7.771,8.14c-.427.563-1.049,1.127-1.943.563a5.5,5.5,0,0,1-1.418-1.612c-4.274-6.469-5.828-19.816-6.955-19.622s-10.588,14.94-9.714,26.81A6.469,6.469,0,0,0,64.067,60.227Z" transform="translate(60.018 29.091)" fill="#c3f53c"/>
          <path id="Path_12455" data-name="Path 12455" d="M113.592,120.441h1.554l.777,7.013h-1.554Zm-5.692,7.013.933-7.013h1.554l-.933,6.994Zm10.394-7.227,1.574-.194,2.487,6.877-1.554.175Zm-16.8,6.586,2.642-6.839,1.574.194-2.662,6.858Zm21.37-7.247,1.574-.35,4.158,6.567-1.574.33Zm-27.587,5.945,4.294-6.528,1.574.33-4.294,6.547Zm31.959-7.13,1.554-.486,5.692,6.12-1.554.486Zm-37.806,5.459,5.828-6.081,1.554.505-5.828,6.061ZM131.291,117l1.515-.641,7.111,5.537-1.515.661Zm-47.248,4.76,7.227-5.479,1.515.661-7.227,5.479ZM135,115.39l1.4-.8,8.334,4.857-1.418.816Zm-55.719,3.886,8.412-4.8,1.418.816-8.432,4.818Zm58.983-5.828,1.263-.952,9.345,4.1-1.263.952ZM75.2,116.284l9.422-4.041,1.243.971-9.422,4.041Zm65.821-5.09,1.069-1.107,10.238,3.264-1.049,1.107ZM71.9,113.136l10.219-3.167,1.049,1.107L72.93,114.263Zm71.319-4.294.8-1.2L154.8,109.97l-.8,1.2Zm-73.825.835,10.821-2.273.777,1.2L70.152,110.9Zm75.38-3.594.505-1.282,11.19,1.438-.505,1.3Zm-76.934-.175,11.21-1.36.486,1.3-11.21,1.36Zm77.828-2.545.175-1.341,11.385.525-.175,1.341ZM67.16,102.2l11.346-.369.155,1.341-11.385.427Zm78.566-2.934,11.385-.427.155,1.341-11.4.408Zm-78.546.563.175-1.341,11.385.525-.175,1.321Zm77.711-3.3,11.21-1.36.466,1.3-11.21,1.36Zm-76.934-.389.505-1.3,11.171,1.457-.505,1.282ZM143.394,93.9l10.88-2.215.777,1.224L144.21,95.185ZM69.569,92.524l.816-1.2,10.782,2.37-.8,1.2Zm71.649-1.069,10.238-3.186,1.03,1.127-10.238,3.167ZM72.153,89.143l1.069-1.107L83.382,91.3l-.991,1.185Zm66.385.117,9.442-4.022,1.243.971L139.8,90.251Zm-63-3.322,1.263-.971,9.364,4.119-1.282.952Zm59.779,1.341,8.432-4.818,1.4.835-8.354,4.8ZM79.671,83.043l1.418-.816L89.424,87.1l-1.418.8Zm51.969,2.506,7.227-5.479,1.5.661-7.227,5.479ZM84.509,80.517l1.515-.661,7.111,5.556-1.515.641ZM127.6,84.15l5.828-6.061,1.554.486-5.828,6.081Zm-37.67-5.828,1.554-.486,5.712,6.12-1.554.486ZM123.19,83.1l4.294-6.547,1.574.35-4.294,6.528ZM95.835,76.787l1.554-.35L101.547,83l-1.574.33Zm22.886,5.6,2.642-6.839,1.574.194L120.295,82.6Zm-16.669-6.722,1.574-.175,2.487,6.858-1.554.194Zm11.968,6.392L114.952,75h1.574l-.952,7.013ZM108.483,75.1h1.554l.8,7.013H109.26Z" transform="translate(63.317 70.659)" fill="#fffeff"/>
          <path id="Path_12456" data-name="Path 12456" d="M106.886,96.616l-2.331-3.963,4.332-3.342-7.227.058-4.2-3.419-2.137,3.983L88.41,91.176,94.316,93.6l-.1,4.177,5.809-2.506Z" transform="translate(83.351 80.982)" fill="#fffeff"/>
          <path id="Path_12457" data-name="Path 12457" d="M102.675,83.843,83.519,94.9,78.41,91.944,97.566,80.89Z" transform="translate(73.923 76.212)" fill="#fffeff"/>
          <path id="Path_12458" data-name="Path 12458" d="M14.041,86.951l112.681,65.044V119.628c.35-3.711-5.168-10.452-8.723-10.821-2.564-.272-4.022,1.943-6.761,1.2-3.4-.952-6.644-5.828-8.7-9.889S98.2,91.3,94.763,88.893a5.653,5.653,0,0,0-7.868.525c-1.671,1.943-2.584,4.624-4.488,6.217s-5.362,1.671-8.451-1.282a16.008,16.008,0,0,1-4.468-10.394c-.194-3.3.311-6.295-.7-9.889S64.4,65.91,61.5,65.561c-3.342-.408-3.38,4.8-6.547,4.818-2.04,0-4.624-2.118-6.9-2.856-4.352-1.379-6.489,2.545-10.588,1.943S28.922,64.8,24.823,63.113c-5.945-2.39-10.141.933-11.326,6.159S12.817,80.384,14.041,86.951Z" transform="translate(12.09 58.708)" fill="#e7ffa5"/>
          <path id="Path_12459" data-name="Path 12459" d="M30.6,31.671a17.116,17.116,0,0,0-2.972,8.859A5.381,5.381,0,0,0,30.6,45.97l-.758,1.185c-4.352-1.943-4.352-8.937,0-15.795Z" transform="translate(25.059 29.516)" fill="#0e8411"/>
          <path id="Path_12460" data-name="Path 12460" d="M31.149,32.051c-2.972,4.682-2.972,9.52,0,10.763L30.41,44c-3.38-1.438-3.38-6.936,0-12.259Z" transform="translate(26.28 29.875)" fill="#0e8411"/>
          <path id="Path_12461" data-name="Path 12461" d="M31.725,32.431a8.548,8.548,0,0,0-1.5,4.449,2.681,2.681,0,0,0,1.5,2.759l-.758,1.185a3.3,3.3,0,0,1-1.787-3.3,10.53,10.53,0,0,1,1.787-5.381Z" transform="translate(27.491 30.252)" fill="#0e8411"/>
          <path id="Path_12462" data-name="Path 12462" d="M35.705,31.5c1.088.466,1.088,2.254,0,4s-2.895,2.778-4,2.312-1.107-2.254,0-4S34.6,31.038,35.705,31.5Z" transform="translate(29.106 29.547)" fill="#0e8411"/>
          <path id="Path_12463" data-name="Path 12463" d="M76.307,73.358a21.642,21.642,0,0,0-7.149-7.091A8.218,8.218,0,0,0,62.008,65.1l-.758-1.166c4.371-1.846,11.443,2.234,15.795,9.112Z" transform="translate(57.745 59.809)" fill="#0e8411"/>
          <path id="Path_12464" data-name="Path 12464" d="M73.711,72.751c-2.972-4.682-7.771-7.48-10.763-6.217l-.738-1.166c3.38-1.438,8.859,1.729,12.239,7.072Z" transform="translate(58.65 61.251)" fill="#0e8411"/>
          <path id="Path_12465" data-name="Path 12465" d="M71.057,72.044a10.88,10.88,0,0,0-3.594-3.575,4.158,4.158,0,0,0-3.594-.583L63.13,66.7a4.993,4.993,0,0,1,4.332.719,13.056,13.056,0,0,1,4.332,4.294Z" transform="translate(59.517 62.638)" fill="#0e8411"/>
          <path id="Path_12466" data-name="Path 12466" d="M68.735,74.8c-1.107.466-2.895-.563-4-2.312s-1.107-3.516,0-3.886,2.895.563,4,2.292S69.92,74.33,68.735,74.8Z" transform="translate(60.246 64.548)" fill="#0e8411"/>
          <path id="Path_12467" data-name="Path 12467" d="M129.28,91.927A20.749,20.749,0,0,0,139.4,89.5a7.111,7.111,0,0,0,4.2-5.828h1.476c0,5.032-7.091,9.131-15.795,9.131Z" transform="translate(121.882 78.832)" fill="#0e8411"/>
          <path id="Path_12468" data-name="Path 12468" d="M129.28,89.877c5.925,0,10.763-2.778,10.763-6.217h1.5c0,3.886-5.5,7.072-12.259,7.072Z" transform="translate(121.882 78.823)" fill="#0e8411"/>
          <path id="Path_12469" data-name="Path 12469" d="M129.28,87.818a10.433,10.433,0,0,0,5.09-1.2,3.594,3.594,0,0,0,2.137-2.953H138a4.352,4.352,0,0,1-2.545,3.555,12.473,12.473,0,0,1-6.139,1.457Z" transform="translate(121.882 78.823)" fill="#0e8411"/>
          <path id="Path_12470" data-name="Path 12470" d="M127.22,84.772c0-1.263,1.807-2.292,4-2.292s4,1.03,4,2.292-1.787,2.312-4,2.312S127.22,86.055,127.22,84.772Z" transform="translate(119.94 77.711)" fill="#0e8411"/>
        </g>
      </g>
    </g>
    <g id="Asset_52" data-name="Asset 52" transform="translate(120 1235.548)">
      <g id="Layer_2-3" data-name="Layer 2" transform="translate(0 0)">
        <g id="Layer_1-3" data-name="Layer 1">
          <path id="Path_12210" data-name="Path 12210" d="M130.008,5.659l-7.649,10.5V91.231a12.4,12.4,0,0,1-6.024,9.4L25.5,153.076l-5.147,3.091-10.135,13.9L1.459,165a3.283,3.283,0,0,1-1.45-3.123V74.085a12.382,12.382,0,0,1,5.96-9.418L116.336.926c1.992-1.163,3.745-1.2,4.781-.319Z" transform="translate(0.014 0.004)" fill="#0e8411"/>
          <path id="Path_12211" data-name="Path 12211" d="M25.6,125.29v.191l-5.243,3.091-10.135,13.9L1.459,137.4a3.283,3.283,0,0,1-1.45-3.123V46.49l8.653,5.593L20.724,62.425,19.131,83.316Z" transform="translate(0.014 27.598)" fill="#014803"/>
          <path id="Path_12212" data-name="Path 12212" d="M121.614,4.2,11.948,67.515C8.346,69.6,5.43,74.192,5.43,77.778v86.958c0,3.6,2.916,4.781,6.518,2.757L121.614,104.2c3.6-2.072,6.518-6.677,6.518-10.278V6.962C128.131,3.36,125.215,2.133,121.614,4.2Z" transform="translate(3.246 1.904)" fill="#c3f53c"/>
          <path id="Path_12213" data-name="Path 12213" d="M7.39,161.423V74.815a7.362,7.362,0,0,1,3.554-5.593L120.291,6.055c1.96-1.131,3.538-.462,3.538,1.5V94.208a7.33,7.33,0,0,1-3.538,5.577L10.944,162.921C8.984,164.052,7.39,163.383,7.39,161.423Z" transform="translate(4.409 3.273)" fill="#fffeff"/>
          <path id="Path_12214" data-name="Path 12214" d="M90.665,42.563,41.855,70.832l-3.745-.685-3.793,4.924L25.41,80.234V60.363L85.55,25.64l5.115,2.167Z" transform="translate(15.104 15.224)" fill="#ffb037"/>
          <path id="Path_12215" data-name="Path 12215" d="M89.626,56.742,40.816,84.868l-3.745-.685-3.793,5L30.586,90.78,27.16,89.33V72.837L33.279,69.3l3.729-4.876,3.761.558L86.439,38.64l3.187,1.339v2.5l-3.92,6.661,3.92,2.342Z" transform="translate(16.143 22.939)" fill="#84290e"/>
          <path id="Path_12216" data-name="Path 12216" d="M90.665,70.159,25.41,107.829V87.958l8.908-5.179L38.047,78l3.761.542L87.478,52.12l3.187,1.339Z" transform="translate(15.104 30.94)" fill="#0e8411"/>
          <path id="Path_12217" data-name="Path 12217" d="M36.236,62.193l-16.8,9.7V50.035l16.8-9.7Z" transform="translate(11.561 23.942)" fill="#0e8411"/>
          <path id="Path_12218" data-name="Path 12218" d="M59.151,107.353l-9.689-5.593-9.832,5.673.239.143,9.45,5.45Z" transform="translate(23.544 60.402)" fill="#0e8411"/>
          <path id="Path_12219" data-name="Path 12219" d="M49.77,114.305l-10.9-6.294,1.45-2.518,9.45,5.45L59.6,105.27v3.362Z" transform="translate(23.093 62.486)" fill="#c3f53c"/>
          <path id="Path_12220" data-name="Path 12220" d="M51.366,139,20.85,156.417v6.31L51.366,145.31Z" transform="translate(12.398 82.505)" fill="#c3f53c"/>
          <path id="Path_12221" data-name="Path 12221" d="M28.423,154.3,8.09,142.56v6.31l20.333,11.744Z" transform="translate(4.824 84.618)" fill="#014803"/>
          <path id="Path_12222" data-name="Path 12222" d="M38.606,131.63,8.09,149.047l20.333,11.744,30.516-17.417Z" transform="translate(4.824 78.131)" fill="#0e8411"/>
          <path id="Path_12223" data-name="Path 12223" d="M27.9,123.009a6.247,6.247,0,0,1,1.9-.749l-1.753.988L26.1,124.363a9.689,9.689,0,0,1,1.8-1.355Z" transform="translate(15.514 72.569)" fill="url(#linear-gradient-12)"/>
          <path id="Path_12224" data-name="Path 12224" d="M34.841,125.392a11.473,11.473,0,0,1-5.545,8.764c-3.06,1.769-5.545.717-5.545-2.342A11.553,11.553,0,0,1,29.3,123.05C32.371,121.281,34.841,122.333,34.841,125.392Z" transform="translate(14.119 72.528)" fill="url(#linear-gradient-13)"/>
          <path id="Path_12225" data-name="Path 12225" d="M26.646,135.4a3,3,0,0,1-1.594-.4,3.378,3.378,0,0,1-1.5-3.091,11.84,11.84,0,0,1,5.689-9,4.557,4.557,0,0,1,4.478-.51,3.346,3.346,0,0,1,1.5,3.091,11.808,11.808,0,0,1-5.689,9,5.928,5.928,0,0,1-2.884.908Zm5.545-12.748a5.418,5.418,0,0,0-2.629.813,11.266,11.266,0,0,0-5.418,8.525,2.837,2.837,0,0,0,1.227,2.613,4.016,4.016,0,0,0,3.9-.51,11.155,11.155,0,0,0,5.418-8.525,2.8,2.8,0,0,0-1.211-2.6,2.47,2.47,0,0,0-1.243-.4Z" transform="translate(13.996 72.433)" fill="url(#linear-gradient-14)"/>
          <path id="Path_12226" data-name="Path 12226" d="M42.839,122.5l-10.055-5.832c-1.864-1.323-4.781-1.179-8.063.717a22.2,22.2,0,0,0-7.968,8.462,19.727,19.727,0,0,0-1.594,3.872,13.465,13.465,0,0,0-.59,3.777v24.923l10.1,5.912,20.365-11.68S40.991,121.238,42.839,122.5Z" transform="translate(8.67 68.732)" fill="#0e8411"/>
          <path id="Path_12227" data-name="Path 12227" d="M54.021,104.929,33.465,132.863,22.31,126.489l15.76-23.154a10.406,10.406,0,0,1,3.394-3.378A4.223,4.223,0,0,1,43.52,99.3a1.769,1.769,0,0,1,.367,0h.191l.159.1Z" transform="translate(13.264 58.939)" fill="#0e8411"/>
          <path id="Path_12228" data-name="Path 12228" d="M43.719,96.676,55.957,93.76v3l-9.944,2.358L42.779,110l-2.789-.829Z" transform="translate(23.758 55.654)" fill="#c3f53c"/>
          <path id="Path_12229" data-name="Path 12229" d="M59.584,95.843,49.847,90.25,37.609,93.166,33.88,105.659l9.736,5.593,3.729-12.493Z" transform="translate(20.131 53.571)" fill="#c3f53c"/>
          <path id="Path_12230" data-name="Path 12230" d="M53.075,104.463c0-1.753-.988-1.753-1.323-1.753a4.128,4.128,0,0,0-2.04.669,10.23,10.23,0,0,0-3.187,3.091l-.175.271L24.87,138.23l7.808,3.442,18.565-32.508A8.557,8.557,0,0,0,53.075,104.463Z" transform="translate(14.784 60.966)" fill="#c3f53c"/>
          <path id="Path_12231" data-name="Path 12231" d="M34.857,125.392a11.489,11.489,0,0,1-5.561,8.764c-3.06,1.769-5.545.717-5.545-2.342A11.521,11.521,0,0,1,29.3,123.05C32.371,121.281,34.857,122.333,34.857,125.392Z" transform="translate(14.119 72.528)" fill="#0e8411"/>
          <path id="Path_12232" data-name="Path 12232" d="M39.112,120.326c-1.88-1.323-4.781-1.2-8.079.7a22.309,22.309,0,0,0-7.968,8.493,16.557,16.557,0,0,0-2.215,7.633v24.955l20.365-11.681V125.362A5.88,5.88,0,0,0,39.112,120.326Zm-8.1,15.409c-3.06,1.769-5.545.717-5.545-2.342a11.155,11.155,0,0,1,3.745-7.41,9.687,9.687,0,0,1,1.8-1.355,6.247,6.247,0,0,1,1.9-.749,2.8,2.8,0,0,1,3.649,3.091,11.473,11.473,0,0,1-5.545,8.812Z" transform="translate(12.398 70.902)" fill="#c3f53c"/>
          <path id="Path_12233" data-name="Path 12233" d="M37.9,111.024a2.3,2.3,0,0,1,0-.382,9.45,9.45,0,0,1,4.478-6.884,3.936,3.936,0,0,1,1.434-.542l.717-.1.1.717a2.3,2.3,0,0,1,0,.382,9.418,9.418,0,0,1-4.462,6.868,3.761,3.761,0,0,1-1.45.558l-.717.1Z" transform="translate(22.514 61.209)" fill="#0e8411"/>
          <path id="Path_12234" data-name="Path 12234" d="M37.609,92.08l9.736,5.593-3.729,12.493-9.736-5.593Z" transform="translate(20.131 54.657)" fill="#0e8411"/>
          <g id="Group_546" data-name="Group 546" transform="translate(99.443 254.778)" opacity="0.1">
            <ellipse id="Ellipse_32" data-name="Ellipse 32" cx="21.146" cy="12.206" rx="21.146" ry="12.206" fill="#607080"/>
          </g>
          <path id="Path_12235" data-name="Path 12235" d="M48.3,73.384,44.248,75.3l-1.594.765a11.266,11.266,0,0,0-1.928-4.781c-1.4-1.594-2.55-7.968-2.088-9.991s1.1-5.721,1.944-6.1a1.706,1.706,0,0,1,.43-.112,7.315,7.315,0,0,1,2.215.112s2.088,3.522,2.295,3.968.43,4.988.494,6.151v.112l.3-3.84s.51-1.2.829-1.084.956,2.8.956,2.8a18.134,18.134,0,0,1,0,4.685A24.205,24.205,0,0,0,48.3,73.384Z" transform="translate(22.894 32.671)" fill="#fec9c9"/>
          <g id="Group_547" data-name="Group 547" transform="translate(61.429 87.745)" opacity="0.15">
            <path id="Path_12236" data-name="Path 12236" d="M44.248,75.282l-1.594.765a11.266,11.266,0,0,0-1.928-4.781c-1.4-1.594-2.55-7.968-2.088-9.991s1.1-5.721,1.944-6.1a1.705,1.705,0,0,1,.43-.112,19.983,19.983,0,0,0-.829,8.318C40.742,67.713,43.117,71.33,44.248,75.282Z" transform="translate(-38.535 -55.06)" fill="#cf3838"/>
          </g>
          <path id="Path_12237" data-name="Path 12237" d="M43.686,64.845l-.446-1.5.3-3.84s.51-1.2.829-1.084C44.451,58.423,44.69,63.713,43.686,64.845Z" transform="translate(25.687 34.676)" fill="url(#linear-gradient-15)"/>
          <path id="Path_12238" data-name="Path 12238" d="M94.92,172.407c.175,1.179-2.964,2.39-5.259,2.454a4.205,4.205,0,0,1-.781,0c-2.263-.223-15.935-6.661-16.652-7.7s0-2.964,0-2.964l13.7,2.167,2.852.3,4.494.494S94.681,171.084,94.92,172.407Z" transform="translate(42.703 97.462)" fill="#110812"/>
          <path id="Path_12239" data-name="Path 12239" d="M89.662,174.861a4.205,4.205,0,0,1-.781,0c-2.263-.223-15.935-6.661-16.652-7.7s0-2.964,0-2.964l13.7,2.167,2.852.3A36.65,36.65,0,0,0,89.662,174.861Z" transform="translate(42.703 97.462)" fill="url(#linear-gradient-16)"/>
          <path id="Path_12240" data-name="Path 12240" d="M85.267,176.87a4.048,4.048,0,0,1-2.916,1.5,10.884,10.884,0,0,1-4.366-.3,36.108,36.108,0,0,1-12.143-5.657c-.653-.733-1.291-5.418-.494-6.6s5.386,3.49,10.31,3.187l2.709.128,4.781.223A29.767,29.767,0,0,1,85.267,176.87Z" transform="translate(38.588 98.304)" fill="#110812"/>
          <path id="Path_12241" data-name="Path 12241" d="M82.351,178.368a10.885,10.885,0,0,1-4.366-.3,36.109,36.109,0,0,1-12.143-5.657c-.653-.733-1.291-5.418-.494-6.6s5.386,3.49,10.31,3.187l2.709.128.112,2.327a30.645,30.645,0,0,0,3.872,6.916Z" transform="translate(38.588 98.304)" fill="url(#linear-gradient-17)"/>
          <path id="Path_12242" data-name="Path 12242" d="M99.073,110.628a37.926,37.926,0,0,1-9.8,21.7l-2.821-5.306-1.4-2.661s6.374-8.94,6.135-13.019S86.213,93.53,86.213,93.53l1.02-8.557,1.052-8.732S94.978,82.55,99.073,110.628Z" transform="translate(50.502 45.256)" fill="#bce54b"/>
          <path id="Path_12243" data-name="Path 12243" d="M86.452,123.773l-1.4-2.661s6.374-8.94,6.135-13.019-4.972-17.816-4.972-17.816l1.02-8.557c1.976,5.992,6.374,19.3,6.661,22.548C94.324,108.172,91.9,114.61,86.452,123.773Z" transform="translate(50.502 48.508)" fill="url(#linear-gradient-18)"/>
          <path id="Path_12244" data-name="Path 12244" d="M92.666,149.351c-.494,7.171-3.474,22.4-3.187,26.723a47.708,47.708,0,0,1,0,7.792A1.833,1.833,0,0,1,88.4,185.46a5.864,5.864,0,0,1-3.506.574,5.019,5.019,0,0,1-1.769-.574,2.836,2.836,0,0,1-1.052-1.88s1.721-32.6-3.649-45.861l3.075-.7h.3l7.713-1.737a30.723,30.723,0,0,1,3.155,14.071Z" transform="translate(46.567 80.297)" fill="#fec9c9"/>
          <g id="Group_548" data-name="Group 548" transform="translate(124.987 217.25)" opacity="0.15">
            <path id="Path_12245" data-name="Path 12245" d="M84.89,185.347a5.019,5.019,0,0,1-1.769-.574,2.837,2.837,0,0,1-1.052-1.88s1.721-32.6-3.649-45.861l3.075-.7a177.529,177.529,0,0,1,3.267,24.126C85.145,168.615,85.017,179.275,84.89,185.347Z" transform="translate(-78.42 -136.33)" fill="#cf3838"/>
          </g>
          <path id="Path_12246" data-name="Path 12246" d="M83.62,151.573c-.478,7.171-3.474,22.4-3.187,26.723a47.709,47.709,0,0,1,0,7.792,1.833,1.833,0,0,1-1.084,1.594,5.9,5.9,0,0,1-3.522.574,5.051,5.051,0,0,1-1.753-.574,2.757,2.757,0,0,1-1.052-1.88s1.737-32.667-3.633-45.893l3.076-.7h.3l7.713-1.737a30.6,30.6,0,0,1,3.139,14.1Z" transform="translate(41.207 81.597)" fill="#fec9c9"/>
          <g id="Group_549" data-name="Group 549" transform="translate(110.597 220.804)" opacity="0.15">
            <path id="Path_12247" data-name="Path 12247" d="M75.844,187.545a5.051,5.051,0,0,1-1.753-.574,2.757,2.757,0,0,1-1.052-1.88s1.721-32.6-3.649-45.83l3.076-.7a177.594,177.594,0,0,1,3.267,24.11C76.115,170.813,75.987,181.473,75.844,187.545Z" transform="translate(-69.39 -138.56)" fill="#cf3838"/>
          </g>
          <path id="Path_12248" data-name="Path 12248" d="M102.947,148.233A182.44,182.44,0,0,0,101,176.725s-16.079,11.234-26.118,8.716a8.988,8.988,0,0,1-4.191-2.295s-2.183-20.987-3-27.6-.127-20.891,3.044-28.126-2.056-15.76-2.789-15.935a10.485,10.485,0,0,1-3.187-6.247,14.34,14.34,0,0,1-.287-2.566,12.97,12.97,0,0,1,0-1.593,93.17,93.17,0,0,1,1.482-10.533s25.4-15.935,34.532-14.2c0,0,3.7,1.785,1.976,15.617s-7.649,13.306-2.47,28.11S105.162,135.772,102.947,148.233Z" transform="translate(38.278 45.242)" fill="#c3f53c"/>
          <path id="Path_12249" data-name="Path 12249" d="M86.961,107.2a4.382,4.382,0,0,1-3.7,4.781,11.585,11.585,0,0,1-4.127,0,27.68,27.68,0,0,1-8.653-3.187c-5.641-3.187-20.078-12.286-20.078-12.286s-8.669-19.122-9.88-22.867a2.916,2.916,0,0,1-.335-1.482,8.175,8.175,0,0,1,2.088-4.924,8.493,8.493,0,0,1,2.247-1.912c1.96-1.131,3.6-.8,4.143.669,0,0,5.243,16.987,8.86,22.437L80.38,97.256a10.151,10.151,0,0,1,6.581,9.944Z" transform="translate(23.875 38.374)" fill="#bce54b"/>
          <path id="Path_12250" data-name="Path 12250" d="M67.2,64.61s.175,15.107,3.378,18.947S72.857,68.02,72.857,68.02Z" transform="translate(39.907 38.353)" fill="#fec9c9"/>
          <g id="Group_550" data-name="Group 550" transform="translate(107.107 102.963)" opacity="0.15">
            <path id="Path_12251" data-name="Path 12251" d="M67.2,64.61s.175,15.107,3.378,18.947S72.857,68.02,72.857,68.02Z" transform="translate(-67.2 -64.61)" fill="#cf3838"/>
          </g>
          <path id="Path_12252" data-name="Path 12252" d="M88.629,96.638c-2.486,2.008-10.517.829-12.908-.462a1.481,1.481,0,0,0-.3-.175c-2.1-.574-7.043,2.5-7.043,2.5-1.339-4.143,2.008-18.8,1.163-21.4A39.121,39.121,0,0,1,67.1,65.5c0-3.187,4.032-4.86,6.215-5.514a19.349,19.349,0,0,0,1.9-.717c.86-.335,3-.749,8.238-.255l1.2.112c9.163,1,8.557,10.565,8.175,16.047-.159,1.992-.175,4.159-.159,6.151a33.75,33.75,0,0,0,1.594,9.051,6.682,6.682,0,0,1,.207.892C94.652,93.116,91.21,94.55,88.629,96.638Z" transform="translate(39.848 34.897)" fill="#110812"/>
          <g id="Group_551" data-name="Group 551" transform="translate(106.948 93.684)" opacity="0.25">
            <path id="Path_12253" data-name="Path 12253" d="M78.765,69.962c1.594,8.079-1.594,21.082-3.044,26.213-.112,0-.191-.159-.3-.175-2.374-.542-7.043,2.5-7.043,2.5-1.339-4.143,2.008-18.8,1.163-21.4A39.121,39.121,0,0,1,67.1,65.5c0-3.187,4.032-4.86,6.215-5.514a19.349,19.349,0,0,0,1.9-.717c.86-.335,3-.749,8.238-.255C80.757,60.5,77.474,63.636,78.765,69.962Z" transform="translate(-67.1 -58.787)" fill="#bd221e"/>
          </g>
          <path id="Path_12254" data-name="Path 12254" d="M89.276,191.3A8.988,8.988,0,0,1,85.085,189s-2.183-20.987-3-27.6-.127-20.891,3.044-28.126-2.056-15.76-2.789-15.935a10.485,10.485,0,0,1-3.187-6.247,27.68,27.68,0,0,1-8.653-3.187c-5.641-3.187-20.078-12.286-20.078-12.286S41.757,76.5,40.546,72.756a2.916,2.916,0,0,1-.335-1.482A8.175,8.175,0,0,1,42.3,66.35L52.736,93.169l26.134,15.3,4.414,2.582.3.175s4.159,6.374,4.781,9.338,2.279,7.314-1.594,27.09C83.539,163.491,87.586,183.92,89.276,191.3Z" transform="translate(23.887 39.386)" fill="url(#linear-gradient-19)"/>
        </g>
      </g>
    </g>
  </g>
</svg>
