<svg xmlns="http://www.w3.org/2000/svg" width="188.23" height="60" viewBox="0 0 188.23 60">
  <g id="Group_13" data-name="Group 13" transform="translate(-82 -42)">
    <rect id="Rectangle_16" data-name="Rectangle 16" width="38" height="15" rx="4" transform="translate(232 87)" fill="#dd8233"/>
    <g id="Layer_2" data-name="Layer 2" transform="translate(81.997 41.997)">
      <g id="Layer_1" data-name="Layer 1" transform="translate(0.003 0.003)">
        <path id="Path_1" data-name="Path 1" d="M25.121,18.894a7.824,7.824,0,0,0,9.518,8.7,7.491,7.491,0,0,0,5.976-7.018,14.379,14.379,0,0,1,2.559-7.98,1.98,1.98,0,0,0,1.654-1.779c4-4.085,9.348-4.259,16.187-.312,0-3.075.08-5.96-.031-8.839-.064-1.7,1.029-1.579,2-1.4s2.745-.981,2.752,1.241c.019,6.35.161,12.707-.084,19.049-.242,6.223-4.014,9.855-9.7,11.763-3.673.252-7.223.087-10.308-2.367-1.29-1.026-1.977-1.911-.726-3.446A15.054,15.054,0,0,0,46.3,23.9c1.679,2.3,3.746,3.839,6.651,3.893a7.742,7.742,0,0,0,.623-15.472,7.569,7.569,0,0,0-8.132,7.4c-.156,4.733-2.042,8.41-6.1,10.9A12.146,12.146,0,0,1,24.7,29.385c-.716-.626-1.4-1.291-2.1-1.937-2.049-1.561-2.125-3.985-2.711-6.185-.109-2.423-.462-4.661-2.471-6.455a7.137,7.137,0,0,0-9.66-.218,7.019,7.019,0,0,0-.923,9.921A7.27,7.27,0,0,0,16.6,26c.846-.592,1.477-1.417,2.311-2.014,2.275.327,2.181,2.382,2.835,3.888-1.593,2.976-4.41,3.979-7.463,4.418a31.327,31.327,0,0,1-4.668,0C2.57,29.682-.972,24.2.236,17.78A12.783,12.783,0,0,1,9.871,7.806,12.4,12.4,0,0,1,23.1,13.366a3.948,3.948,0,0,0,.361.472C24.9,15.3,24.781,17.161,25.121,18.894Z" transform="translate(-0.003 -0.106)" fill="#3e823e"/>
        <path id="Path_2" data-name="Path 2" d="M1218.4,88.129l-.371-.481a5.08,5.08,0,0,1-1.187-3.016c-.145-1.838-.309-3.675-.431-5.516a5.789,5.789,0,0,0-5.933-5.778,5.725,5.725,0,0,0-5.689,5.981c-.059,4.034-.089,8.068-.011,12.1.031,1.356-.413,2.01-1.714,1.729-1.13-.247-3.094,1.011-3.037-1.666.087-4.1-.085-8.21.022-12.31A10.609,10.609,0,0,1,1211.1,68.7c5.5.109,10.191,5.143,10.091,11.075-.052,3.148.624,5.793,3.326,7.692A7.869,7.869,0,0,0,1235.036,86a7.739,7.739,0,0,0-.182-9.968c-3.074-3.184-7.505-3.611-10.685-1.012-.632.518-1.213,1.1-1.908,1.732-.626-1.2-.836-2.561-1.659-3.646-.782-1.032.269-1.47.842-1.924a12.477,12.477,0,0,1,16.447,1.211,11.867,11.867,0,0,1,3.57,8.646c-.033,3.284.025,6.568-.028,9.849a12.533,12.533,0,0,1-8.759,11.448A12.927,12.927,0,0,1,1219.045,98c-.6-.794-.763-1.382.321-1.853a3.816,3.816,0,0,0,1.038-.654c1.164-1.043,1.976-.956,3.125.289a7.114,7.114,0,0,0,8.44,1.793c2.962-1.2,4.273-3.573,4.681-7.052a12.824,12.824,0,0,1-13.192,1.984A7.536,7.536,0,0,1,1218.4,88.129Z" transform="translate(-1069.176 -61.161)" fill="#3e833e"/>
        <path id="Path_3" data-name="Path 3" d="M625.947,93.279a9.439,9.439,0,0,1-4.47-3.729c-.654-1.2-.782-2.172.981-2.485,1.383-.245,2.739-1.259,3.7.9.521,1.171,2.631,1.012,3.622,0a2.17,2.17,0,0,0-.318-3.528,46.643,46.643,0,0,0-4.708-2.459c-3.053-1.542-4.133-3.389-3.915-6.725A7.185,7.185,0,0,1,633.3,70.872a10.441,10.441,0,0,1,1.864,3.809c1.4,3.774,4.24,12.32,4.731,12.3.545-.023,3.993-9.954,5.56-13.993l.455.011c0,2.411-.16,4.834.035,7.228.339,4.167-1.008,7.9-2.508,11.642-.327.819-.7,1.267-1.607,1.165a9.4,9.4,0,0,0-1.023-.011c-4.006,0-4.006,0-5.443-3.834-.395-.447-.051-.892.007-1.337.452-3.536-.639-6.353-3.816-8.2-.872-.953-1-2.206-1.358-3.366a3.746,3.746,0,0,0-1.018-1.962,1.646,1.646,0,0,0-2.526.181,1.733,1.733,0,0,0,.252,2.693,24.072,24.072,0,0,0,4.3,2.328,7.254,7.254,0,0,1,4.211,7.436,3.036,3.036,0,0,1-.859,2.187,8.359,8.359,0,0,1-4.529,4.11Z" transform="translate(-553.127 -61.058)" fill="#3d833e"/>
        <path id="Path_4" data-name="Path 4" d="M923.643,30.72V26.614c.024-7.991.164-15.984.007-23.972C923.6-.033,925.24.865,926.541.655c1.766-.279,2.019.615,1.99,2.1-.084,4.235-.06,8.469-.06,12.706a6.507,6.507,0,0,0,.5,3.271c2.368-2.557,4.719-4.742,6.636-7.255,2.432-3.189,5.541-3.542,9.215-2.885a7.653,7.653,0,0,1-2.126,2.547c-2.733,2.77-5.459,5.551-8.286,8.217-.981.92-.826,1.429.017,2.27,3.481,3.463,6.906,6.978,10.323,10.451a7.217,7.217,0,0,1-7.936-1.549c-1.872-1.893-3.758-3.771-5.69-5.6-.383-.363-.721-1.188-1.449-.763a2.016,2.016,0,0,0-1.193,1.785c.019,1.23.039,2.461.01,3.689-.071,3.034.638,2.782-3.018,2.923C923.959,32.619,923.564,32.016,923.643,30.72Z" transform="translate(-822.934 -0.538)" fill="#3e823e"/>
        <path id="Path_5" data-name="Path 5" d="M1600.657,93.842a6.4,6.4,0,0,1-5.057-2.269c-.9-.9-1.826-2.136-1.554-3.176.279-1.062,1.936-.9,3.028-1.194a1.174,1.174,0,0,1,1.635.683,2.266,2.266,0,0,0,2.726,1.293,2.386,2.386,0,0,0,2.021-2.055,2.58,2.58,0,0,0-1.755-2.717c-1.526-.746-3.11-1.389-4.619-2.172-2.717-1.412-3.925-4.435-3.176-7.718a7.252,7.252,0,0,1,6.9-5.4,7.076,7.076,0,0,1,6.948,4.743c.2.728.1,1.255-.707,1.349-1.542.18-3.154,1.714-4.505-.763-.641-1.176-2.4-.967-3.417.141a2.247,2.247,0,0,0,.188,3.451c1.281,1.2,3.009,1.572,4.524,2.335,3.63,1.829,4.957,4.388,4.059,8.13A6.935,6.935,0,0,1,1600.657,93.842Z" transform="translate(-1419.935 -61.58)" fill="#3d833e"/>
        <path id="Path_6" data-name="Path 6" d="M1144.27,83.759c0,3.418.036,6.387.036,9.947,0,2.061-.919,2.155-2.262,2.155-1.156,0-2.427.072-2.388-2.155.119-6.9-.048-13.416-.154-20.321-.027-1.894,1.072-1.719,2.223-1.666,1.2.055,2.674-.436,2.582,1.784C1144.164,76.917,1144.269,80.336,1144.27,83.759Z" transform="translate(-1015.25 -63.874)" fill="#468340"/>
        <path id="Path_7" data-name="Path 7" d="M1141.429.18c2.261-.679,2.239.705,2.371,2.43.2,2.691-1.574,2.019-3.042,2.2-2.181.261-1.745-1.207-1.87-2.466C1138.693.379,1139.5-.3,1141.429.18Z" transform="translate(-1014.695 -0.003)" fill="#508748"/>
        <path id="Path_8" data-name="Path 8" d="M862.719,2.642C862.541,1.468,862.61.278,864.6.635c1.208.218,2.968-.724,2.789,1.877-.124,1.8-.028,3.105-2.5,2.822C862.735,5.087,862.713,5.281,862.719,2.642Z" transform="translate(-768.603 -0.508)" fill="#40843f"/>
        <path id="Path_9" data-name="Path 9" d="M1353.132,248.78c-1.488.066-3.048,0-4.486,0-.515,0-.68-.423-.68-.814v-4.723C1348.842,243.594,1353.132,248.78,1353.132,248.78Z" transform="translate(-1200.96 -216.792)" fill="#558147"/>
        <path id="Path_10" data-name="Path 10" d="M216.277,13.737c-.8-1.28-.472-1.955.609-2.907a11.693,11.693,0,0,1,13.886-1.35c.636.374,1.266.763,2.242,1.346,0-3.033.156-5.8-.045-8.54-.193-2.635,1.626-1.615,2.813-1.813,1.547-.261,2.142.415,1.923,1.931a5.566,5.566,0,0,0-.02,1.228c.254,3.134.062,6.007-2.9,8.1-1.445,1.02-1.835,2.983-2.631,4.579-5.291-4.943-10.188-4.986-13.468-.16-.95.613-1.165-.229-1.476-.778S216.562,14.29,216.277,13.737Z" transform="translate(-192.302 -0.374)" fill="#468441"/>
        <path id="Path_11" data-name="Path 11" d="M862.791,84.148c0-3.551.109-7.106-.043-10.652-.081-1.962,1.122-1.635,2.234-1.593s2.478-.518,2.451,1.616c-.1,6.965-.072,13.932-.012,20.9.022,2.508-1.792,1.357-2.887,1.574-1.2.241-1.831-.132-1.78-1.6C862.872,90.98,862.792,87.562,862.791,84.148Z" transform="translate(-768.683 -64.023)" fill="#3e833e"/>
        <path id="Path_12" data-name="Path 12" d="M397.624,98.27c.1,1.2.2,2.4-1.654,1.779A5.694,5.694,0,0,1,397.624,98.27Z" transform="translate(-352.799 -87.556)" fill="#468441"/>
      </g>
    </g>
    <text id="BETA" transform="translate(232 87)" fill="#fff" font-size="10" font-family="Poppins-Medium, Poppins" font-weight="500"><tspan x="6.925" y="11">BETA</tspan></text>
  </g>
</svg>
