<svg xmlns="http://www.w3.org/2000/svg" width="18.43" height="21.271" viewBox="0 0 18.43 21.271">
  <g id="logout" transform="translate(0 0)">
    <path id="Path_11612" data-name="Path 11612" d="M0,19.374l7.206,1.9V0L0,1.9Zm.623-17L6.583.808V20.462L.623,18.894Zm0,0" fill="#fff"/>
    <path id="Path_11614" data-name="Path 11614" d="M196.325,55.425h.623V49.332h-3.5v.623h2.877Zm0,0" transform="translate(-185.412 -47.283)" fill="#fff"/>
    <path id="Path_11615" data-name="Path 11615" d="M196.325,338.416h-2.877v.623h3.5V333.68h-.623Zm0,0" transform="translate(-185.412 -319.818)" fill="#fff"/>
    <path id="Path_11616" data-name="Path 11616" d="M203.843,167.392l-5.558-4.224v2.215h-4.835v.623h5.458v-1.582l3.905,2.968-3.905,2.968v-1.582h-5.458v.623h4.835v2.215Zm0,0" transform="translate(-185.412 -156.39)" fill="#fff"/>
  </g>
</svg>
