<svg xmlns="http://www.w3.org/2000/svg" width="243.548" height="55.848" viewBox="0 0 243.548 55.848">
  <g id="logo_2" data-name="logo 2" transform="translate(0.002)">
    <g id="Layer_1" data-name="Layer 1" transform="translate(-0.002)">
      <g id="Group_460" data-name="Group 460" transform="translate(0.544 1.862)" opacity="0.5">
        <path id="Path_11670" data-name="Path 11670" d="M110.717,42.648l-11.456-11.3-1.976,1.99v9.308H91.3V1.35h6.029V24.791l13.389-13.36h8.506L103.586,27.068l15.637,15.58Z" transform="translate(38.896 -1.278)" fill="#171717"/>
        <path id="Path_11671" data-name="Path 11671" d="M112.44,7.379V1.35h6.043V7.379Zm0,35.269V11.431h6.043V42.648Z" transform="translate(48.028 -1.278)" fill="#171717"/>
        <path id="Path_11672" data-name="Path 11672" d="M26.556,19.98a10.024,10.024,0,0,1,14.32,0,10.5,10.5,0,0,1,1.89,2.549,17.556,17.556,0,0,1,4.453-7.919A17.3,17.3,0,0,1,49.854,12.3V1.35H43.782V15.168a15.25,15.25,0,0,0-21.623.558c-.186.186-.344.4-.53.6a16.768,16.768,0,0,1,3.107,6.229A10.11,10.11,0,0,1,26.556,19.98Z" transform="translate(8.802 -1.278)" fill="#171717"/>
        <path id="Path_11673" data-name="Path 11673" d="M79.2,15.19a14.835,14.835,0,0,0-10.625-4.3A14.62,14.62,0,0,0,60.623,13.1l-.788.659-.8.63A14.321,14.321,0,0,0,57.5,15.82a15.752,15.752,0,0,0-4.539,11.069c0,.1,0,.186,0,.272v.358a9.751,9.751,0,0,1-.516,2.864,8.319,8.319,0,0,1-.544,1.274,10.153,10.153,0,0,1-1.947,2.563,10.159,10.159,0,0,1-16.21-2.592A8.477,8.477,0,0,1,33.2,30.34a10.21,10.21,0,0,1-.43-3.136v-.229a15.336,15.336,0,0,0-3.079-9.322c-.172-.229-.344-.458-.53-.673s-.344-.415-.544-.63-.387-.43-.6-.644a15.594,15.594,0,0,0-11.456-4.754A15.623,15.623,0,0,0,5.106,15.705,15.565,15.565,0,0,0,.381,27.161,15.522,15.522,0,0,0,5.106,38.617a15.608,15.608,0,0,0,11.456,4.7,15.651,15.651,0,0,0,11.456-4.7c.229-.229.444-.458.659-.7a16.854,16.854,0,0,1-3.064-6.3,10.467,10.467,0,0,1-1.9,2.606,9.766,9.766,0,0,1-7.16,2.95,9.709,9.709,0,0,1-7.16-2.95A10.024,10.024,0,0,1,9.388,20a9.709,9.709,0,0,1,7.16-2.993A9.737,9.737,0,0,1,23.707,20a10.811,10.811,0,0,1,1.9,2.578,10.223,10.223,0,0,1,.544,1.289A9.8,9.8,0,0,1,26.686,27v.2a15.393,15.393,0,0,0,3.007,9.279l.516.673.544.616c.215.243.43.473.659.7a15.594,15.594,0,0,0,11.456,4.7,15.623,15.623,0,0,0,11.456-4.7l.659-.687.53-.63a7.43,7.43,0,0,0,.516-.659,15.236,15.236,0,0,0,3.05-9.05c0-.115,0-.229,0-.358v-.53a9.523,9.523,0,0,1,.8-3.508,10.409,10.409,0,0,1,.8-1.432A11.455,11.455,0,0,1,62,20.03a10.026,10.026,0,1,1,0,14.248A10.31,10.31,0,0,1,60.122,31.7a17.183,17.183,0,0,1-3.05,6.143q.3.344.644.687a16.21,16.21,0,0,0,22.825,0A15.58,15.58,0,0,0,85.3,27.075V1.3H79.2Z" transform="translate(-0.378 -1.3)" fill="#171717"/>
        <path id="Path_11674" data-name="Path 11674" d="M90.911,11.769V29.425L87.2,39.607H79.284l-1.9-5.27a6.916,6.916,0,0,0,.315-1.06h0a10.024,10.024,0,0,0,.329-2.391,10.4,10.4,0,0,0-.931-4.439,9.022,9.022,0,0,0-2.706-3.322h0c-.129-.086-.286-.2-.487-.315h0c-.229-.143-.5-.286-.831-.458L71.136,17.01V16.9l-.5-1.432L68,8.39h2.964a9.079,9.079,0,0,1,5.012,4.41l.988,2.706h0l6.329,17.327Z" transform="translate(28.832 1.763)" fill="#171717"/>
        <rect id="Rectangle_1661" data-name="Rectangle 1661" width="6.029" height="6.029" transform="translate(121.418 0.072)" fill="#171717"/>
        <path id="Path_11675" data-name="Path 11675" d="M85.17,24.972V39.607H91.2V8.39H85.17Z" transform="translate(36.248 1.763)" fill="#171717"/>
        <path id="Path_11676" data-name="Path 11676" d="M139.217,31.764a17.343,17.343,0,0,1-2.678-2.291,17.9,17.9,0,0,1-3.379-4.883v8.019h6.057Z" transform="translate(56.978 8.76)" fill="#171717"/>
        <path id="Path_11677" data-name="Path 11677" d="M167.061,12.795a15.995,15.995,0,0,0-22.754,0l-.086.086a14.32,14.32,0,0,1,2.764,6.215,10.768,10.768,0,0,1,1.575-2,10.034,10.034,0,1,1-1.332,12.616,8.747,8.747,0,0,1-.816-1.432,10.109,10.109,0,0,1-.8-3.924V21.673a12.544,12.544,0,0,0-2.492-7.575c-.158-.215-.315-.444-.5-.659s-.344-.415-.53-.616-.4-.458-.616-.673a13.031,13.031,0,0,0-19,0,13.031,13.031,0,0,0-4.11,9.522V39.759h6.057V21.673A7.518,7.518,0,0,1,137.3,16.346a7.789,7.789,0,0,1,1.532,2.148,5.728,5.728,0,0,1,.458,1.26,7.06,7.06,0,0,1,.258,1.919v2.606a15.751,15.751,0,0,0,4.539,11.227,19.579,19.579,0,0,0,1.518,1.432c.258.215.53.43.8.616s.53.372.816.544a14.62,14.62,0,0,0,7.947,2.205,15.021,15.021,0,0,0,10.553-4.167,11.871,11.871,0,0,1-2.864,7.274,9.25,9.25,0,0,1-7.16,2.95,10.024,10.024,0,0,1-8.592-4.94h-.086l-5.04,3.293a18.443,18.443,0,0,0,2.663,3.165,16.5,16.5,0,0,0,3.265,2.406,15.665,15.665,0,0,0,7.761,2.091,15.479,15.479,0,0,0,11.456-4.783,15.308,15.308,0,0,0,4.783-11.3V24.179A15.494,15.494,0,0,0,167.061,12.795Z" transform="translate(50.585 1.61)" fill="#171717"/>
        <path id="Path_11678" data-name="Path 11678" d="M175.719,31.055a8.764,8.764,0,0,1-2.778,6.53,9.193,9.193,0,0,1-6.6,2.692,9.035,9.035,0,0,1-5.9-2.091,9.752,9.752,0,0,1-3.293-5.5L163,31.112c.4,2.1,1.5,3.165,3.336,3.165a3.351,3.351,0,0,0,2.334-.945,2.993,2.993,0,0,0,1.045-2.277c0-1.432-1.1-2.635-3.279-3.58-1.761-.788-3.15-1.432-4.153-1.919a13.888,13.888,0,0,1-1.947-1.06A8.262,8.262,0,0,1,157,17.423a9.122,9.122,0,0,1,2.864-6.558A9.093,9.093,0,0,1,166.44,8a8.807,8.807,0,0,1,5.9,2.162,10.024,10.024,0,0,1,3.279,5.527l-5.9,1.532c-.458-2.062-1.532-3.107-3.222-3.107a3.451,3.451,0,0,0-3.351,3.308c0,1.432,1.1,2.62,3.279,3.58,1.747.759,3.107,1.432,4.1,1.876A14.319,14.319,0,0,1,172.5,24,8.348,8.348,0,0,1,175.719,31.055Z" transform="translate(67.272 1.594)" fill="#171717"/>
        <path id="Path_11679" data-name="Path 11679" d="M72.86,29.07Z" transform="translate(30.931 10.695)" fill="#171717"/>
        <path id="Path_11680" data-name="Path 11680" d="M72.11,18.49Z" transform="translate(30.607 6.125)" fill="#171717"/>
        <path id="Path_11681" data-name="Path 11681" d="M76.749,23.995a2.319,2.319,0,0,0-.415-.272c-.358-.215-.873-.5-1.546-.845-.988-.5-2.348-1.131-4.1-1.876-2.177-.959-3.279-2.162-3.279-3.566a3.122,3.122,0,0,1,1-2.305,3.208,3.208,0,0,1,2.348-1.017,2.864,2.864,0,0,1,2.692,1.618,6.143,6.143,0,0,1,.5,1.432v.115h0l5.828-1.518h0a12.385,12.385,0,0,0-.988-2.706,9.079,9.079,0,0,0-5.012-4.41A9.336,9.336,0,0,0,70.764,8a9.064,9.064,0,0,0-6.63,2.864,9.122,9.122,0,0,0-2.749,6.6,8.219,8.219,0,0,0,3.279,7.06,13.892,13.892,0,0,0,1.947,1.06c1,.487,2.391,1.131,4.153,1.919,2.177.945,3.265,2.134,3.265,3.58A3.022,3.022,0,0,1,73,33.36a3.351,3.351,0,0,1-2.334.945c-1.833,0-2.864-1.06-3.336-3.165L61.47,32.716a9.752,9.752,0,0,0,3.294,5.5,9.007,9.007,0,0,0,5.9,2.091,9.136,9.136,0,0,0,6.6-2.692,8.735,8.735,0,0,0,2.52-4.3,9.093,9.093,0,0,0,.243-2.191,8.305,8.305,0,0,0-3.279-7.131Z" transform="translate(25.968 1.594)" fill="#171717"/>
      </g>
      <path id="Path_11682" data-name="Path 11682" d="M110.267,41.3,98.812,30l-1.976,1.976V41.3H90.85V0h6.029V23.441l13.389-13.417h8.506L103.136,25.775l15.637,15.58Z" transform="translate(39.246)" fill="#171717"/>
      <path id="Path_11683" data-name="Path 11683" d="M112,6.029V0h6.029V6.029ZM112,41.3V10.024h6.029V41.24Z" transform="translate(48.382)" fill="#171717"/>
      <path id="Path_11684" data-name="Path 11684" d="M26.128,18.615a10.024,10.024,0,0,1,14.32,0,10.568,10.568,0,0,1,1.89,2.563,17.67,17.67,0,0,1,4.382-7.933,17.972,17.972,0,0,1,2.706-2.334V0H43.354V13.861a14.792,14.792,0,0,0-10.611-4.3A14.706,14.706,0,0,0,21.66,14.32l-.53.6a17,17,0,0,1,3.107,6.272,10.64,10.64,0,0,1,1.89-2.578Z" transform="translate(9.13)" fill="#171717"/>
      <path id="Path_11685" data-name="Path 11685" d="M78.758,13.861a15.379,15.379,0,0,0-18.615-2.091l-.8.544-.788.573a16.468,16.468,0,0,0-6.071,12.5,1.646,1.646,0,0,0,0,.272v.358a9.752,9.752,0,0,1-.516,2.864,8.965,8.965,0,0,1-.544,1.274A10.08,10.08,0,0,1,35.27,32.734a9.494,9.494,0,0,1-2.434-3.881,10.11,10.11,0,0,1-.53-3.079v-.229a15.379,15.379,0,0,0-3.079-9.336l-.587-.616-.544-.616c-.186-.215-.4-.43-.6-.644A15.594,15.594,0,0,0,16.039,9.58,15.594,15.594,0,0,0,4.726,14.32,15.522,15.522,0,0,0,0,25.775,15.565,15.565,0,0,0,4.726,37.231a15.637,15.637,0,0,0,11.456,4.7,15.751,15.751,0,0,0,11.456-4.7c.229-.229.444-.473.659-.7a16.926,16.926,0,0,1-3.036-6.172,10.024,10.024,0,0,1-1.919,2.606,9.666,9.666,0,0,1-7.16,2.964,9.666,9.666,0,0,1-7.16-2.964A9.666,9.666,0,0,1,6.058,25.8a9.68,9.68,0,0,1,2.964-7.188,9.694,9.694,0,0,1,7.16-2.978,9.694,9.694,0,0,1,7.16,2.978,10.768,10.768,0,0,1,1.919,2.578,9.9,9.9,0,0,1,1.074,4.439v.2a15.308,15.308,0,0,0,3.007,9.279l.516.659c.172.215.358.415.544.63s.43.473.659.7a15.608,15.608,0,0,0,11.456,4.7,15.752,15.752,0,0,0,11.456-4.7c.229-.229.444-.458.659-.7s.358-.4.53-.616.358-.444.516-.659a15.394,15.394,0,0,0,3.05-9.05v-.9a9.522,9.522,0,0,1,.8-3.494,10.552,10.552,0,0,1,.8-1.432,12.1,12.1,0,0,1,1.146-1.632,10.118,10.118,0,1,1,0,14.219,10.3,10.3,0,0,1-1.89-2.563,16.911,16.911,0,0,1-3.036,6.143q.3.344.644.687A16.2,16.2,0,0,0,80,37.1a15.537,15.537,0,0,0,4.768-11.327V0H78.758Z" transform="translate(0.002)" fill="#171717"/>
      <path id="Path_11686" data-name="Path 11686" d="M90.523,10.422V28.078l-3.709,10.2H78.838L76.934,33a6.631,6.631,0,0,0,.315-1.074h0a10.983,10.983,0,0,0-.616-6.759,8.95,8.95,0,0,0-2.706-3.336h0a4.137,4.137,0,0,0-.487-.315h0c-.229-.143-.5-.286-.831-.458l-1.933-5.356v-.1l-.487-1.432L67.54,7h2.95a8.907,8.907,0,0,1,5.026,4.41L76.5,14.16h0l6.329,17.327Z" transform="translate(29.177 3.024)" fill="#171717"/>
      <rect id="Rectangle_1662" data-name="Rectangle 1662" width="6.029" height="6.029" transform="translate(121.318)" fill="#171717"/>
      <path id="Path_11687" data-name="Path 11687" d="M84.72,23.622V38.257h6.029V7.04H84.72Z" transform="translate(36.598 3.041)" fill="#171717"/>
      <path id="Path_11688" data-name="Path 11688" d="M138.767,30.41a18.43,18.43,0,0,1-6.057-7.16v8.019h6.057Z" transform="translate(57.328 10.043)" fill="#171717"/>
      <path id="Path_11689" data-name="Path 11689" d="M166.589,11.44a15.995,15.995,0,0,0-22.8,0l-.086.086a14.32,14.32,0,0,1,2.764,6.215,10.4,10.4,0,0,1,1.618-2,10.118,10.118,0,1,1,.072,14.219,10.911,10.911,0,0,1-1.346-1.618,10.024,10.024,0,0,1-.8-1.432,9.838,9.838,0,0,1-.8-3.909V20.318a12.63,12.63,0,0,0-2.492-7.561c-.158-.229-.329-.444-.5-.659s-.344-.415-.53-.616-.4-.458-.616-.673a13.059,13.059,0,0,0-19.016,0,13.059,13.059,0,0,0-4.1,9.508v18.1h6.057v-18.1a7.16,7.16,0,0,1,2.248-5.313,7.418,7.418,0,0,1,10.639,0,7.789,7.789,0,0,1,1.532,2.148,6.632,6.632,0,0,1,.458,1.26,7.546,7.546,0,0,1,.258,1.9v2.32a.949.949,0,0,0,0,.2v.1a15.752,15.752,0,0,0,4.539,11.212,15.457,15.457,0,0,0,1.518,1.432c.258.215.53.415.8.616l.8.544a14.835,14.835,0,0,0,7.962,2.205,15.021,15.021,0,0,0,10.5-4.2,11.8,11.8,0,0,1-2.864,7.26,9.236,9.236,0,0,1-7.16,2.964,10.024,10.024,0,0,1-8.592-4.9h0l-5.041,3.293a18.014,18.014,0,0,0,2.663,3.179,16.438,16.438,0,0,0,3.308,2.434,15.751,15.751,0,0,0,19.188-2.678,15.336,15.336,0,0,0,4.783-11.3V22.9a15.494,15.494,0,0,0-4.969-11.456Z" transform="translate(50.956 2.88)" fill="#171717"/>
      <path id="Path_11690" data-name="Path 11690" d="M175.252,29.687a8.764,8.764,0,0,1-2.778,6.53,9.193,9.193,0,0,1-6.6,2.692,9.007,9.007,0,0,1-5.914-2.1,9.723,9.723,0,0,1-3.279-5.5l5.857-1.561c.4,2.1,1.432,3.165,3.336,3.165a3.351,3.351,0,0,0,2.334-.945,3.036,3.036,0,0,0,1.045-2.277c0-1.432-1.1-2.635-3.294-3.58-1.747-.788-3.136-1.432-4.153-1.919a13.874,13.874,0,0,1-1.933-1.074,8.234,8.234,0,0,1-3.279-7.06,9.121,9.121,0,0,1,2.749-6.587,9.007,9.007,0,0,1,6.616-2.778,8.878,8.878,0,0,1,5.914,2.148,10.023,10.023,0,0,1,3.222,5.456l-5.914,1.547c-.444-2.076-1.518-3.107-3.222-3.107a3.422,3.422,0,0,0-3.336,3.308c0,1.432,1.1,2.606,3.279,3.58,1.733.745,3.107,1.432,4.1,1.876a15.968,15.968,0,0,1,1.962,1.1A8.348,8.348,0,0,1,175.252,29.687Z" transform="translate(67.639 2.89)" fill="#171717"/>
      <path id="Path_11691" data-name="Path 11691" d="M72.41,27.71Z" transform="translate(31.281 11.969)" fill="#171717"/>
      <path id="Path_11692" data-name="Path 11692" d="M71.66,17.14Z" transform="translate(30.957 7.404)" fill="#171717"/>
      <path id="Path_11693" data-name="Path 11693" d="M76.3,22.631a3.492,3.492,0,0,0-.415-.272c-.358-.215-.873-.487-1.547-.831-.988-.5-2.363-1.131-4.1-1.876-2.177-.959-3.279-2.162-3.279-3.58a3.15,3.15,0,0,1,1-2.305,3.193,3.193,0,0,1,2.348-1,2.864,2.864,0,0,1,2.692,1.618,5.512,5.512,0,0,1,.487,1.432.272.272,0,0,1,0,.115h0l5.871-1.618h0a11.87,11.87,0,0,0-.988-2.706A8.887,8.887,0,0,0,70.314,6.65a9.05,9.05,0,0,0-6.63,2.778,9.122,9.122,0,0,0-2.749,6.587,8.205,8.205,0,0,0,3.279,7.06,12.488,12.488,0,0,0,1.933,1.074c1.017.487,2.406,1.131,4.167,1.919,2.177.945,3.265,2.134,3.265,3.58a3.064,3.064,0,0,1-1.088,2.334,3.351,3.351,0,0,1-2.334.945c-1.833,0-2.864-1.06-3.336-3.165l-5.785,1.561a9.723,9.723,0,0,0,3.279,5.5,8.993,8.993,0,0,0,5.914,2.091,9.122,9.122,0,0,0,6.558-2.678,8.778,8.778,0,0,0,2.535-4.3A9.178,9.178,0,0,0,79.65,29.7,8.334,8.334,0,0,0,76.3,22.631Z" transform="translate(26.318 2.872)" fill="#171717"/>
    </g>
  </g>
</svg>
