<svg xmlns="http://www.w3.org/2000/svg" xmlns:xlink="http://www.w3.org/1999/xlink" width="134.055" height="30.74" viewBox="0 0 134.055 30.74">
  <defs>
    <linearGradient id="linear-gradient" x1="-4.318" y1="0.5" x2="3.672" y2="0.5" gradientUnits="objectBoundingBox">
      <stop offset="0" stop-color="#171717"/>
      <stop offset="1" stop-color="#3c8129"/>
    </linearGradient>
    <linearGradient id="linear-gradient-2" x1="-24.962" x2="11.957" xlink:href="#linear-gradient"/>
    <linearGradient id="linear-gradient-3" x1="-0.737" x2="7.167" xlink:href="#linear-gradient"/>
    <linearGradient id="linear-gradient-4" x1="0.113" y1="0.499" x2="2.741" y2="0.499" xlink:href="#linear-gradient"/>
    <linearGradient id="linear-gradient-5" x1="-3.806" x2="5.931" xlink:href="#linear-gradient"/>
    <linearGradient id="linear-gradient-6" x1="-18.544" y1="0.501" x2="18.463" y2="0.501" xlink:href="#linear-gradient"/>
    <linearGradient id="linear-gradient-7" x1="-18.544" x2="18.463" xlink:href="#linear-gradient"/>
    <linearGradient id="linear-gradient-8" x1="-29.801" x2="7.031" xlink:href="#linear-gradient"/>
    <linearGradient id="linear-gradient-9" x1="-2.975" x2="1.191" xlink:href="#linear-gradient"/>
    <linearGradient id="linear-gradient-10" x1="-11.454" y1="0.501" x2="0.451" y2="0.501" xlink:href="#linear-gradient"/>
    <linearGradient id="linear-gradient-11" x1="-4.162" x2="7.786" xlink:href="#linear-gradient"/>
    <linearGradient id="linear-gradient-12" x1="-4.318" y1="0.499" x2="3.672" y2="0.499" gradientUnits="objectBoundingBox">
      <stop offset="0" stop-color="#3c8129"/>
      <stop offset="1" stop-color="#171717"/>
    </linearGradient>
    <linearGradient id="linear-gradient-13" x1="-25.024" y1="0.5" x2="11.983" y2="0.5" xlink:href="#linear-gradient-12"/>
    <linearGradient id="linear-gradient-14" x1="-0.733" y1="0.5" x2="7.152" y2="0.5" xlink:href="#linear-gradient-12"/>
    <linearGradient id="linear-gradient-15" x1="0.112" y1="0.498" x2="2.744" y2="0.498" xlink:href="#linear-gradient-12"/>
    <linearGradient id="linear-gradient-16" x1="-3.794" y1="0.501" x2="5.913" y2="0.501" xlink:href="#linear-gradient-12"/>
    <linearGradient id="linear-gradient-17" x1="-18.544" y1="0.501" x2="18.463" y2="0.501" xlink:href="#linear-gradient-12"/>
    <linearGradient id="linear-gradient-18" x1="-18.544" y1="0.5" x2="18.463" y2="0.5" xlink:href="#linear-gradient-12"/>
    <linearGradient id="linear-gradient-19" x1="-29.801" y1="0.498" x2="7.031" y2="0.498" xlink:href="#linear-gradient-12"/>
    <linearGradient id="linear-gradient-20" x1="-2.974" y1="0.5" x2="1.189" y2="0.5" xlink:href="#linear-gradient-12"/>
    <linearGradient id="linear-gradient-21" x1="-11.491" y1="0.5" x2="0.45" y2="0.5" xlink:href="#linear-gradient-12"/>
    <linearGradient id="linear-gradient-22" x1="-4.147" y1="0.501" x2="7.758" y2="0.501" xlink:href="#linear-gradient-12"/>
  </defs>
  <g id="Layer_2" data-name="Layer 2" transform="translate(30.002 2)">
    <g id="Layer_1" data-name="Layer 1" transform="translate(-30.002 -2)">
      <g id="Group_460" data-name="Group 460" transform="translate(0.3 1.025)" opacity="0.5">
        <path id="Path_11670" data-name="Path 11670" d="M101.988,24.081l-6.305-6.219-1.088,1.1v5.123H91.3V1.35h3.318v12.9l7.37-7.354h4.682l-8.607,8.607,8.607,8.575Z" transform="translate(-19.637 -1.311)" fill="url(#linear-gradient)"/>
        <path id="Path_11671" data-name="Path 11671" d="M112.44,4.668V1.35h3.326V4.668Zm0,19.413V6.9h3.326V24.081Z" transform="translate(-24.114 -1.311)" fill="url(#linear-gradient-2)"/>
        <path id="Path_11672" data-name="Path 11672" d="M24.341,11.6a5.517,5.517,0,0,1,7.882,0,5.777,5.777,0,0,1,1.04,1.4,9.663,9.663,0,0,1,2.451-4.359,9.521,9.521,0,0,1,1.45-1.269V1.35H33.823V8.956a8.394,8.394,0,0,0-11.9.307c-.1.1-.189.221-.292.331a9.23,9.23,0,0,1,1.71,3.429A5.565,5.565,0,0,1,24.341,11.6Z" transform="translate(-4.879 -1.311)" fill="url(#linear-gradient-3)"/>
        <path id="Path_11673" data-name="Path 11673" d="M43.761,8.945a8.166,8.166,0,0,0-5.848-2.365,8.047,8.047,0,0,0-4.374,1.214l-.434.363-.441.347a7.882,7.882,0,0,0-.843.788,8.67,8.67,0,0,0-2.5,6.093c0,.055,0,.1,0,.15v.2a5.368,5.368,0,0,1-.284,1.576,4.579,4.579,0,0,1-.3.7,5.588,5.588,0,0,1-1.072,1.411,5.592,5.592,0,0,1-8.922-1.427,4.666,4.666,0,0,1-.3-.709,5.62,5.62,0,0,1-.236-1.726v-.126A8.441,8.441,0,0,0,16.514,10.3c-.095-.126-.189-.252-.292-.37s-.189-.229-.3-.347-.213-.236-.331-.355A8.583,8.583,0,0,0,9.286,6.612,8.6,8.6,0,0,0,2.981,9.229a8.568,8.568,0,0,0-2.6,6.305,8.544,8.544,0,0,0,2.6,6.305,8.591,8.591,0,0,0,6.305,2.585,8.615,8.615,0,0,0,6.305-2.585c.126-.126.244-.252.363-.386a9.277,9.277,0,0,1-1.687-3.468,5.762,5.762,0,0,1-1.048,1.434,5.375,5.375,0,0,1-3.941,1.624A5.344,5.344,0,0,1,5.337,19.42a5.517,5.517,0,0,1,0-7.827A5.344,5.344,0,0,1,9.278,9.946a5.36,5.36,0,0,1,3.941,1.647,5.951,5.951,0,0,1,1.048,1.419,5.627,5.627,0,0,1,.3.709,5.391,5.391,0,0,1,.292,1.726v.11a8.473,8.473,0,0,0,1.655,5.107l.284.37.3.339c.118.134.236.26.363.386a8.583,8.583,0,0,0,6.305,2.585,8.6,8.6,0,0,0,6.305-2.585l.363-.378.292-.347a4.09,4.09,0,0,0,.284-.363,8.386,8.386,0,0,0,1.679-4.981c0-.063,0-.126,0-.2V15.2a5.241,5.241,0,0,1,.441-1.931,5.729,5.729,0,0,1,.441-.788,6.305,6.305,0,0,1,.725-.875,5.519,5.519,0,1,1,0,7.842,5.675,5.675,0,0,1-1.033-1.419,9.458,9.458,0,0,1-1.679,3.381q.166.189.355.378a8.922,8.922,0,0,0,12.564,0,8.575,8.575,0,0,0,2.617-6.305V1.3H43.761Z" transform="translate(-0.378 -1.3)" fill="url(#linear-gradient-4)"/>
        <path id="Path_11674" data-name="Path 11674" d="M80.611,10.25v9.718l-2.041,5.6H74.211l-1.048-2.9a3.807,3.807,0,0,0,.173-.583h0a5.517,5.517,0,0,0,.181-1.316A5.722,5.722,0,0,0,73,18.329a4.966,4.966,0,0,0-1.49-1.829h0c-.071-.047-.158-.11-.268-.173h0c-.126-.079-.276-.158-.457-.252l-1.064-2.94v-.063l-.276-.788L68,8.39h1.632a5,5,0,0,1,2.759,2.428l.544,1.49h0l3.484,9.537Z" transform="translate(-14.701 -2.802)" fill="url(#linear-gradient-5)"/>
        <rect id="Rectangle_1661" data-name="Rectangle 1661" width="3.318" height="3.318" transform="translate(66.832 0.039)" fill="url(#linear-gradient-6)"/>
        <path id="Path_11675" data-name="Path 11675" d="M85.17,17.517v8.055h3.318V8.39H85.17Z" transform="translate(-18.338 -2.802)" fill="url(#linear-gradient-7)"/>
        <path id="Path_11676" data-name="Path 11676" d="M136.494,28.539a9.546,9.546,0,0,1-1.474-1.261,9.853,9.853,0,0,1-1.86-2.688V29h3.334Z" transform="translate(-28.503 -6.233)" fill="url(#linear-gradient-8)"/>
        <path id="Path_11677" data-name="Path 11677" d="M145.166,10.656a8.8,8.8,0,0,0-12.524,0l-.047.047a7.882,7.882,0,0,1,1.521,3.421,5.927,5.927,0,0,1,.867-1.1,5.523,5.523,0,1,1-.733,6.944,4.815,4.815,0,0,1-.449-.788,5.564,5.564,0,0,1-.441-2.16V15.543a6.9,6.9,0,0,0-1.371-4.169c-.087-.118-.173-.244-.276-.363s-.189-.229-.292-.339-.221-.252-.339-.37a7.172,7.172,0,0,0-10.459,0,7.173,7.173,0,0,0-2.262,5.241V25.5h3.334V15.543a4.138,4.138,0,0,1,7.094-2.932,4.288,4.288,0,0,1,.843,1.182,3.153,3.153,0,0,1,.252.694,3.886,3.886,0,0,1,.142,1.056v1.434a8.67,8.67,0,0,0,2.5,6.179,10.777,10.777,0,0,0,.835.788c.142.118.292.236.441.339s.292.2.449.3a8.047,8.047,0,0,0,4.374,1.214,8.268,8.268,0,0,0,5.809-2.294,6.534,6.534,0,0,1-1.576,4,5.092,5.092,0,0,1-3.941,1.624,5.517,5.517,0,0,1-4.729-2.719h-.047l-2.774,1.813a10.152,10.152,0,0,0,1.466,1.742,9.08,9.08,0,0,0,1.8,1.324,8.623,8.623,0,0,0,4.272,1.151,8.52,8.52,0,0,0,6.306-2.633,8.426,8.426,0,0,0,2.633-6.219V16.922A8.528,8.528,0,0,0,145.166,10.656Z" transform="translate(-25.368 -2.727)" fill="url(#linear-gradient-9)"/>
        <path id="Path_11678" data-name="Path 11678" d="M167.3,20.69a4.824,4.824,0,0,1-1.529,3.594,5.06,5.06,0,0,1-3.634,1.482,4.973,4.973,0,0,1-3.247-1.151,5.368,5.368,0,0,1-1.813-3.027l3.224-.867c.221,1.159.828,1.742,1.836,1.742a1.844,1.844,0,0,0,1.285-.52A1.647,1.647,0,0,0,164,20.69c0-.788-.607-1.45-1.8-1.97-.969-.434-1.734-.788-2.286-1.056a7.645,7.645,0,0,1-1.072-.583A4.548,4.548,0,0,1,157,13.186a5.021,5.021,0,0,1,1.576-3.61A5,5,0,0,1,162.192,8a4.847,4.847,0,0,1,3.247,1.19,5.517,5.517,0,0,1,1.8,3.042L164,13.076c-.252-1.135-.843-1.71-1.773-1.71a1.9,1.9,0,0,0-1.844,1.821c0,.788.607,1.442,1.8,1.97.962.418,1.71.788,2.254,1.033a7.882,7.882,0,0,1,1.088.615A4.6,4.6,0,0,1,167.3,20.69Z" transform="translate(-33.551 -2.719)" fill="url(#linear-gradient-10)"/>
        <path id="Path_11679" data-name="Path 11679" d="M72.86,29.07Z" transform="translate(-15.731 -7.182)" fill="#fff"/>
        <path id="Path_11680" data-name="Path 11680" d="M72.11,18.49Z" transform="translate(-15.572 -4.941)" fill="#fff"/>
        <path id="Path_11681" data-name="Path 11681" d="M69.835,16.8a1.277,1.277,0,0,0-.229-.15c-.2-.118-.481-.276-.851-.465-.544-.276-1.293-.623-2.254-1.033-1.2-.528-1.8-1.19-1.8-1.963a1.718,1.718,0,0,1,.552-1.269,1.766,1.766,0,0,1,1.293-.56,1.576,1.576,0,0,1,1.482.891,3.382,3.382,0,0,1,.276.788v.063h0l3.208-.835h0a6.818,6.818,0,0,0-.544-1.49A5,5,0,0,0,68.2,8.355,5.139,5.139,0,0,0,66.541,8a4.989,4.989,0,0,0-3.649,1.576,5.021,5.021,0,0,0-1.513,3.634,4.524,4.524,0,0,0,1.8,3.886,7.646,7.646,0,0,0,1.072.583c.552.268,1.316.623,2.286,1.056,1.2.52,1.8,1.174,1.8,1.97a1.663,1.663,0,0,1-.568,1.253,1.844,1.844,0,0,1-1.285.52c-1.009,0-1.576-.583-1.836-1.742l-3.224.867a5.368,5.368,0,0,0,1.813,3.027,4.958,4.958,0,0,0,3.247,1.151A5.029,5.029,0,0,0,70.119,24.3a4.808,4.808,0,0,0,1.387-2.365,5.005,5.005,0,0,0,.134-1.206,4.571,4.571,0,0,0-1.8-3.925Z" transform="translate(-13.297 -2.719)" fill="url(#linear-gradient-11)"/>
      </g>
      <path id="Path_11682" data-name="Path 11682" d="M101.538,22.731l-6.305-6.219L94.145,17.6v5.131H90.85V0h3.318V12.9l7.37-7.385h4.682l-8.607,8.67,8.607,8.575Z" transform="translate(-19.242)" fill="url(#linear-gradient-12)"/>
      <path id="Path_11683" data-name="Path 11683" d="M112,3.318V0h3.318V3.318Zm0,19.413V5.517h3.318V22.7Z" transform="translate(-23.722)" fill="url(#linear-gradient-13)"/>
      <path id="Path_11684" data-name="Path 11684" d="M23.881,10.246a5.517,5.517,0,0,1,7.882,0,5.817,5.817,0,0,1,1.04,1.411,9.726,9.726,0,0,1,2.412-4.367A9.892,9.892,0,0,1,36.7,6.006V0H33.363V7.63a8.408,8.408,0,0,0-11.941.252l-.292.331a9.356,9.356,0,0,1,1.71,3.452,5.856,5.856,0,0,1,1.04-1.419Z" transform="translate(-4.474)" fill="url(#linear-gradient-14)"/>
      <path id="Path_11685" data-name="Path 11685" d="M43.35,7.63A8.465,8.465,0,0,0,33.1,6.479l-.441.3-.434.315a9.064,9.064,0,0,0-3.342,6.881.906.906,0,0,0,0,.15v.2A5.368,5.368,0,0,1,28.6,15.9a4.934,4.934,0,0,1-.3.7,5.548,5.548,0,0,1-8.891,1.419,5.226,5.226,0,0,1-1.34-2.136,5.565,5.565,0,0,1-.292-1.695v-.126a8.465,8.465,0,0,0-1.695-5.139l-.323-.339-.3-.339c-.1-.118-.221-.236-.331-.355A8.583,8.583,0,0,0,8.827,5.273,8.583,8.583,0,0,0,2.6,7.882,8.544,8.544,0,0,0,0,14.187a8.568,8.568,0,0,0,2.6,6.305,8.607,8.607,0,0,0,6.305,2.585,8.67,8.67,0,0,0,6.305-2.585c.126-.126.244-.26.363-.386a9.316,9.316,0,0,1-1.671-3.4,5.517,5.517,0,0,1-1.056,1.434,5.32,5.32,0,0,1-3.941,1.632,5.32,5.32,0,0,1-3.941-1.632A5.32,5.32,0,0,1,3.334,14.2a5.328,5.328,0,0,1,1.632-3.957A5.336,5.336,0,0,1,8.906,8.607a5.336,5.336,0,0,1,3.941,1.639A5.927,5.927,0,0,1,13.9,11.665a5.446,5.446,0,0,1,.591,2.443v.11a8.426,8.426,0,0,0,1.655,5.107l.284.363c.095.118.2.229.3.347s.236.26.363.386A8.591,8.591,0,0,0,23.4,23.007a8.67,8.67,0,0,0,6.305-2.585c.126-.126.244-.252.363-.386s.2-.221.292-.339.2-.244.284-.363a8.473,8.473,0,0,0,1.679-4.981v-.5a5.241,5.241,0,0,1,.441-1.923,5.808,5.808,0,0,1,.441-.788,6.66,6.66,0,0,1,.631-.9,5.569,5.569,0,1,1,0,7.827,5.667,5.667,0,0,1-1.04-1.411,9.308,9.308,0,0,1-1.671,3.381q.166.189.355.378a8.914,8.914,0,0,0,12.556,0,8.552,8.552,0,0,0,2.625-6.235V0H43.35Z" transform="translate(0.002)" fill="url(#linear-gradient-15)"/>
      <path id="Path_11686" data-name="Path 11686" d="M80.19,8.884V18.6l-2.041,5.612h-4.39l-1.048-2.9a3.649,3.649,0,0,0,.173-.591h0A6.045,6.045,0,0,0,72.545,17a4.926,4.926,0,0,0-1.49-1.836h0a2.278,2.278,0,0,0-.268-.173h0c-.126-.079-.276-.158-.457-.252l-1.064-2.948v-.055L69,10.949,67.54,7h1.624A4.9,4.9,0,0,1,71.93,9.428l.544,1.513h0l3.484,9.537Z" transform="translate(-14.304 -1.483)" fill="url(#linear-gradient-16)"/>
      <rect id="Rectangle_1662" data-name="Rectangle 1662" width="3.318" height="3.318" transform="translate(66.777)" fill="url(#linear-gradient-17)"/>
      <path id="Path_11687" data-name="Path 11687" d="M84.72,16.167v8.055h3.318V7.04H84.72Z" transform="translate(-17.943 -1.491)" fill="url(#linear-gradient-18)"/>
      <path id="Path_11688" data-name="Path 11688" d="M136.044,27.191a10.144,10.144,0,0,1-3.334-3.941v4.414h3.334Z" transform="translate(-28.108 -4.925)" fill="url(#linear-gradient-19)"/>
      <path id="Path_11689" data-name="Path 11689" d="M144.727,9.294a8.8,8.8,0,0,0-12.548,0l-.047.047a7.882,7.882,0,0,1,1.521,3.421,5.722,5.722,0,0,1,.891-1.1,5.569,5.569,0,1,1,.039,7.827,6.006,6.006,0,0,1-.741-.891,5.519,5.519,0,0,1-.441-.788,5.415,5.415,0,0,1-.441-2.152V14.181a6.952,6.952,0,0,0-1.371-4.162c-.087-.126-.181-.244-.276-.363s-.189-.229-.292-.339-.221-.252-.339-.37a7.188,7.188,0,0,0-10.467,0,7.188,7.188,0,0,0-2.254,5.234v9.963h3.334V14.181a3.941,3.941,0,0,1,1.237-2.924,4.083,4.083,0,0,1,5.856,0,4.287,4.287,0,0,1,.843,1.182,3.65,3.65,0,0,1,.252.694,4.154,4.154,0,0,1,.142,1.048v1.277a.521.521,0,0,0,0,.11v.055a8.67,8.67,0,0,0,2.5,6.171,8.507,8.507,0,0,0,.835.788c.142.118.292.229.441.339l.441.3a8.166,8.166,0,0,0,4.382,1.214A8.268,8.268,0,0,0,144,22.126a6.5,6.5,0,0,1-1.576,4,5.084,5.084,0,0,1-3.941,1.632,5.517,5.517,0,0,1-4.729-2.7h0l-2.774,1.813a9.915,9.915,0,0,0,1.466,1.75,9.048,9.048,0,0,0,1.821,1.34,8.67,8.67,0,0,0,10.562-1.474,8.441,8.441,0,0,0,2.633-6.219V15.6a8.528,8.528,0,0,0-2.735-6.305Z" transform="translate(-24.984 -1.412)" fill="url(#linear-gradient-20)"/>
      <path id="Path_11690" data-name="Path 11690" d="M166.858,19.348a4.824,4.824,0,0,1-1.529,3.594,5.06,5.06,0,0,1-3.634,1.482,4.958,4.958,0,0,1-3.255-1.159,5.352,5.352,0,0,1-1.8-3.027l3.224-.859c.221,1.159.788,1.742,1.836,1.742a1.844,1.844,0,0,0,1.285-.52,1.671,1.671,0,0,0,.575-1.253c0-.788-.607-1.45-1.813-1.97-.962-.434-1.726-.788-2.286-1.056a7.637,7.637,0,0,1-1.064-.591,4.532,4.532,0,0,1-1.8-3.886A5.021,5.021,0,0,1,158.1,8.219a4.958,4.958,0,0,1,3.641-1.529A4.887,4.887,0,0,1,165,7.872a5.517,5.517,0,0,1,1.773,3l-3.255.851c-.244-1.143-.835-1.71-1.773-1.71a1.884,1.884,0,0,0-1.836,1.821c0,.788.607,1.434,1.8,1.97.954.41,1.71.788,2.254,1.033a8.788,8.788,0,0,1,1.08.607,4.6,4.6,0,0,1,1.813,3.9Z" transform="translate(-33.164 -1.417)" fill="url(#linear-gradient-21)"/>
      <path id="Path_11691" data-name="Path 11691" d="M72.41,27.71Z" transform="translate(-15.336 -5.869)" fill="#fff"/>
      <path id="Path_11692" data-name="Path 11692" d="M71.66,17.14Z" transform="translate(-15.177 -3.631)" fill="#fff"/>
      <path id="Path_11693" data-name="Path 11693" d="M69.385,15.446a1.923,1.923,0,0,0-.229-.15c-.2-.118-.481-.268-.851-.457-.544-.276-1.3-.623-2.254-1.033-1.2-.528-1.8-1.19-1.8-1.97a1.734,1.734,0,0,1,.552-1.269,1.758,1.758,0,0,1,1.293-.552,1.576,1.576,0,0,1,1.482.891,3.034,3.034,0,0,1,.268.788.15.15,0,0,1,0,.063h0l3.232-.891h0a6.534,6.534,0,0,0-.544-1.49A4.892,4.892,0,0,0,66.09,6.65a4.981,4.981,0,0,0-3.649,1.529A5.021,5.021,0,0,0,60.928,11.8a4.516,4.516,0,0,0,1.8,3.886,6.873,6.873,0,0,0,1.064.591c.56.268,1.324.623,2.294,1.056,1.2.52,1.8,1.174,1.8,1.97a1.687,1.687,0,0,1-.6,1.285,1.844,1.844,0,0,1-1.285.52c-1.009,0-1.576-.583-1.836-1.742l-3.184.859a5.352,5.352,0,0,0,1.8,3.027,4.95,4.95,0,0,0,3.255,1.151,5.021,5.021,0,0,0,3.61-1.474,4.831,4.831,0,0,0,1.4-2.365,5.053,5.053,0,0,0,.181-1.23,4.587,4.587,0,0,0-1.844-3.894Z" transform="translate(-12.902 -1.408)" fill="url(#linear-gradient-22)"/>
    </g>
  </g>
</svg>
