<svg id="Layer_1" data-name="Layer 1" xmlns="http://www.w3.org/2000/svg" width="104.806" height="24.033" viewBox="0 0 104.806 24.033">
  <g id="Group_460" data-name="Group 460" transform="translate(0.234 0.801)" opacity="0.5">
    <path id="Path_11670" data-name="Path 11670" d="M99.656,19.122l-4.93-4.862-.85.857v4.005H91.3V1.35h2.594V11.437l5.762-5.749h3.66l-6.729,6.729,6.729,6.7Z" transform="translate(-35.273 -1.319)" fill="#fff"/>
    <path id="Path_11671" data-name="Path 11671" d="M112.44,3.944V1.35h2.6V3.944Zm0,15.177V5.688h2.6V19.122Z" transform="translate(-43.386 -1.319)" fill="#fff"/>
    <path id="Path_11672" data-name="Path 11672" d="M23.75,9.367a4.313,4.313,0,0,1,6.162,0,4.517,4.517,0,0,1,.813,1.1,7.555,7.555,0,0,1,1.916-3.408,7.444,7.444,0,0,1,1.134-.992V1.35H31.163V7.3a6.563,6.563,0,0,0-9.3.24c-.08.08-.148.173-.228.259a7.216,7.216,0,0,1,1.337,2.681A4.351,4.351,0,0,1,23.75,9.367Z" transform="translate(-8.534 -1.319)" fill="#fff"/>
    <path id="Path_11673" data-name="Path 11673" d="M34.3,7.277a6.384,6.384,0,0,0-4.572-1.849,6.292,6.292,0,0,0-3.42.949l-.339.283-.345.271a6.163,6.163,0,0,0-.659.616,6.778,6.778,0,0,0-1.953,4.763c0,.043,0,.08,0,.117v.154a4.2,4.2,0,0,1-.222,1.232,3.58,3.58,0,0,1-.234.548,4.369,4.369,0,0,1-.838,1.1,4.372,4.372,0,0,1-6.976-1.115A3.648,3.648,0,0,1,14.5,13.8a4.394,4.394,0,0,1-.185-1.35v-.1a6.6,6.6,0,0,0-1.325-4.012c-.074-.1-.148-.2-.228-.29s-.148-.179-.234-.271-.166-.185-.259-.277a6.711,6.711,0,0,0-4.93-2.046A6.723,6.723,0,0,0,2.413,7.5a6.7,6.7,0,0,0-2.033,4.93,6.68,6.68,0,0,0,2.033,4.93,6.717,6.717,0,0,0,4.93,2.021,6.735,6.735,0,0,0,4.93-2.021c.1-.1.191-.2.283-.3a7.253,7.253,0,0,1-1.319-2.711,4.5,4.5,0,0,1-.82,1.121,4.2,4.2,0,0,1-3.081,1.269,4.178,4.178,0,0,1-3.081-1.269,4.313,4.313,0,0,1,0-6.119A4.178,4.178,0,0,1,7.336,8.06a4.19,4.19,0,0,1,3.081,1.288,4.652,4.652,0,0,1,.82,1.109,4.4,4.4,0,0,1,.234.555,4.215,4.215,0,0,1,.228,1.35v.086a6.624,6.624,0,0,0,1.294,3.993l.222.29.234.265c.092.1.185.2.283.3a6.711,6.711,0,0,0,4.93,2.021,6.723,6.723,0,0,0,4.93-2.021l.283-.3.228-.271a3.2,3.2,0,0,0,.222-.283,6.556,6.556,0,0,0,1.313-3.894c0-.049,0-.1,0-.154V12.17a4.1,4.1,0,0,1,.345-1.51,4.48,4.48,0,0,1,.345-.616,4.93,4.93,0,0,1,.567-.684,4.315,4.315,0,1,1,0,6.131,4.437,4.437,0,0,1-.807-1.109,7.394,7.394,0,0,1-1.313,2.644q.129.148.277.3a6.976,6.976,0,0,0,9.822,0,6.7,6.7,0,0,0,2.046-4.93V1.3H34.3Z" transform="translate(-0.378 -1.3)" fill="#fff"/>
    <path id="Path_11674" data-name="Path 11674" d="M77.859,9.844v7.6l-1.6,4.381H72.856l-.82-2.268a2.976,2.976,0,0,0,.136-.456h0a4.314,4.314,0,0,0,.142-1.029,4.474,4.474,0,0,0-.4-1.91,3.882,3.882,0,0,0-1.165-1.43h0c-.055-.037-.123-.086-.21-.136h0c-.1-.062-.216-.123-.357-.2l-.832-2.3V12.05l-.216-.616L68,8.39h1.276a3.907,3.907,0,0,1,2.157,1.9l.425,1.165h0l2.724,7.456Z" transform="translate(-26.331 -4.021)" fill="#fff"/>
    <rect id="Rectangle_1661" data-name="Rectangle 1661" width="2.594" height="2.594" transform="translate(52.25 0.031)" fill="#fff"/>
    <path id="Path_11675" data-name="Path 11675" d="M85.17,15.526v6.3h2.594V8.39H85.17Z" transform="translate(-32.92 -4.021)" fill="#fff"/>
    <path id="Path_11676" data-name="Path 11676" d="M135.767,27.677a7.463,7.463,0,0,1-1.152-.986,7.7,7.7,0,0,1-1.454-2.1v3.451h2.607Z" transform="translate(-51.338 -10.238)" fill="#fff"/>
    <path id="Path_11677" data-name="Path 11677" d="M139.317,10.085a6.883,6.883,0,0,0-9.792,0l-.037.037a6.162,6.162,0,0,1,1.189,2.674,4.634,4.634,0,0,1,.678-.863,4.318,4.318,0,1,1-.573,5.429,3.765,3.765,0,0,1-.351-.616,4.35,4.35,0,0,1-.345-1.688V13.906a5.4,5.4,0,0,0-1.072-3.26c-.068-.092-.136-.191-.216-.283s-.148-.179-.228-.265-.173-.2-.265-.29a5.608,5.608,0,0,0-8.177,0,5.608,5.608,0,0,0-1.769,4.1v7.783h2.607V13.906a3.235,3.235,0,0,1,5.546-2.292,3.352,3.352,0,0,1,.659.924,2.465,2.465,0,0,1,.2.542,3.039,3.039,0,0,1,.111.826v1.122a6.778,6.778,0,0,0,1.953,4.831,8.424,8.424,0,0,0,.653.616c.111.092.228.185.345.265s.228.16.351.234a6.292,6.292,0,0,0,3.42.949,6.464,6.464,0,0,0,4.541-1.793,5.108,5.108,0,0,1-1.232,3.13,3.981,3.981,0,0,1-3.081,1.269,4.313,4.313,0,0,1-3.7-2.126H130.7l-2.169,1.417a7.937,7.937,0,0,0,1.146,1.362,7.1,7.1,0,0,0,1.4,1.035,6.741,6.741,0,0,0,3.34.9,6.661,6.661,0,0,0,4.93-2.058,6.587,6.587,0,0,0,2.058-4.862V14.984A6.667,6.667,0,0,0,139.317,10.085Z" transform="translate(-45.658 -3.886)" fill="#fff"/>
    <path id="Path_11678" data-name="Path 11678" d="M165.051,17.921a3.771,3.771,0,0,1-1.2,2.81,3.956,3.956,0,0,1-2.841,1.158,3.888,3.888,0,0,1-2.539-.9,4.2,4.2,0,0,1-1.417-2.366l2.52-.678c.173.906.647,1.362,1.436,1.362a1.442,1.442,0,0,0,1-.407,1.288,1.288,0,0,0,.45-.98c0-.616-.475-1.134-1.411-1.541-.758-.339-1.356-.616-1.787-.826a5.978,5.978,0,0,1-.838-.456A3.556,3.556,0,0,1,157,12.054a3.925,3.925,0,0,1,1.232-2.822A3.913,3.913,0,0,1,161.058,8a3.79,3.79,0,0,1,2.539.93,4.313,4.313,0,0,1,1.411,2.379l-2.539.659c-.2-.887-.659-1.337-1.386-1.337a1.485,1.485,0,0,0-1.442,1.423c0,.616.474,1.128,1.411,1.541.752.327,1.337.616,1.762.807a6.162,6.162,0,0,1,.85.481A3.592,3.592,0,0,1,165.051,17.921Z" transform="translate(-60.485 -3.871)" fill="#fff"/>
    <path id="Path_11679" data-name="Path 11679" d="M72.86,29.07Z" transform="translate(-28.196 -11.958)" fill="#fff"/>
    <path id="Path_11680" data-name="Path 11680" d="M72.11,18.49Z" transform="translate(-27.908 -7.897)" fill="#fff"/>
    <path id="Path_11681" data-name="Path 11681" d="M67.988,14.883a1,1,0,0,0-.179-.117c-.154-.092-.376-.216-.666-.364-.425-.216-1.011-.487-1.762-.807-.937-.413-1.411-.93-1.411-1.534a1.343,1.343,0,0,1,.431-.992,1.38,1.38,0,0,1,1.011-.438,1.232,1.232,0,0,1,1.158.7,2.644,2.644,0,0,1,.216.616v.049h0l2.508-.653h0a5.33,5.33,0,0,0-.425-1.165,3.907,3.907,0,0,0-2.157-1.9A4.018,4.018,0,0,0,65.412,8a3.9,3.9,0,0,0-2.853,1.232,3.925,3.925,0,0,0-1.183,2.841,3.537,3.537,0,0,0,1.411,3.038,5.978,5.978,0,0,0,.838.456c.431.21,1.029.487,1.787.826.937.407,1.4.918,1.4,1.541a1.3,1.3,0,0,1-.444.98,1.442,1.442,0,0,1-1,.407c-.789,0-1.232-.456-1.436-1.362l-2.52.678A4.2,4.2,0,0,0,62.83,21a3.876,3.876,0,0,0,2.539.9,3.931,3.931,0,0,0,2.841-1.158,3.759,3.759,0,0,0,1.085-1.849,3.913,3.913,0,0,0,.1-.943,3.574,3.574,0,0,0-1.411-3.069Z" transform="translate(-23.786 -3.871)" fill="#fff"/>
  </g>
  <path id="Path_11682" data-name="Path 11682" d="M99.206,17.772l-4.93-4.862-.85.85v4.012H90.85V0h2.594V10.087l5.762-5.774h3.66l-6.729,6.778,6.729,6.7Z" transform="translate(-34.866)" fill="#fff"/>
  <path id="Path_11683" data-name="Path 11683" d="M112,2.594V0h2.594V2.594Zm0,15.177V4.313h2.594V17.747Z" transform="translate(-42.983)" fill="#fff"/>
  <path id="Path_11684" data-name="Path 11684" d="M23.281,8.011a4.313,4.313,0,0,1,6.162,0,4.548,4.548,0,0,1,.813,1.1A7.6,7.6,0,0,1,32.142,5.7a7.734,7.734,0,0,1,1.165-1V0H30.694V5.965a6.573,6.573,0,0,0-9.336.2l-.228.259a7.314,7.314,0,0,1,1.337,2.7A4.579,4.579,0,0,1,23.281,8.011Z" transform="translate(-8.108)" fill="#fff"/>
  <path id="Path_11685" data-name="Path 11685" d="M33.891,5.965a6.618,6.618,0,0,0-8.011-.9l-.345.234-.339.246a7.086,7.086,0,0,0-2.613,5.38.709.709,0,0,0,0,.117V11.2a4.2,4.2,0,0,1-.222,1.232,3.858,3.858,0,0,1-.234.548,4.338,4.338,0,0,1-6.951,1.109,4.085,4.085,0,0,1-1.048-1.67,4.35,4.35,0,0,1-.228-1.325v-.1a6.618,6.618,0,0,0-1.325-4.018l-.253-.265-.234-.265c-.08-.092-.173-.185-.259-.277A6.711,6.711,0,0,0,6.9,4.122a6.711,6.711,0,0,0-4.868,2.04A6.68,6.68,0,0,0,0,11.092a6.7,6.7,0,0,0,2.033,4.93,6.729,6.729,0,0,0,4.93,2.021,6.778,6.778,0,0,0,4.93-2.021c.1-.1.191-.2.283-.3a7.284,7.284,0,0,1-1.306-2.656,4.313,4.313,0,0,1-.826,1.122,4.159,4.159,0,0,1-3.081,1.276,4.159,4.159,0,0,1-3.081-1.276A4.159,4.159,0,0,1,2.606,11.1,4.166,4.166,0,0,1,3.881,8.011,4.172,4.172,0,0,1,6.962,6.729a4.172,4.172,0,0,1,3.081,1.282,4.634,4.634,0,0,1,.826,1.109,4.258,4.258,0,0,1,.462,1.91v.086a6.587,6.587,0,0,0,1.294,3.993l.222.283c.074.092.154.179.234.271s.185.2.283.3a6.717,6.717,0,0,0,4.93,2.021,6.778,6.778,0,0,0,4.93-2.021c.1-.1.191-.2.283-.3s.154-.173.228-.265.154-.191.222-.283a6.624,6.624,0,0,0,1.313-3.894v-.388a4.1,4.1,0,0,1,.345-1.5,4.541,4.541,0,0,1,.345-.616,5.207,5.207,0,0,1,.493-.7,4.354,4.354,0,1,1,0,6.119,4.431,4.431,0,0,1-.813-1.1,7.277,7.277,0,0,1-1.306,2.644q.129.148.277.3a6.969,6.969,0,0,0,9.816,0,6.686,6.686,0,0,0,2.052-4.874V0H33.891Z" transform="translate(0.002)" fill="#fff"/>
  <path id="Path_11686" data-name="Path 11686" d="M77.43,8.473v7.6l-1.6,4.387H72.4l-.82-2.268a2.854,2.854,0,0,0,.136-.462h0a4.726,4.726,0,0,0-.265-2.909,3.851,3.851,0,0,0-1.165-1.436h0a1.78,1.78,0,0,0-.21-.136h0c-.1-.062-.216-.123-.357-.2l-.832-2.3V10.7l-.21-.616L67.54,7h1.269a3.833,3.833,0,0,1,2.163,1.9l.425,1.183h0l2.724,7.456Z" transform="translate(-25.92 -2.687)" fill="#fff"/>
  <rect id="Rectangle_1662" data-name="Rectangle 1662" width="2.594" height="2.594" transform="translate(52.207)" fill="#fff"/>
  <path id="Path_11687" data-name="Path 11687" d="M84.72,14.176v6.3h2.594V7.04H84.72Z" transform="translate(-32.513 -2.702)" fill="#fff"/>
  <path id="Path_11688" data-name="Path 11688" d="M135.317,26.331a7.931,7.931,0,0,1-2.607-3.081V26.7h2.607Z" transform="translate(-50.931 -8.923)" fill="#fff"/>
  <path id="Path_11689" data-name="Path 11689" d="M138.887,8.721a6.883,6.883,0,0,0-9.81,0l-.037.037a6.162,6.162,0,0,1,1.189,2.674,4.474,4.474,0,0,1,.7-.863,4.354,4.354,0,1,1,.031,6.119,4.7,4.7,0,0,1-.579-.7,4.314,4.314,0,0,1-.345-.616,4.233,4.233,0,0,1-.345-1.682V12.541a5.435,5.435,0,0,0-1.072-3.254c-.068-.1-.142-.191-.216-.283s-.148-.179-.228-.265-.173-.2-.265-.29a5.62,5.62,0,0,0-8.183,0,5.62,5.62,0,0,0-1.762,4.092V20.33h2.607V12.541a3.081,3.081,0,0,1,.967-2.286,3.192,3.192,0,0,1,4.578,0,3.352,3.352,0,0,1,.659.924,2.854,2.854,0,0,1,.2.542,3.248,3.248,0,0,1,.111.82v1a.408.408,0,0,0,0,.086v.043a6.778,6.778,0,0,0,1.953,4.825,6.651,6.651,0,0,0,.653.616c.111.092.228.179.345.265l.345.234a6.384,6.384,0,0,0,3.426.949,6.464,6.464,0,0,0,4.517-1.805,5.078,5.078,0,0,1-1.232,3.124,3.975,3.975,0,0,1-3.081,1.276,4.313,4.313,0,0,1-3.7-2.107h0l-2.169,1.417a7.752,7.752,0,0,0,1.146,1.368,7.074,7.074,0,0,0,1.423,1.048,6.778,6.778,0,0,0,8.257-1.152,6.6,6.6,0,0,0,2.058-4.862V13.65a6.667,6.667,0,0,0-2.138-4.93Z" transform="translate(-45.271 -2.558)" fill="#fff"/>
  <path id="Path_11690" data-name="Path 11690" d="M164.616,16.586a3.771,3.771,0,0,1-1.2,2.81,3.956,3.956,0,0,1-2.841,1.158,3.876,3.876,0,0,1-2.545-.906,4.184,4.184,0,0,1-1.411-2.366l2.52-.672c.173.906.616,1.362,1.436,1.362a1.442,1.442,0,0,0,1-.407,1.306,1.306,0,0,0,.45-.98c0-.616-.474-1.134-1.417-1.541-.752-.339-1.35-.616-1.787-.826a5.97,5.97,0,0,1-.832-.462,3.543,3.543,0,0,1-1.411-3.038,3.925,3.925,0,0,1,1.183-2.835,3.876,3.876,0,0,1,2.847-1.2,3.821,3.821,0,0,1,2.545.924,4.313,4.313,0,0,1,1.386,2.348L162,10.627c-.191-.894-.653-1.337-1.386-1.337a1.473,1.473,0,0,0-1.436,1.423c0,.616.474,1.122,1.411,1.541.746.32,1.337.616,1.762.807a6.87,6.87,0,0,1,.844.474,3.593,3.593,0,0,1,1.417,3.05Z" transform="translate(-60.093 -2.567)" fill="#fff"/>
  <path id="Path_11691" data-name="Path 11691" d="M72.41,27.71Z" transform="translate(-27.789 -10.635)" fill="#fff"/>
  <path id="Path_11692" data-name="Path 11692" d="M71.66,17.14Z" transform="translate(-27.501 -6.578)" fill="#fff"/>
  <path id="Path_11693" data-name="Path 11693" d="M67.538,13.527a1.5,1.5,0,0,0-.179-.117c-.154-.092-.376-.21-.666-.357-.425-.216-1.017-.487-1.762-.807-.937-.413-1.411-.93-1.411-1.541a1.356,1.356,0,0,1,.431-.992,1.374,1.374,0,0,1,1.011-.431,1.232,1.232,0,0,1,1.158.7,2.372,2.372,0,0,1,.21.616.117.117,0,0,1,0,.049h0l2.526-.7h0a5.109,5.109,0,0,0-.425-1.165A3.824,3.824,0,0,0,64.962,6.65a3.894,3.894,0,0,0-2.853,1.2,3.925,3.925,0,0,0-1.183,2.835,3.531,3.531,0,0,0,1.411,3.038,5.374,5.374,0,0,0,.832.462c.438.21,1.035.487,1.793.826.937.407,1.4.918,1.4,1.541a1.319,1.319,0,0,1-.468,1,1.442,1.442,0,0,1-1,.407c-.789,0-1.232-.456-1.436-1.362l-2.489.672a4.184,4.184,0,0,0,1.411,2.366,3.87,3.87,0,0,0,2.545.9,3.925,3.925,0,0,0,2.822-1.152,3.777,3.777,0,0,0,1.091-1.849,3.95,3.95,0,0,0,.142-.961,3.586,3.586,0,0,0-1.442-3.044Z" transform="translate(-23.379 -2.552)" fill="#fff"/>
</svg>
